/* XPM */
static char *_f00db7ac10b413993e65963aac3921cp3RyXu7YfDYHEyF3[] = {
/* columns rows colors chars-per-pixel */
"32 32 70 1 ",
"  c None",
". c #333B33",
"X c #475447",
"o c #505B50",
"O c #515C51",
"+ c #5B665B",
"@ c #6D776D",
"# c #727972",
"$ c #727A72",
"% c #7C857C",
"& c #8C948C",
"* c #8E948E",
"= c #909890",
"- c #939993",
"; c #9BA39B",
": c #9EA69E",
"> c #A0A7A0",
", c #A2A9A2",
"< c #A3A9A3",
"1 c #A9AEA9",
"2 c #AAB1AA",
"3 c #ACB2AC",
"4 c #AEB4AE",
"5 c #AFB5AF",
"6 c #AFB6AF",
"7 c #B0B5B0",
"8 c #B0B7B0",
"9 c #B1B7B1",
"0 c #B1B8B1",
"q c #B2B8B2",
"w c #B2B9B2",
"e c #B3B9B3",
"r c #B3BAB3",
"t c #B4BAB4",
"y c #B4BBB4",
"u c #B5BBB5",
"i c #B5BCB5",
"p c #B6BCB6",
"a c #B7BDB7",
"s c #B7BEB7",
"d c #B8BDB8",
"f c #B8BFB8",
"g c #BDC0BD",
"h c #BDC2BD",
"j c #C4C9C4",
"k c #C6CBC6",
"l c #CCD0CC",
"z c #CDD0CD",
"x c #CDD1CD",
"c c #D0D5D0",
"v c #D1D4D1",
"b c #D3D7D3",
"n c #D4D8D4",
"m c #D5D8D5",
"M c #D5D9D5",
"N c #D6D9D6",
"B c #DBDDDB",
"V c #DCE0DC",
"C c #DDE0DD",
"Z c #E4E6E4",
"A c #ECEEEC",
"S c #EFF2EF",
"D c #F4F6F4",
"F c #F6F8F6",
"G c #FBFCFB",
"H c #FBFDFB",
"J c #FDFEFD",
"K c #FDFFFD",
"L c #FEFFFE",
"P c white",
/* pixels */
"       .                        ",
"       7            $144,       ",
"       A374444-$&34r7rr7r4d     ",
"       Pryrrrrr7r7rrrsrstrP     ",
"       PtssrrsttrrttstsrsrP     ",
"       Ptstssrst:;rrtsrssrP     ",
"       Ptssrrs:;oO::srsrsrP     ",
"       Prsrstrr+&&+rrsrsstP     ",
"       Ptsststt,@@:rtttsstP     ",
"       PtsrstttO33XsssssdtP     ",
"       PtssttstrrrrrrrttsrP     ",
"       PtsttrststrrrlGPPPDG     ",
"       Prrtkhrr77bPZ            ",
"       GPD    BSj               ",
"       M                        ",
"       b                        ",
"       l                        ",
"       l                        ",
"       l                        ",
"       v                        ",
"       l                        ",
"       l                        ",
"       l                        ",
"       l                        ",
"       l                        ",
"       v                        ",
"       l                        ",
"       l                        ",
"       M                        ",
"      %vM                       ",
"      mBCh                      ",
"                                "
};
