/* XPM */
static char *_a48c7a6ecb045f1ba99e41ee5730cb3yrrXIP7mfkgDVaTu[] = {
/* columns rows colors chars-per-pixel */
"32 32 74 1 ",
"  c None",
". c #5A462F",
"X c #464C30",
"o c #4D4B31",
"O c #4E4A30",
"+ c #4B4C30",
"@ c #5A4630",
"# c #6F4030",
"$ c #6C4230",
"% c gray30",
"& c #555555",
"* c #6C6C6D",
"= c #7B7B7E",
"- c #93352F",
"; c #97342E",
": c #9B2C31",
"> c #A52F2E",
", c #A62F2E",
"< c #AB2D2E",
"1 c #A82E2E",
"2 c #B42A2E",
"3 c #B52A2E",
"4 c #BF292F",
"5 c #A2302E",
"6 c #A4302F",
"7 c #BF2B32",
"8 c #BD2E35",
"9 c #A03438",
"0 c #B13338",
"q c #B53239",
"w c #C0262D",
"e c #C0262E",
"r c #C1262E",
"t c #C0272E",
"y c #C1272E",
"u c #C1272F",
"i c #C1282F",
"p c #C02930",
"a c #C02931",
"s c #C12B32",
"d c #C0373D",
"f c #C13F45",
"g c #C0474D",
"h c #C14D52",
"j c #C15056",
"k c #7E7E81",
"l c #7F7E81",
"z c #7F7F81",
"x c #848486",
"c c #958A8A",
"v c #959595",
"b c gray59",
"n c #9C9597",
"m c #9D9D9E",
"M c #9E9E9F",
"N c #9F9FA0",
"B c gray63",
"V c gray66",
"C c #AEAEAE",
"Z c #B6AFB1",
"A c #B4B4B4",
"S c #BEB4B7",
"D c #C48D90",
"F c #C39D9F",
"G c #C3A9AA",
"H c #C3AEAF",
"J c #C0B3B4",
"K c #C0B4B4",
"L c #C0B5B6",
"P c #C2B5B6",
"I c #C0B6B8",
"U c #C3BDBD",
"Y c #C0BFBF",
"T c #C3BEBE",
/* pixels */
"       %                        ",
"       *            97ri8       ",
"       n7rrrrrq:04rrrrrrrrc     ",
"       SrrrrrrrrrrrrrrrrrrK     ",
"       SrrrrrrrrrrrrrrrrrrK     ",
"       Srrrrrrrr65rrrrrrrrK     ",
"       Srrrrrr>5OO56rrrrrrK     ",
"       Irrrrrrr.-;@rrrrirrK     ",
"       Srrrrrrr<$$<rrrrrrrK     ",
"       Srrirrrr+22XrrrrrrrK     ",
"       SrrrrrrrrrrrrrruurrK     ",
"       SrrrrrrrrrrrrhFTYUDK     ",
"       SrrdgfsrrshGV            ",
"       ZHA    BCv               ",
"       z                        ",
"       z                        ",
"       z                        ",
"       z                        ",
"       z                        ",
"       z                        ",
"       z                        ",
"       z                        ",
"       z                        ",
"       z                        ",
"       z                        ",
"       z                        ",
"       z                        ",
"       z                        ",
"       z                        ",
"      &=x                       ",
"      NNNb                      ",
"                                "
};
