/* XPM */
static char *_98b5961134d4325dc447ce410f3e94dynBkhYuxOOfbjlqZ[] = {
/* columns rows colors chars-per-pixel */
"32 32 113 2 ",
"   c None",
".  c #0C0C00",
"X  c #101000",
"o  c #121100",
"O  c #141400",
"+  c #181800",
"@  c #1C1B00",
"#  c #1F1F00",
"$  c #202000",
"%  c #232300",
"&  c #282700",
"*  c #2D2C00",
"=  c #2D2D00",
"-  c #303000",
";  c #313100",
":  c #353400",
">  c #363500",
",  c #373600",
"<  c #3A3A00",
"1  c #3D3C00",
"2  c #414000",
"3  c #444200",
"4  c #464400",
"5  c #4A4A00",
"6  c #4D4D00",
"7  c #4E4C00",
"8  c #4E4D00",
"9  c #4F4E00",
"0  c #515000",
"q  c #515100",
"w  c #585700",
"e  c #585800",
"r  c #595800",
"t  c #626100",
"y  c #636200",
"u  c #666500",
"i  c #676700",
"p  c #686700",
"a  c #6F6E00",
"s  c #757300",
"d  c #787700",
"f  c #797900",
"g  c #7E7C00",
"h  c #828000",
"j  c #868500",
"k  c #898900",
"l  c #8A8900",
"z  c #8B8900",
"x  c #8F8F00",
"c  c #919000",
"v  c #929000",
"b  c #959400",
"n  c #989600",
"m  c #989700",
"M  c #9B9900",
"N  c #A09F00",
"B  c #A19F00",
"V  c #A2A100",
"C  c #A4A100",
"Z  c #A8A700",
"A  c #AAA800",
"S  c #ADAC00",
"D  c #AEAD00",
"F  c #B0AF00",
"G  c #B2B000",
"H  c #B4B100",
"J  c #B8B700",
"K  c #BAB800",
"L  c #C5C400",
"P  c #C6C400",
"I  c #C7C600",
"U  c #C9C700",
"Y  c #C9C800",
"T  c #CAC800",
"R  c #CBCA00",
"E  c #CDCB00",
"W  c #CECC00",
"Q  c #D2CE00",
"!  c #D1D000",
"~  c #D2D000",
"^  c #D3D000",
"/  c #D5D400",
"(  c #D7D500",
")  c #D8D600",
"_  c #D9D700",
"`  c #D9D800",
"'  c #DAD800",
"]  c #DBD900",
"[  c #DCDA00",
"{  c #DDDB00",
"}  c #DEDC00",
"|  c #E0DE00",
" . c #E2E000",
".. c #E3E100",
"X. c #E3E200",
"o. c #E4E200",
"O. c #E5E300",
"+. c #E6E400",
"@. c #E7E500",
"#. c #E9E700",
"$. c #EAE800",
"%. c #EBE900",
"&. c #ECEA00",
"*. c #EDEB00",
"=. c #EEEC00",
"-. c #EFEC00",
";. c #EEED00",
":. c #EFED00",
">. c #F0ED00",
",. c #F0EE00",
"<. c #F1EE00",
"1. c #F1EF00",
"2. c #F2F000",
/* pixels */
"                                                                ",
"                                                                ",
"                                                                ",
"                        # = > & X .                             ",
"                  5 V } $.&.;.,.;...B 4                         ",
"              9 D } &.,.2.2.2.2.2.2.&.| m 9                     ",
"            q R $.,.2.2.2.2.2.2.2.2.2.,.$.R w                   ",
"          + C ..;.2.2.2.2.2.2.2.2.2.2.2.2.&.~ r                 ",
"            ; G o.,.2.2.2.,.;.2.2.2.2.2.2.2.&.P                 ",
"              = D ..;.2.&.U J } ,.2.2.2.2.2.2.#.x               ",
"                  Z | ;.P 2 X a o.2.2.2.2.2.2.,.[ 3             ",
"                    B [ W p < l #.2.2.2.2.2.2.2.&.v             ",
"                      b ` o...;.2.2.2.2.2.2.2.2.2.`             ",
"                        l / ,.2.2.2.2.2.2.2.2.2.2.&.@           ",
"                          g ~ ,.2.2.2.2.2.2.2.2.2.,.=           ",
"                            j ,.2.2.2.2.2.2.2.2.2.,.1           ",
"                          ; A ,.2.2.2.2.2.2.2.2.2.,.>           ",
"                          V &.2.2.2.2.2.2.2.2.2.2.&.%           ",
"                        m #.2.2.2.2.2.2.2.2.2.2.2.+.O           ",
"                      l ..,.2.2.2.2.2.2.2.2.2.2.;.P             ",
"                    d _ ,.2.2.2.2.2.2.2.2.2.2.2.o.y             ",
"                  u ~ ;.2.2.2.2.2.2.2.2.2.2.2.&.R               ",
"                r E ;.2.2.2.2.2.2.2.2.2.2.2.,./ r               ",
"              q R ;.2.2.2.2.2.2.2.2.2.2.2.,.` s                 ",
"            > K &.2.2.2.2.2.2.2.2.2.2.2.,._ f                   ",
"              h / $.,.2.2.2.2.2.2.2.,.$.Q y                     ",
"                9 F } +.&.,.2.2.,.;.[ v 4                       ",
"                    ; u H [ ..~ M 9 %                           ",
"                                                                ",
"                                                                ",
"                                                                ",
"                                                                "
};
