/* XPM */
static char *_7e5337fcb254898ece78f0762dcee6509O6P4gE20TUY0pW[] = {
/* columns rows colors chars-per-pixel */
"32 32 66 1 ",
"  c None",
". c black",
"X c #010100",
"o c #020200",
"O c #030300",
"+ c #040400",
"@ c #050500",
"# c #080800",
"$ c #090900",
"% c #0B0B00",
"& c #0C0C00",
"* c #121200",
"= c #151500",
"- c #161600",
"; c #171700",
": c #191900",
"> c #1B1A00",
", c #1E1E00",
"< c #1F1F00",
"1 c #2B2A00",
"2 c #313000",
"3 c #343300",
"4 c #353500",
"5 c #3B3A00",
"6 c #3C3B00",
"7 c #3F3E00",
"8 c #3F3F00",
"9 c #424100",
"0 c #515000",
"q c #545300",
"w c #646300",
"e c #666500",
"r c #676600",
"t c #6B6A00",
"y c #6D6C00",
"u c #7E7D00",
"i c #848300",
"p c #929100",
"a c #949300",
"s c #9E9D00",
"d c #A1A000",
"f c #A5A400",
"g c #A9A800",
"h c #AEAC00",
"j c #B0AE00",
"k c #B8B700",
"l c #B9B700",
"z c #BCBB00",
"x c #CCCB00",
"c c #CDCB00",
"v c #CFCE00",
"b c #D0CE00",
"n c #D7D500",
"m c #D9D700",
"M c #DAD800",
"N c #E4E200",
"B c #E6E500",
"V c #E8E600",
"C c #E9E700",
"Z c #EBE900",
"A c #ECEA00",
"S c #EEEC00",
"D c #EFED00",
"F c #F0EE00",
"G c #F1EF00",
"H c #F2F000",
/* pixels */
"                                ",
"                                ",
"                                ",
"               O=24,+           ",
"            OtCHHHHHHFs#        ",
"           wFHHHHHHHHHHHhO      ",
"         ObHFHHHHHHHHHHHHF*     ",
"        ONHHHHHHHHHHHHHHHHAO    ",
"        vHHHHHHHHHHFHHHHHZ+     ",
"       eHHHHHHHHHSjFHHHHNO      ",
"      OHHHHHHHHHH+O5HHFmO       ",
"      tHHHHHHHHHH&O0HHxO        ",
"      CHHHHHHHHHHHMHHzO         ",
"     OHHHHHHHHHHHHHHg           ",
"     >HHHHHHHHHHHHHa            ",
"     5HHHHHHHHHHHHu             ",
"     9HHHHHHHHHHHF+             ",
"     1HHHHHHHHHHHHCO            ",
"     #HHHHHHHHHHHHFnO           ",
"     OHHHHHHHHHHHHHHl           ",
"      lHHHHHHHHHHHHHHp          ",
"      =HHHHHHHHHHHHHHHe         ",
"       vHHHHHHHHHHHHHHH7        ",
"       +HHHHHHHHHHHHHHHH,       ",
"        2HHHHHHHHHHHHHHHH&      ",
"         7HHHHHHHHHHHHHHHSO     ",
"          =ZHHHHHHHHHHHHHq      ",
"           OeFHHHHHHHHHfO       ",
"              >ibBCmd3O         ",
"                                ",
"                                ",
"                                "
};
