/* XPM */
static char *a1169c9bab4646d9a7127f2b1b9cc6b4c9IQuj7U7N0HfZjn[] = {
/* columns rows colors chars-per-pixel */
"32 32 114 2 ",
"   c None",
".  c #0D0D00",
"X  c #0F0F00",
"o  c #131300",
"O  c #161500",
"+  c #181800",
"@  c #1A1A00",
"#  c #1D1D00",
"$  c #1E1E00",
"%  c #252300",
"&  c #252400",
"*  c #2A2A00",
"=  c #2B2A00",
"-  c #2B2B00",
";  c #2D2D00",
":  c #2E2E00",
">  c #323200",
",  c #343300",
"<  c #363500",
"1  c #363600",
"2  c #393800",
"3  c #3A3800",
"4  c #3A3900",
"5  c #3C3B00",
"6  c #3D3B00",
"7  c #3D3C00",
"8  c #3F3F00",
"9  c #414100",
"0  c #424100",
"q  c #434100",
"w  c #474500",
"e  c #4A4A00",
"r  c #4B4B00",
"t  c #4C4A00",
"y  c #4E4E00",
"u  c #4F4E00",
"i  c #585800",
"p  c #595800",
"a  c #5E5C00",
"s  c #5E5D00",
"d  c #616000",
"f  c #6D6C00",
"g  c #6F6D00",
"h  c #747300",
"j  c #757500",
"k  c #7B7900",
"l  c #7F7E00",
"z  c #838300",
"x  c #868500",
"c  c #8B8B00",
"v  c #8D8B00",
"b  c #8D8C00",
"n  c #908F00",
"m  c #929000",
"M  c #939200",
"N  c #949400",
"B  c #999800",
"V  c #9A9900",
"C  c #9F9E00",
"Z  c #A2A000",
"A  c #A6A500",
"S  c #A8A600",
"D  c #A9A700",
"F  c #ADAC00",
"G  c #AFAD00",
"H  c #B0AF00",
"J  c #B1AF00",
"K  c #B8B600",
"L  c #B9B700",
"P  c #B9B800",
"I  c #BEBC00",
"U  c #C3C200",
"Y  c #C4C200",
"T  c #C5C300",
"R  c #C9C800",
"E  c #CAC800",
"W  c #CAC900",
"Q  c #CDCB00",
"!  c #CFCD00",
"~  c #D3D200",
"^  c #D4D200",
"/  c #D6D400",
"(  c #D6D500",
")  c #D7D500",
"_  c #D9D600",
"`  c #D9D800",
"'  c #DAD800",
"]  c #DBD900",
"[  c #DCDB00",
"{  c #DDDB00",
"}  c #DEDC00",
"|  c #E0DE00",
" . c #E1DF00",
".. c #E2E000",
"X. c #E3E100",
"o. c #E3E200",
"O. c #E4E200",
"+. c #E5E300",
"@. c #E6E400",
"#. c #E8E600",
"$. c #E9E700",
"%. c #EAE800",
"&. c #EBE900",
"*. c #ECEA00",
"=. c #EDEB00",
"-. c #EEEC00",
";. c #EFEC00",
":. c #EEED00",
">. c #EFED00",
",. c #F0EE00",
"<. c #F1EE00",
"1. c #F1EF00",
"2. c #F2EF00",
"3. c #F2F000",
/* pixels */
"                                                                ",
"                                                                ",
"                                                                ",
"                                                                ",
"                                                                ",
"                          o $ < 8 * O                           ",
"                      p U %.-.,.,.,.=. .M 4                     ",
"                  y R #.,.3.3.3.3.3.3.3.=...c                   ",
"                f { -.3.3.3.3.3.3.3.3.3.3.,.%.R e               ",
"              j } ,.3.3.3.3.3.3.3.3.3.3.3.3.3.-.( t             ",
"            a } ,.3.3.3.3.3.3.3.3.3.3.3.3.3.3.3.-.R 9           ",
"          6 _ ,.3.3.3.3.3.3.3.3.3.3.3.3.3.3.3.3.3.=.n           ",
"          M =.3.3.3.3.3.3.3.3.3.3.3.3.3.3.3.3.3.3.3...4         ",
"        $ O.,.3.3.3.3.3.3.3.3.3.3.3.3.3.3.3.3.3.3.3.-.B         ",
"        y -.3.3.3.3.3.3.3.3.3.3.3.3.3.3.3.3.3.3.3.3.3...        ",
"        Z ,.3.3.3.3.3.3.3.3.3.3.3.3.3.3.=.%.,.3.3.3.3.-..       ",
"        ( 3.3.3.3.3.3.3.3.3.3.,.,.,.3.-.b h  .3.3.3.3.,.&       ",
"        O.3.3.3.3.3.3.3.3.3.=.D x ^ ,...< . P -.3.3.3.-.,       ",
"        ] ,.3.3.3.3.3.3.,.#.C *   l ] @.d 4 R ,.3.3.3.=.*       ",
"        G -.3.3.3.3.3.,. .N         v { Q T -.3.3.3.3.%.+       ",
"        a %.3.3.3.3.-.( z             B  .-.3.3.3.3.,...+       ",
"        * ..3.3.3.-.! f                 A O.,.3.3.3.=.D         ",
"          G =.3.-.R p                     H #.,.3.,...8         ",
"          9 ] =.T w                       ; L %.,.=.H           ",
"            k L 6                           ; I %.~ 9           ",
"              %                               > H e             ",
"                                                +               ",
"                                                                ",
"                                                                ",
"                                                                ",
"                                                                ",
"                                                                "
};
