/* XPM */
static char *_1ec8f5df1d9430f9d506d2f394d5144Cmdpb23zT37twyGQ[] = {
/* columns rows colors chars-per-pixel */
"32 32 93 2 ",
"   c None",
".  c black",
"X  c #010100",
"o  c #030300",
"O  c #040400",
"+  c #060500",
"@  c #060600",
"#  c #070700",
"$  c #0B0B00",
"%  c #0E0E00",
"&  c #101000",
"*  c #111100",
"=  c #121200",
"-  c #151500",
";  c #171700",
":  c #191900",
">  c #1B1B00",
",  c #1C1C00",
"<  c #1E1C00",
"1  c #1E1D00",
"2  c #1F1F00",
"3  c #212100",
"4  c #242400",
"5  c #252500",
"6  c #282800",
"7  c #292900",
"8  c #2B2A00",
"9  c #2C2C00",
"0  c #2E2D00",
"q  c #2F2E00",
"w  c #2F2F00",
"e  c #343400",
"r  c #3B3B00",
"t  c #3C3B00",
"y  c #3F3D00",
"u  c #3F3E00",
"i  c #414000",
"p  c #434200",
"a  c #4C4C00",
"s  c #515100",
"d  c #605F00",
"f  c #656400",
"g  c #666500",
"h  c #676600",
"j  c #727100",
"k  c #777600",
"l  c #7A7900",
"z  c #818000",
"x  c #8D8C00",
"c  c #8F8E00",
"v  c #979600",
"b  c #999800",
"n  c #9B9A00",
"m  c #A8A600",
"M  c #ACAB00",
"N  c #AEAD00",
"B  c #B1B000",
"V  c #B2B000",
"C  c #B6B400",
"Z  c #BFBE00",
"A  c #C1C000",
"S  c #C3C200",
"D  c #C9C700",
"F  c #CBCA00",
"G  c #CFCD00",
"H  c #D1CF00",
"J  c #D3D100",
"K  c #D5D300",
"L  c #D6D400",
"P  c #D8D600",
"I  c #DAD800",
"U  c #DDDB00",
"Y  c #DFDE00",
"T  c #E1DF00",
"R  c #E2E000",
"E  c #E3E100",
"W  c #E5E300",
"Q  c #E6E300",
"!  c #E6E400",
"~  c #E6E500",
"^  c #E7E500",
"/  c #E8E600",
"(  c #E9E700",
")  c #EAE800",
"_  c #EBE900",
"`  c #ECEA00",
"'  c #EDEB00",
"]  c #EDEC00",
"[  c #EEEC00",
"{  c #EFED00",
"}  c #F0EE00",
"|  c #F1EF00",
" . c #F2F000",
/* pixels */
"                                                                ",
"                                                                ",
"                                                                ",
"                                                                ",
"              :                                                 ",
"            7 I e                                 o             ",
"          : Y  .` 0                             $ D d           ",
"          V `  . .W 0                         3 H } E ,         ",
"        , E  . . . .U 7                     t L ]  . .n         ",
"        m `  . . . .} H 4                 f Y  . . . ./ :       ",
"        /  . . . . . . .A               x W }  . . . . .t       ",
"      $ _  . . . . ./ _  .N           B _  . . . . . . .v       ",
"      3 _  . . . .] u a ` } n     X G ]  . . . . . . . .L       ",
"      e ]  . . . .C O X L  . .z O E  . . . . . . . . . .W       ",
"      0 }  . . . .] - ; `  . . .}  . . . . . . . . . . .~       ",
"      = }  . . . . . . . . . . .}  . . . . . . . . . . .J       ",
"      O }  . . . . . . . . . . . . . . . . . . . . . .} c       ",
"        U  . . . . . . . . . . . . . . . . . . . . . .} 7       ",
"        g }  . . . . . . . . . . . . . . . . . . . . .` O       ",
"        % W  . . . . . . . . . . . . . . . . . . . .] k         ",
"          h }  . . . . . . . . . . . . . . . . . .} / -         ",
"            S }  . . . . . . . . . . . . . . . . ./ q           ",
"            ; P }  . . . . . . . . . . . . . .} / s             ",
"              ; F /  . . . . . . . . . . . . .W p               ",
"                  j _ _ }  . . . . . .}  .} Z ,                 ",
"                    = l / ] } }  . . ._ M 4                     ",
"                          O 1 t i 8 = =                         ",
"                                                                ",
"                                                                ",
"                                                                ",
"                                                                ",
"                                                                "
};
