/* XPM */
static char *_d137a13452345b6d8dc66be36e4eaadNeXGbdlOtdsIjZHe[] = {
/* columns rows colors chars-per-pixel */
"32 32 53 1 ",
"  c None",
". c black",
"X c #010100",
"o c #020200",
"O c #030300",
"+ c #040400",
"@ c #050500",
"# c #080800",
"$ c #090900",
"% c #0C0C00",
"& c #121200",
"* c #151500",
"= c #161600",
"- c #171700",
"; c #191900",
": c #1B1A00",
"> c #1E1E00",
", c #2B2A00",
"< c #313000",
"1 c #343300",
"2 c #353500",
"3 c #3B3A00",
"4 c #3C3B00",
"5 c #3F3F00",
"6 c #424100",
"7 c #515000",
"8 c #545300",
"9 c #646300",
"0 c #666500",
"q c #676600",
"w c #6B6A00",
"e c #6D6C00",
"r c #848300",
"t c #9E9D00",
"y c #A1A000",
"u c #A5A400",
"i c #AEAC00",
"p c #B0AE00",
"a c #B8B700",
"s c #CCCB00",
"d c #CFCE00",
"f c #D0CE00",
"g c #D9D700",
"h c #DAD800",
"j c #E4E200",
"k c #E6E500",
"l c #E8E600",
"z c #E9E700",
"x c #ECEA00",
"c c #EEEC00",
"v c #EFED00",
"b c #F0EE00",
"n c #F2F000",
/* pixels */
"                                ",
"                                ",
"                                ",
"               O*<2>+           ",
"            Owznnnnnnbt#        ",
"           9bnnnnnnnnnnniO      ",
"         Ofnbnnnnnnnnnnnnb&     ",
"        OjnnnnnnnnnnnnnnnnxO    ",
"        dnnnnnnnnnnbnnnnnnnn    ",
"       0nnnnnnnnncpbnnnnnnnnn   ",
"      Onnnnnnnnnn+O3nnnnnnnnn   ",
"      wnnnnnnnnnn%O7nnnnnnnnnn  ",
"      znnnnnnnnnnnhnnnnnnnnnnn  ",
"     Onnnnnnnnnnnnnnnnnnnnnnnn  ",
"     :nnnnnnnnnnnnnnnnnnnnnnnn  ",
"     3nnnnnnnnnnnnnnnnnnnnnnnn  ",
"     6nnnnnnnnnnnnnnbbnbbnbbnb  ",
"     ,nnnnnnnnnnnnOOOOOOOOOOOb  ",
"     #nnnnnnnnnnnnbbnnnnbnnnnn  ",
"     Onnnnnnnnnnnnnnnnnnbnnnnn  ",
"      annnnnnnnnnnnnnnnnnnnnn   ",
"      *nnnnnnnnnnnnnnnnnnnnnn   ",
"       dnnnnnnnnnnnnnnnnnnnnn   ",
"       +nnnnnnnnnnnnnnnnnnn     ",
"        <nnnnnnnnnnnnnnnnnb     ",
"         6nnnnnnnnnnnnnnnnO     ",
"          *znnnnnnnnnnnnn8      ",
"           O0bnnnnnnnnnuO       ",
"              :rfkzgy2O         ",
"                                ",
"                                ",
"                                "
};
