/* XPM */
static char *c4774338b6014185c45795bbc93c006bx3NwhfqeLf78LnXm[] = {
/* columns rows colors chars-per-pixel */
"30 30 182 2 ",
"   c None",
".  c #372C0D",
"X  c #392E0F",
"o  c #2C370E",
"O  c #35300E",
"+  c #3C2C11",
"@  c #2F3510",
"#  c #2D3D11",
"$  c #3A3B12",
"%  c #3B3317",
"&  c #3B2A27",
"*  c #3F322F",
"=  c #462F0E",
"-  c #53260F",
";  c #40251C",
":  c #462C1C",
">  c #4B321F",
",  c #583A1E",
"<  c #65310E",
"1  c #7F3A0F",
"2  c #71350F",
"3  c #6E2B11",
"4  c #653C1A",
"5  c #723710",
"6  c #723B1E",
"7  c #4F2F25",
"8  c #432C23",
"9  c #4B3323",
"0  c #4F3C2A",
"q  c #4E3229",
"w  c #503723",
"e  c #553B25",
"r  c #5E3926",
"t  c #57372A",
"y  c #523D28",
"u  c #493933",
"i  c #623E24",
"p  c #603D2A",
"a  c #753E21",
"s  c #2B4311",
"d  c #2E4A14",
"f  c #334413",
"g  c #3C4216",
"h  c #304913",
"j  c #42441A",
"k  c #4B411C",
"l  c #5B4227",
"z  c #554028",
"x  c #5B432A",
"c  c #5F482A",
"v  c #504B26",
"b  c #595029",
"n  c #504532",
"m  c #5D4E39",
"M  c #634423",
"N  c #6E4527",
"B  c #6A442A",
"V  c #654C2D",
"C  c #694A2B",
"Z  c #724023",
"A  c #74482F",
"S  c #794C2F",
"D  c #655027",
"F  c #67502F",
"G  c #6C512E",
"H  c #6C5126",
"J  c #634C31",
"K  c #6F4B32",
"L  c #694531",
"P  c #7B4C33",
"I  c #6D5533",
"U  c #755730",
"Y  c #77503A",
"T  c #7D533A",
"R  c #765E38",
"E  c #7D5B3F",
"W  c #7B653A",
"Q  c #79663D",
"!  c #4B4647",
"~  c #514544",
"^  c #5A4D47",
"/  c #53494A",
"(  c #5B4C49",
")  c #5E5A5D",
"_  c #595356",
"`  c #664E41",
"'  c #645B42",
"]  c #64534C",
"[  c #6A5E44",
"{  c #7E5E42",
"}  c #645552",
"|  c #70694C",
" . c #6C625C",
".. c #6B6A6D",
"X. c #717277",
"o. c #84380E",
"O. c #8C3C0E",
"+. c #913D0E",
"@. c #823510",
"#. c #843913",
"$. c #973D11",
"%. c #97410E",
"&. c #99410F",
"*. c #89431E",
"=. c #8F491F",
"-. c #854F1B",
";. c #974112",
":. c #9D4612",
">. c #9D4A1B",
",. c #86531F",
"<. c #97581D",
"1. c #9A5D16",
"2. c #A0460F",
"3. c #B44E0F",
"4. c #BC520F",
"5. c #A34811",
"6. c #AA4A14",
"7. c #A04615",
"8. c #B24D10",
"9. c #B95110",
"0. c #B45218",
"q. c #A16115",
"w. c #B96B19",
"e. c #814A24",
"r. c #854D29",
"t. c #854524",
"y. c #8C512B",
"u. c #9A5828",
"i. c #825537",
"p. c #805A31",
"a. c #845639",
"s. c #86583C",
"d. c #8D5D3B",
"f. c #8E5835",
"g. c #925A36",
"h. c #9B5C32",
"j. c #915939",
"k. c #B55A22",
"l. c #846A3D",
"z. c #87663C",
"x. c #96623D",
"c. c #98623A",
"v. c #A3653B",
"b. c #AA693C",
"n. c #B4703C",
"m. c #C3550E",
"M. c #C05410",
"N. c #836547",
"B. c #9E6A42",
"V. c #90714D",
"C. c #916A50",
"Z. c #9D7A52",
"A. c #A46F43",
"S. c #A97043",
"D. c #AC754C",
"F. c #A37447",
"G. c #B1774A",
"H. c #B47C4C",
"J. c #BC7C4A",
"K. c #BA7643",
"L. c #C27A43",
"P. c #C87F45",
"I. c #BA814F",
"U. c #A38055",
"Y. c #BC8352",
"T. c #B88358",
"R. c #C9844B",
"E. c #CD894F",
"W. c #C18654",
"Q. c #C68A56",
"!. c #CA8A54",
"~. c #CA8651",
"^. c #D28E53",
"/. c #CE915A",
"(. c #D19057",
"). c #D3955B",
"_. c #D8975B",
"`. c #DD9C5E",
"'. c #E09C5D",
"]. c #DC9C60",
"[. c #E09E60",
"{. c #E3A263",
/* pixels */
"                                                            ",
"                      c.G.H.S.                              ",
"                    c.).{.{.{.).G.                          ",
"                    I.{.{.{.{.{.{.Y.                        ",
"                    (.{.'.^.!.J.~.).f.                      ",
"                  r.(.Q.L.P.h.:.>.g.*.                      ",
"                  Z b.j.J.`.K.a 6 P P                       ",
"                M v.h.h.J.~.!.v.J./.T.                      ",
"              $ f H h.h.k.0.u.t.*.=.*.#.                    ",
"            , k g h g 4 9.m.6.6.3.5.#.7.                    ",
"          A././.F.j h $ :.M.;.8.+.o.:.#.3                   ",
"        g.].{.{.{.U h # 5 4.#.@.&.9.m.9.@.                  ",
"        v.{.{.{.{.z.h s = 5.O.2.m.m.m.m.$.                  ",
"        h.`.{.{.{.p.h d o 5 6.4.m.m.m.m.@.                  ",
"        r.R.{.{.~.M h d s X 1 3.m.m.m.5.-                   ",
"        e.L.{.[.^.H.j d d # . < O.%.1 = .                   ",
"        r.^.{.{.{.`.D h d d s o O X @ # +                   ",
"        e.E.{.{.{.{.U f f f f f b Q v %                     ",
"          n._.Q.).W.p > -.1.q.,.U.E { 8 7                   ",
"          y.R.!.D.T ~ * i u.w.<.Z.Z.E r s.A                 ",
"            y.S.C.} ! _ / T 4 i l V.N.t a.a.                ",
"            q ( _ / ) X.) Y K ' [ [ m L a.D.i.              ",
"              & ~ ]  ...] x.B 0 ' | m i.Y.d.                ",
"              + u ^ ^ ` B.B 0 n ' ' x d.x.a.                ",
"                ; q A f.N > e J c y K W.S                   ",
"                9 c C G V w c W W l e p                     ",
"                  z W R I I l W l.l.l.F                     ",
"                  z V J I I c c F V V x J                   ",
"                                                            ",
"                                                            "
};
