/* XPM */
static char *_f7739d887d2449ec3eb22a76ad16acaQID3zFRCCDleROzU[] = {
/* columns rows colors chars-per-pixel */
"30 30 178 2 ",
"   c None",
".  c #382C0E",
"X  c #362E0E",
"o  c #2C360E",
"O  c #34300E",
"+  c #3C2C11",
"@  c #2F3610",
"#  c #2D3D11",
"$  c #3A3814",
"%  c #3B2A27",
"&  c #3E3230",
"*  c #462F0E",
"=  c #52260F",
"-  c #40251C",
";  c #462C1C",
":  c #4B321F",
">  c #583A1E",
",  c #65310E",
"<  c #7F3A0F",
"1  c #72350F",
"2  c #6D2B11",
"3  c #643C1A",
"4  c #723710",
"5  c #723B1F",
"6  c #432C23",
"7  c #502F25",
"8  c #4C3323",
"9  c #4F3C2A",
"0  c #4D3229",
"q  c #503723",
"w  c #543C26",
"e  c #5F3926",
"r  c #57372A",
"t  c #5F3C2A",
"y  c #493933",
"u  c #623E24",
"i  c #753E21",
"p  c #2B4311",
"a  c #2E4A14",
"s  c #344413",
"d  c #3C4216",
"f  c #304913",
"g  c #424419",
"h  c #4C411D",
"j  c #5B4227",
"k  c #504B26",
"l  c #554028",
"z  c #5B432A",
"x  c #5F482A",
"c  c #5A512A",
"v  c #504532",
"b  c #5C4E37",
"n  c #5E4E3A",
"m  c #634423",
"M  c #6A432A",
"N  c #654D2E",
"B  c #6B4729",
"V  c #724023",
"C  c #74492F",
"Z  c #784C2F",
"A  c #645027",
"S  c #6C5126",
"D  c #67502F",
"F  c #6C512E",
"G  c #624B31",
"H  c #6F4C32",
"J  c #694632",
"K  c #7B4D33",
"L  c #6E5533",
"P  c #765630",
"I  c #7F5437",
"U  c #725830",
"Y  c #7C523A",
"T  c #765E38",
"R  c #7D5B3F",
"E  c #7C653A",
"W  c #7F693C",
"Q  c #75643F",
"!  c #4B4647",
"~  c #514544",
"^  c #5A4D47",
"/  c #53494A",
"(  c #5B4C4A",
")  c #5E5A5D",
"_  c #585355",
"`  c #654F44",
"'  c #655B42",
"]  c #65574F",
"[  c #6A5E44",
"{  c #7D5D41",
"}  c #645552",
"|  c #70694C",
" . c #6C625C",
".. c #6B6A6D",
"X. c #717277",
"o. c #84380E",
"O. c #8C3C0E",
"+. c #913D0E",
"@. c #823510",
"#. c #843913",
"$. c #963C11",
"%. c #97410E",
"&. c #9A420F",
"*. c #89431D",
"=. c #8F491F",
"-. c #974112",
";. c #9D4612",
":. c #9D4A1B",
">. c #85511D",
",. c #96571D",
"<. c #9A5E16",
"1. c #A1470F",
"2. c #B54E0F",
"3. c #BC520F",
"4. c #A04614",
"5. c #A34811",
"6. c #AA4A14",
"7. c #B04C10",
"8. c #B95110",
"9. c #B45218",
"0. c #A16115",
"q. c #B96B19",
"w. c #814A24",
"e. c #854D29",
"r. c #854524",
"t. c #8C512B",
"y. c #9A5828",
"u. c #805A31",
"i. c #8F5935",
"p. c #845639",
"a. c #86583C",
"s. c #8D5D3B",
"d. c #875535",
"f. c #925A36",
"g. c #9B5C32",
"h. c #915939",
"j. c #B55A22",
"k. c #80663C",
"l. c #846A3E",
"z. c #8E663C",
"x. c #96623D",
"c. c #98623B",
"v. c #A3653B",
"b. c #AA693C",
"n. c #B5703C",
"m. c #C3550E",
"M. c #C05410",
"N. c #826546",
"B. c #9E6A42",
"V. c #90724E",
"C. c #916A50",
"Z. c #9D7A52",
"A. c #A56F44",
"S. c #AA7143",
"D. c #AC754C",
"F. c #A27346",
"G. c #B27A4B",
"H. c #BB7C4B",
"J. c #BA7743",
"K. c #C27B43",
"L. c #A38055",
"P. c #BA8353",
"I. c #C88045",
"U. c #C9844B",
"Y. c #CD8A4F",
"T. c #C38652",
"R. c #C88651",
"E. c #C68A56",
"W. c #CB8C55",
"Q. c #D28E53",
"!. c #CE915A",
"~. c #D29057",
"^. c #D3955B",
"/. c #D8975B",
"(. c #DE9C5E",
"). c #E09E5F",
"_. c #DC9C60",
"`. c #E3A263",
/* pixels */
"                                                            ",
"                                                            ",
"                                                            ",
"                                                            ",
"                                                            ",
"                                                            ",
"                                                            ",
"                                          p.                ",
"                                      C p.D.s.p.            ",
"                    2 @.$.@.= . +   7 a.p.p.P.x.Z     G     ",
"                #.4.#.8.m.m.5.* # $ 6 e r J I s.T.u D z     ",
"        d.*.K P.*.#.;.m.m.m.m.< @ k { R N.n b z H w l.N     ",
"      P./.f.K !.=.5.o.8.m.m.m.%.. Q R Z.V.[ | ' w j k.N     ",
"    G.`.R.:.5 H.*.2.+.&.m.m.m.O.O c L.Z.t [ ' ' G E l.D     ",
"    /.`.H.;.i v.r.6.7.@.1.3.2., o s >.,.u ' 9 v G E W x     ",
"  S.`.`.W.g.J.W.y.6.-.#.O.7.< X p s 0.q.3 H M 9 w x j x     ",
"  H.`.`.Q.K.(.R.9.m.M.3.5.4 . # a s <.y.I Y x.M : q L L     ",
"  G.`.`.(.K.H.H.j.8.;.4 * o p a a s >.u / ) ` B.B N L L     ",
"  c.^.`.`.E.h.g.g.3 $ # p a a a f s : & _ X...` i.F T N     ",
"    x.P.^.~.b.g.g.d f f f f f g A P t ~ ! )  .^ C B W N     ",
"          e.V v.S f g U z.u.m G._.`.T.I } / ] ^ 0 x l l     ",
"              m s d F.`.`.`.R.Q.`.`.^.D.C._ ~ y - 8         ",
"                $ h !.`.`.`.`.).`.`.E.W.S.( % -             ",
"                  > !.`.`.`.`.`.`.`./.U.t.0                 ",
"                    A._.`.(.U.K.Q.W.n.t.                    ",
"                      f.v.g.e.w.e.w.                        ",
"                                                            ",
"                                                            ",
"                                                            ",
"                                                            "
};
