/* XPM */
static char *_fcb13de42354d22a6d0f6922bcfc824ARgnnJiipuF3xKV2[] = {
/* columns rows colors chars-per-pixel */
"30 30 182 2 ",
"   c None",
".  c #372C0D",
"X  c #392E0F",
"o  c #2B370E",
"O  c #34300E",
"+  c #3E2916",
"@  c #2F3510",
"#  c #2D3D11",
"$  c #3A3B12",
"%  c #3B3217",
"&  c #3A2A27",
"*  c #3E3230",
"=  c #462F0E",
"-  c #52260F",
";  c #462C1C",
":  c #4A321F",
">  c #583A1E",
",  c #65310E",
"<  c #7F3A0F",
"1  c #71350F",
"2  c #6E2B11",
"3  c #643C1A",
"4  c #703710",
"5  c #723B1F",
"6  c #4F2F25",
"7  c #432C23",
"8  c #4B3323",
"9  c #4F3C2A",
"0  c #4D3229",
"q  c #503723",
"w  c #553B25",
"e  c #5F3926",
"r  c #57372A",
"t  c #543F28",
"y  c #5B3F29",
"u  c #493933",
"i  c #623E24",
"p  c #603D2A",
"a  c #753E21",
"s  c #2B4312",
"d  c #2E4A14",
"f  c #344413",
"g  c #3C4216",
"h  c #304913",
"j  c #42441A",
"k  c #4C411D",
"l  c #594226",
"z  c #544128",
"x  c #5C442A",
"c  c #584A29",
"v  c #59512A",
"b  c #504532",
"n  c #5D4F39",
"m  c #634423",
"M  c #6E4527",
"N  c #6B442A",
"B  c #654D2E",
"V  c #694A2B",
"C  c #724023",
"Z  c #74492F",
"A  c #794C2F",
"S  c #655027",
"D  c #67502F",
"F  c #6C512E",
"G  c #6C5126",
"H  c #624B31",
"J  c #6E4A30",
"K  c #694631",
"L  c #7B4D33",
"P  c #704D34",
"I  c #6E5533",
"U  c #775731",
"Y  c #77503A",
"T  c #7E533A",
"R  c #775E38",
"E  c #7A5838",
"W  c #7B653A",
"Q  c #7E683C",
"!  c #76643F",
"~  c #4B4647",
"^  c #514544",
"/  c #5A4D47",
"(  c #53494A",
")  c #5B4C49",
"_  c #5E5A5D",
"`  c #585355",
"'  c #664E41",
"]  c #645B42",
"[  c #64534C",
"{  c #6A5E44",
"}  c #7E5D41",
"|  c #645552",
" . c #70694C",
".. c #6C615B",
"X. c #6B6A6D",
"o. c #717277",
"O. c #83380E",
"+. c #8C3C0E",
"@. c #913E0E",
"#. c #823510",
"$. c #843913",
"%. c #973D11",
"&. c #97410E",
"*. c #99420F",
"=. c #87451E",
"-. c #89421D",
";. c #8E491F",
":. c #844F1B",
">. c #974112",
",. c #9D4512",
"<. c #9D4A1A",
"1. c #86531F",
"2. c #96571D",
"3. c #9A5D16",
"4. c #A0460F",
"5. c #B54E0F",
"6. c #BC520F",
"7. c #A34811",
"8. c #AC4B13",
"9. c #A04614",
"0. c #B04C10",
"q. c #B95110",
"w. c #B45218",
"e. c #A16115",
"r. c #B96B19",
"t. c #804924",
"y. c #854D29",
"u. c #884A28",
"i. c #8D522A",
"p. c #9A5828",
"a. c #855737",
"s. c #8F5A35",
"d. c #83553A",
"f. c #86583A",
"g. c #8D5D3B",
"h. c #875833",
"j. c #925A36",
"k. c #9B5C32",
"l. c #915939",
"z. c #B45A22",
"x. c #846A3E",
"c. c #80663C",
"v. c #94633D",
"b. c #98623A",
"n. c #A3653B",
"m. c #AA693C",
"M. c #B4703C",
"N. c #C3550E",
"B. c #C05410",
"V. c #836547",
"C. c #9E6A42",
"Z. c #8F714D",
"A. c #916A50",
"S. c #9D7A52",
"D. c #A46F43",
"F. c #AA7143",
"G. c #AC754C",
"H. c #A37447",
"J. c #B27B4B",
"K. c #BA7C4B",
"L. c #BB7744",
"P. c #C27A43",
"I. c #C87F45",
"U. c #BA814F",
"Y. c #A38055",
"T. c #B88255",
"R. c #C9844A",
"E. c #CC894F",
"W. c #C28653",
"Q. c #C98550",
"!. c #C68A56",
"~. c #CB8B54",
"^. c #D28E53",
"/. c #CE915A",
"(. c #D19057",
"). c #D3945B",
"_. c #D8975B",
"`. c #DE9C5D",
"'. c #E09C5D",
"]. c #DC9D60",
"[. c #E09F60",
"{. c #E3A263",
/* pixels */
"                                                            ",
"                                                            ",
"                                                            ",
"                                                            ",
"                        t.y.t.y.k.n.j.                      ",
"                    i.M.E.^.P.R.`.{.].D.                    ",
"                0 i.R._.{.{.{.{.{.{.{./.>                   ",
"            + & ) F.~.!.{.{.[.{.{.{.{./.k $                 ",
"        8 ; u ^ ` A.G.).{.{.^.Q.{.{.{.H.g f m               ",
"    t z x 0 / [ ( | T W.{.].J.m h.v.U j f G n.C y.          ",
"    B Q V Z / .._ ~ ^ p U S j h h f h h g k.k.m.(.).U.b.    ",
"    B R F s.' X.o.` * : f h d d d s # $ 3 k.k.l.!.{.{.).b.  ",
"    I I B M C.[ _ ( i :.f d d s o = 4 ,.q.z.K.K.P.`.{.{.J.  ",
"    I I q : N v.Y T p.3.f d # X 1 7.6.B.N.w.Q.`.I.^.{.{.K.  ",
"    x l x w 9 N P 3 r.e.f s . < 0.+.$.>.8.p.~.L.k.~.{.{.F.  ",
"    x Q W H b 9 ] i 2.1.f o , 0.6.4.#.0.8.t.n.a ,.K.{._.    ",
"    D x.W H ] ] { y S.Y.v O +.N.N.N.*.@.5.=.K.5 <.Q.{.J.    ",
"    B c.x t ]  .{ Z.S.E ! X &.N.N.N.q.O.7.;./.L j._.W.      ",
"    B x.w J x n n V.} } c @ < N.N.N.N.,.$.=.T.L -.s.        ",
"    x F i W.g.T K r e 7 % # = 7.N.N.q.$.9.$.                ",
"    H     A v.T.d.d.f.6   X . - #.%.#.2                     ",
"            f.g.G.d.Z                                       ",
"                a.                                          ",
"                                                            ",
"                                                            ",
"                                                            ",
"                                                            ",
"                                                            ",
"                                                            ",
"                                                            "
};
