/* XPM */
static char *result[] = {
/* columns rows colors chars-per-pixel */
"32 32 202 2 ",
"   c #172518793C19",
".  c #1EC01EF53A12",
"X  c #23C11E8234A5",
"o  c #2A9022743386",
"O  c #273726223BF3",
"+  c #36F62A293256",
"@  c #3AC133663BD7",
"#  c #30F525392B64",
"$  c #41332B5F2D70",
"%  c #4C1F38AA36AA",
"&  c #5A4D3C2E32A8",
"*  c #5B163B0F2D4F",
"=  c #607C3F6034C6",
"-  c #57C441213D5E",
";  c #671347A73AC8",
":  c #72984E193DB3",
">  c #73CD534D3E37",
",  c #15E91A33432E",
"<  c #1C6219954901",
"1  c #192C1D4054E4",
"2  c #22981D865571",
"3  c #23D01EEC5ACB",
"4  c #1C4D26C14AB9",
"5  c #1408226E5D25",
"6  c #19CD23CB5556",
"7  c #25452B60419A",
"8  c #315F2FF651A5",
"9  c #1B97298564DD",
"0  c #1C0D26946DC4",
"q  c #1A532C946DA3",
"w  c #120E26F36C79",
"e  c #15AD2AE97246",
"r  c #19662D137116",
"t  c #1A1C2F007AF6",
"y  c #1CCE30F073EC",
"u  c #1C6235567AEA",
"i  c #226C23EC6359",
"p  c #237E24966AA4",
"a  c #2AF9242B6A40",
"s  c #2A2C269C69C0",
"d  c #234F2B15715E",
"f  c #2E0827F17319",
"g  c #229A28467405",
"h  c #249535C2789A",
"j  c #321A3EF17B46",
"k  c #34023CF86D85",
"l  c #409D31AA4756",
"z  c #4DBF3D5C52A6",
"x  c #3BCF41856A85",
"c  c #54D2415A4072",
"v  c #5C2F50BB5F70",
"b  c #59C645ED57E2",
"n  c #65364B5F48E2",
"m  c #730252E6446C",
"M  c #7CD259F04814",
"N  c #77C1580958A9",
"B  c #66894DAA56B7",
"V  c #464F474864D2",
"C  c #83C13ADD13A7",
"Z  c #8E5146181B4D",
"A  c #87EA3FF6160C",
"S  c #922B469E1DCD",
"D  c #982E4C652389",
"F  c #A8FF57052A07",
"G  c #AD695FA22FB2",
"H  c #9E8268653CB6",
"J  c #B7C8690E3920",
"K  c #C1E96E293DB9",
"L  c #C0D0700B3C63",
"P  c #84BA5C304963",
"I  c #889C59DA5017",
"U  c #898E63934CEA",
"Y  c #97AD6B8B574F",
"T  c #9AFE738C5DB6",
"R  c #8C5D68CD5EA3",
"E  c #AF42743144AA",
"W  c #B11B758449F3",
"Q  c #B48178234A0F",
"!  c #A3AE72995A13",
"~  c #A4DC74EF54A9",
"^  c #B5DB7D4A5391",
"/  c #B7B17D50574E",
"(  c #A36F6EAD567E",
")  c #8FBE67FA62B8",
"_  c #9F1C786764AE",
"`  c #AEDA7615610D",
"'  c #A5F17BC261E1",
"]  c #B4D87CFA63AD",
"[  c #BBE77E3C6401",
"{  c #C1DF6F804036",
"}  c #C47B7733451B",
"|  c #C2757E36553E",
" . c #BC0B80EB5588",
".. c #BBEF803F5D7B",
"X. c #BAD5852B6156",
"o. c #BA3D87AB6544",
"O. c #BF8793217F30",
"+. c #AE63827C6860",
"@. c #CA81859E4CF5",
"#. c #C9C189115B44",
"$. c #CDAE8A77533B",
"%. c #D2648C15565E",
"&. c #D5BD8CB65C18",
"*. c #D93C8EEE5DC7",
"=. c #D66D927F5C71",
"-. c #CB238E0B626D",
";. c #C1A38C776D3B",
":. c #C911917F6D65",
">. c #D60496056B0C",
",. c #DB249B816CEC",
"<. c #D72294FC6725",
"1. c #C1428FDF7752",
"2. c #C95396D77382",
"3. c #CB6B98D87AE9",
"4. c #C52296867E0A",
"5. c #D258997E743E",
"6. c #DDD09E84726B",
"7. c #D30B9C7C7E8F",
"8. c #DB31A35D7A68",
"9. c #E22CA5747AC0",
"0. c #E471A8337D35",
"q. c #17CA32DF885B",
"w. c #31FB2D8F8309",
"e. c #252A3B6A8B8D",
"r. c #26B03A4985FA",
"t. c #321E365984E8",
"y. c #25F23B849440",
"u. c #2B2D3AFB90F3",
"i. c #25133CB69A72",
"p. c #279D34169862",
"a. c #369D37789AF7",
"s. c #265E2AA28001",
"d. c #1DCC3C9EA9B1",
"f. c #1C3E3A64A2F1",
"g. c #24633B6BA460",
"h. c #2A3D3CD2A7CF",
"j. c #347539ECA304",
"k. c #32943EF1A9A2",
"l. c #3C1E3BDCA5B1",
"z. c #2B26407397AB",
"x. c #3D02473B997F",
"c. c #1E1F405CAAB2",
"v. c #2C764239A42E",
"b. c #24B94347AD15",
"n. c #2AD246D7AB29",
"m. c #330F4C51AB3A",
"M. c #3D274C3BACA9",
"N. c #363C401BAAF4",
"B. c #2B4E43E6B486",
"V. c #2DFC4ADBB52E",
"C. c #2D304B45BB8D",
"Z. c #2C9346BFB943",
"A. c #321E4BA3B533",
"S. c #32274BE0BB9C",
"D. c #357A484CB55E",
"F. c #3931504BB4BF",
"G. c #361251A5BA98",
"H. c #4A59461E9714",
"J. c #47C24922A4E2",
"K. c #41874F83B25B",
"L. c #45315508B88F",
"P. c #33E25253C28D",
"I. c #3B4D544CC3BE",
"U. c #32935969C402",
"Y. c #3D835A7FC3AB",
"T. c #3E3C555BC8C6",
"R. c #3C3A6288C759",
"E. c #42855944C422",
"W. c #46375A0CC893",
"Q. c #463C62C4CFDD",
"!. c #47336C80CB64",
"~. c #4A1C6916D08B",
"^. c #CA3B9C8A83F9",
"/. c #D55AA2BA83A0",
"(. c #DC0FA3888186",
"). c #D9CFA8F98CC0",
"_. c #DB00AF749973",
"`. c #D7FFAB599799",
"'. c #D5BDABB991FF",
"]. c #E5EDAC67836A",
"[. c #E570ADD48B10",
"{. c #E97CB0C98ED4",
"}. c #E64DB2B193B9",
"|. c #ED07B52F955A",
" X c #ED41BB479DF7",
".X c #E648B7C19C13",
"XX c #F1E7B80E9A9D",
"oX c #ECC7BD27A41D",
"OX c #E7ADBD2FA353",
"+X c #F233BD8FA2B0",
"@X c #ED23C464AB7E",
"#X c #F364C4ABACF5",
"$X c #F23FC5F1AB3E",
"%X c #F587CA8CB5BA",
"&X c #F73FCC40B9D2",
"*X c #F9BACDF3BB31",
"=X c #F6AAC805B15E",
"-X c #FA4FD265BE7D",
";X c #F86BD250BB80",
":X c #FC19D2C1C237",
">X c #FD57E025CAEF",
",X c None",
/* pixels */
",X,X,X,X,X,X,X,X,X,X,X,X,X,X,X>X:X;X;X@X,X,X,X,X,X,X,X,X,X,X,X,X",
",X,X,X,X,X,X,X,X,X,X,X,X,X,X,X@X&X%X$X).,X,X,X,X,X,X,X,X,X,X,X,X",
",X,X,X,X,X,X,X,X,X,X,X,X,X:X&X^.#X$XoXo.oX&X#X,X,X,X,X,X,X,X,X,X",
",X,X,X,X,X,X,X,X,X,X,X:X:X:X%X1..X X).] oX+X+XXX,X,X,X,X,X,X,X,X",
",X,X,X,X,X,X,X,X,X,X:X:X&X'.Y ; m M m * P 1.}.XX|.,X,X,X,X,X,X,X",
",X,X,X,X,X,X,X,X,X:X:X%X1.; + o X X X X + * ( }.XXoX,X,X,X,X,X,X",
",X,X,X,X,X,X,X,X,X_.oX^.= o   < 2 3 2 <   X * ' }.3./.,X,X,X,X,X",
",X,X,X,X,X,X,X,X:X^.+.: o , 3 a a a a f f 2 X & ~ 3.|.,X,X,X,X,X",
",X,X,X,X,X,X,X,X*X%X_ #   3 p p p f w.a.l.a.3 8 ( }.|.|.,X,X,X,X",
",X,X,X,X,X,X,X-X*XoXm . 1 a d h p w.k.Y.j.l.t.8 I 8.|. X,X,X,X,X",
",X,X,X,X,X,X,X%X%X_.& 1 i d r.t p a.l.R.P.p.j.d N _.=X@X}.,X,X,X",
",X,X,X,X,X,X$XoX X).n 6 p u r.e s.l.k.U.P.d.k.w.) OXOX|.[.,X,X,X",
",X,X,X,X,X,X X.X}.3.z 6 i r w w p.l.k.B.g.f.h.u.N 7./.8.5.,X,X,X",
",X,X,X,X,X,X,X).o.Y + 5 p d d d j.l.k.D.m.B.B.i.b ~ +.:.,X,X,X,X",
",X,X,X,X,X,X,X+X+X3.@ 5 p 9 i d a.k.h.z.v.f.b.y.b 2.8.8.,X,X,X,X",
",X,X,X,X,X,X,XXX|.3.% 9 0 h u q.g.B.v.R.U.c.Z.z.b :.8.8.,X,X,X,X",
",X,X,X,X,X,X,X|.|.^.% 5 e y t q.d.B.b.P.C.d.P.i.B -.>.>.,X,X,X,X",
",X,X,X,X,X,X,X|.(.o.- 5 e e t q.d.B.b.G.C.c.P.y.n W Q | ,X,X,X,X",
",X,X,X,X,X,X,X,X..~ % 6 q e e q.d.B.b.b.c.b.G.u.N ^ / -.,X,X,X,X",
",X,X,X,X,X,X,X].6.-.; 4 8 9 u i.Z.Z.Z.C.S.P.I.u.R <.&.&.,X,X,X,X",
",X,X,X,X,X,X,X,X9.<.; 4 6 q q e.b.Z.v.m.m.m.I.r.) &.&.*.,X,X,X,X",
",X,X,X,X,X,X,X,X9.>.m 4 w y z.n.h.S.m.!.R.A.Y.j T &.*.,X,X,X,X,X",
",X,X,X,X,X,X,X,X{.(.M 4 e y e.C.B.S.A.~.Y.S.Y.j ' >.>.,X,X,X,X,X",
",X,X,X,X,X,X,X,X:.X.> 4 e y z.S.B.P.F.Q.I.S.E.k U ^ @.,X,X,X,X,X",
",X,X,X,X,X,X,X,X5.5.U 7 r u y.G.Z.I.F.Q.I.P.E.x ~ #.#.,X,X,X,X,X",
",X,X,X,X,X,X,X,X[.].T 7 r y e.D.Z.T.F.G.V.I.L.V / &.%.,X,X,X,X,X",
",X,X,X,X,X,X,X,X].].' 7 y q.z.G.I.E.E.E.W.W.L.V o.=.=.,X,X,X,X,X",
",X,X,X,X,X,X,X,X].0.+.@ h x M.L.K.M.M.K.J.J.H.v o.<.=.,X,X,X,X,X",
",X,X,X,X,X,X,X,X0.0.X.> P Y ! ` ` ` [ [ @...| ..-.=.%.,X,X,X,X,X",
",X,X,X,X,X,X,X,X0.9.>.} { { { K { J { J G F F F E %.%.,X,X,X,X,X",
",X,X,X,X,X,X,X,X9.8.6.J D D S S Z Z Z Z * A C : H $.$.,X,X,X,X,X",
",X,X,X,X,X,X,X,X,X6.,.-. .| ^ ^ ^ ^ W W  .J J J Q @.} ,X,X,X,X,X"
};
