/* XPM */
static char *result[] = {
/* columns rows colors chars-per-pixel */
"32 32 165 2 ",
"   c #8B980F400107",
".  c #8E65116C021C",
"X  c #93C714B80298",
"o  c #9C9C170B0256",
"O  c #94F1183002E0",
"+  c #9D531955034C",
"@  c #A2511C1E02B7",
"#  c #A8A61D7502D6",
"$  c #9FA2215A0648",
"%  c #A53422F404C1",
"&  c #AC6524200332",
"*  c #A71F2901071B",
"=  c #AC372BE2053B",
"-  c #A9EC270008A5",
";  c #B0B226D90403",
":  c #B44A2BA5028D",
">  c #B4D0335A0510",
",  c #B98F32430373",
"<  c #B76C37D30655",
"1  c #BD083C060510",
"2  c #B37A3466095F",
"3  c #B6F33B2D0BAB",
"4  c #BC7D3E7B0B67",
"5  c #CCC5348E0620",
"6  c #D777391005E2",
"7  c #E3B236370626",
"8  c #E9E234930376",
"9  c #E9A5392A042C",
"0  c #BF5040B40435",
"q  c #BD3040A20C12",
"w  c #BFEA45851028",
"e  c #C28343C10525",
"r  c #C5B449870682",
"t  c #C2E2454F0AC8",
"y  c #C60F4A9B0AA9",
"u  c #C93D4E8B0D5F",
"i  c #D4FF40CC0568",
"p  c #D2E34D45061C",
"a  c #D0FF41C10961",
"s  c #CBBB53DD0406",
"d  c #D011592E03A4",
"f  c #C3DB50280A70",
"g  c #CAAC52000E68",
"h  c #C9B9583C0CE0",
"j  c #D07F57800702",
"k  c #D29C5E8002FC",
"l  c #D0955E320A4C",
"z  c #C33247940FA3",
"x  c #C7174F0311B3",
"c  c #CB80550F10D6",
"v  c #CE645A601399",
"b  c #D10E5E8F1626",
"n  c #D1855F681810",
"m  c #E77045CA0517",
"M  c #EB0544BF046D",
"N  c #E54C4A2A04F1",
"B  c #EA834DD8036A",
"V  c #E4C55379062D",
"C  c #EC5F53300526",
"Z  c #EFCD58C20696",
"A  c #E8F0551109A0",
"S  c #E4C059060B92",
"D  c #EDB45C5F09D2",
"F  c #F1D35EB608DA",
"G  c #D59065290CF1",
"H  c #DEBD65E90BE7",
"J  c #DC066DF00BF2",
"K  c #D74572D00666",
"L  c #DD2A72EB0651",
"P  c #D82C743F09FA",
"I  c #DE9A750F0946",
"U  c #DF717811080F",
"Y  c #D42463D413B4",
"T  c #D711698A13FA",
"R  c #D9F06BFD1479",
"E  c #D24C62F01985",
"W  c #DB5772B11474",
"Q  c #E0167E70126B",
"!  c #EE8F60FB041A",
"~  c #E22262BC0A8B",
"^  c #E94562480B12",
"/  c #F4B361A005B9",
"(  c #F2256D7E0519",
")  c #F9A06DB2058E",
"_  c #F45E6B13083C",
"`  c #FA5C6F310968",
"'  c #E3E076650DAB",
"]  c #E6967BBC0A66",
"[  c #EC067B690B50",
"{  c #F2FA738905AA",
"}  c #F91B77F005FE",
"|  c #F4F57D37061A",
" . c #F1A275F30859",
".. c #F2A77D5007DF",
"X. c #F7A374CB1C56",
"o. c #F41A6E7E2A5A",
"O. c #EE078C4B05EC",
"+. c #ECD6839C0904",
"@. c #EAB58E0E0B32",
"#. c #F4F985B806CB",
"$. c #F87887560696",
"%. c #F4168D4706A3",
"&. c #FC5C8F260627",
"*. c #F53A83F709AA",
"=. c #F1A48A09080F",
"-. c #EF739B7D0520",
";. c #EFA99066093D",
":. c #EDD09FE50BF9",
">. c #F702952105E7",
",. c #FE5D9408049E",
"<. c #F7F99C860646",
"1. c #FC019D67057B",
"2. c #F69695150B67",
"3. c #F9BB959F0E21",
"4. c #F6489A910851",
"5. c #FA879C2B096B",
"6. c #E0FA80D9119E",
"7. c #EBFD97CC1572",
"8. c #F82392111514",
"9. c #F6BD9CFE1749",
"0. c #F7C8977C1C0F",
"q. c #F7FC9C1F1B8C",
"w. c #F505A2DB06DF",
"e. c #FC9EA4B50433",
"r. c #F781AB8805C2",
"t. c #FC7FAC02043C",
"y. c #F320A0AB0BAB",
"u. c #FB2FA6200859",
"i. c #F5FAAE560A54",
"p. c #FA55B73F05B8",
"a. c #FBC1BC15053F",
"s. c #FAC4B2890BE0",
"d. c #FC5BBDF10AA9",
"f. c #DE43854A2979",
"g. c #EFE884342AA5",
"h. c #F46F9F392976",
"j. c #FA568A523AF2",
"k. c #EEFB91473170",
"l. c #F7FEA0BF2A5A",
"z. c #FA6BB41B2ECA",
"x. c #FABAAEE53178",
"c. c #F9ECB2A931EE",
"v. c #FD7BC5A00320",
"b. c #FCCDC6F10D38",
"n. c #FB76C7A512CD",
"m. c #FA8CC1811B7A",
"M. c #FAC2CE7E2EBD",
"N. c #FAE6C8AF3673",
"B. c #ECE59B7F4CFC",
"V. c #FAB0944D503C",
"C. c #E198AC925EF1",
"Z. c #F50AB04C5AD3",
"A. c #E369AAB976DF",
"S. c #E778B8957C55",
"D. c #F9CECEFA5A6E",
"F. c #FA9ACE826130",
"G. c #F9A1DCC274BD",
"H. c #F9F4D80C7EB2",
"J. c #FA37CEEE8532",
"K. c #F8BEDD2D9E91",
"L. c #F959E3D1AC31",
"P. c #F8F2E102B686",
"I. c #F9FDE4CCBC1D",
"U. c #FAC9E0FEC1EA",
"Y. c None",
/* pixels */
"Y.Y.Y.Y.Y.Y.Y.Y.Y.Y.Y.Y.Y.Y.Y.Y.Y.Y.Y.Y.Y.Y.Y.Y.Y.Y.Y.Y.Y.Y.Y.Y.",
"Y.Y.Y.Y.Y.Y.Y.Y.Y.Y.Y.Y.Y.Y.Y.Y.Y.Y.Y.Y.Y.Y.Y.Y.Y.Y.Y.Y.Y.Y.Y.Y.",
"Y.Y.Y.Y.Y.Y.Y.Y.Y.Y.Y.Y.Y.Y.Y.Y.Y.Y.Y.Y.Y.Y.Y.Y.Y.Y.Y.Y.Y.Y.Y.Y.",
"Y.Y.Y.Y.Y.Y.Y.Y.Y.Y.Y.Y.Y.Y.Y.Y.Y.Y.Y.Y.Y.Y.Y.Y.Y.Y.Y.Y.Y.Y.Y.Y.",
"Y.Y.Y.Y.Y.Y.Y.Y.c.L.F.Y.Y.Y.Y.Y.e.s.J.G.b.Y.Y.Y.Y.Y.Y.Y.Y.Y.Y.Y.",
"Y.Y.Y.Y.Y.Y.>.e.5.h.9.5.1.Y.Y.e.t.5.3.3.w.p.Y.Y.Y.Y.Y.Y.Y.Y.Y.Y.",
"Y.Y.Y.Y.Y.U e.u.,.&.&.*.[ %.+.t.u.,.,.&.$.+.p.Y.Y.Y.Y.Y.Y.Y.Y.Y.",
"Y.Y.Y.1 e L t.1.,.>.x.J.k.D  .t.e.,.,.,.,.*.w.r.Y.Y.Y.Y.Y.Y.Y.Y.",
"Y.Y.1 1 : p e.>.>.e.3.g.S N C 1.e.,.,.3.,.#.r.-.j Y.Y.Y.Y.Y.Y.Y.",
"Y.Y.Y.e e 5 | 4.e.e. .B N V m Z e.t.e.5.0.Z.N.K s j Y.Y.Y.Y.Y.Y.",
"Y.Y.Y.> 0 e i %.t.>.! B B B C M M | r.d.K.I.B.> s k e Y.Y.Y.Y.Y.",
"Y.Y.Y.Y.> 0 e s %.1.( B B m M C M 9 M Z o.X.a % s s Y.Y.Y.Y.Y.Y.",
"Y.Y.Y.Y.Y.% , e r L =.( C N 7 8 9 8 8 9 C ( , 1 e > Y.Y.Y.Y.Y.Y.",
"Y.Y.Y.Y.Y.  X = e e f P O.%.| F C M B C / S r 0 = Y.Y.Y.Y.Y.Y.Y.",
"Y.Y.Y.Y.; @ .   + < y f h G H A D D F D H l 1 $ % Y.Y.Y.Y.Y.Y.Y.",
"Y.Y.Y.: : , = X . O % < w h h h R R T b w = O % : Y.Y.Y.Y.Y.Y.Y.",
"Y.Y.# : : 0 e 2 O   . O % - 2 3 q 3 2 * o X * 1 1 , Y.Y.Y.Y.Y.Y.",
"Y.Y.; : > 5 r r 4 $ X X O + @ @ % @ o X o 2 t e e 1 : Y.Y.Y.Y.Y.",
"Y.Y.& : , 0 r y x z 3 + + @ @ + + + @ 2 t y y r e 1 , Y.Y.Y.Y.Y.",
"Y.# # : > e r u c c c x z 4 3 r u w x x c u y r y e , & Y.Y.Y.Y.",
"Y.@ @ ; > q y u c c c b b b R s.y.E v c c f u r r e , & Y.Y.Y.Y.",
"Y.@ o # > 5 y u b Y v v n E :.v.N.A.E v c x u y r r 3 - Y.Y.Y.Y.",
"Y.o @ @ & 1 y u b E v v n W a.v.n.G.f.v c g u u L 7.S.C.Y.Y.Y.Y.",
"Y.@ @ o @ : r u c c v v n Q a.@.6.i.6.v c g h O.r.5.q.9.s.a.Y.Y.",
"Y.Y.@ @ @ # , u g c v b b R 4.=.' ' Y v c c I t.u.,.,.&.*.O.a.Y.",
"Y.Y.o + @ @ % 4 g g c v v Y [ ' ] #.' c g u ] t.1.,.,.,.,.| r.r.",
"Y.Y.o o @ @ # % 4 u c c v R ,.] ' =.Y g u y S t.e.,.,.,.,.*.r.r.",
"Y.Y.# o + + @ # - 2 z c c v J %.>.J c c u 4 5 } t.e.1.,.8.h.b.s.",
"Y.: ; ; & % @ + % % - 2 t x c Y ] c u y t % o 6 ) 1.d.D.P.P.c.Y.",
"Y.: : : : : : @ o o o O o + % * * * % @ @ X . @ 5 C ` j.V.j.Y.Y.",
"Y.Y.Y.Y.Y.Y.Y.Y.Y.Y.Y.Y.Y.Y.Y.Y.Y.Y.Y.Y.Y.Y.Y.Y.Y.Y.Y.Y.Y.Y.Y.Y.",
"Y.Y.Y.Y.Y.Y.Y.Y.Y.Y.Y.Y.Y.Y.Y.Y.Y.Y.Y.Y.Y.Y.Y.Y.Y.Y.Y.Y.Y.Y.Y.Y."
};
