/* XPM */
static char *result[] = {
/* columns rows colors chars-per-pixel */
"32 32 27 1 ",
"  c #53C525931308",
". c #582F272C150D",
"X c #572628841483",
"o c #5CFC2B9B169C",
"O c #5E632C1E1873",
"+ c #62F02E6F1A7E",
"@ c #65EB311E1BDE",
"# c #6A6E334C1E55",
"$ c #6B5C37C01F6C",
"% c #688D2F8520BA",
"& c #6DD434F120E7",
"* c #6F1E38FB2297",
"= c #7239368A2344",
"- c #74BA3A002572",
"; c #78623ADD2732",
": c #76DC3C99284E",
"> c #7AFA3CC029B8",
", c #7C74414A2C60",
"< c #7E9E42B4309F",
"1 c #80E63E512D4B",
"2 c #810742482E7B",
"3 c #850B43F831B3",
"4 c #8932469C3525",
"5 c #855848A33390",
"6 c #8BA6482E3679",
"7 c #8D4E49B6386A",
"8 c #90324B813B15",
/* pixels */
"@+3641>>;;==@,;;;;;;;-&@#++;2,,-",
"#+443>>;-==$#=-;;;;=-==,2-$$>2,,",
"=#341;;--==#@&;;;-;;;-,52,-$#;-=",
"*#>>;;;===##@#=;;;;;;>222,--$=,;",
"=@;;-===&&#@%%=;-=;=1122,;;-##2,",
"###===&=###@+.=====;232>;;;-=#;2",
"#;@&&&####%+%.:>111132>;;;--&$$#",
"+@+$=====&+%%.>61411111;;;;;=,-$",
"+oo,1---$#o.. >81111;1;;;;-;,,**",
"@@+$;=$&#@-;& >6111;>;;;;-;-;*$$",
"$@++##@#;3674-%-1111>;;;*-*=$=$$",
"@@+o+#11166676>-%%=%+++@*-==#=##",
"$$oo@1134466443<==1>+++.@#@#@@@@",
"351o@111112133331=11-+++#&==1#@#",
"663@&1;11111>,3>>&=>,o #=;-22;11",
"333=#;;;;;;;;;--:&&&=oo$&=;--1;1",
"233>%=--:---=--==%%%@O$-$$=-;;;,",
">>3>%&=*--=---&*&%@@O+--=$$=---;",
">>>&X&&*%=&&&&$#&%+OXO$$##====--",
";;&OX%&&&&&&&&@@@@XO@X+$$@#=--=-",
"-=+.@@@%%%%%#@@@OOXX  o+@@#$*;;-",
"##oOo@+@%+@@+++oO,,$,$$o@+@@#$-;",
"@XO#*@oOOOOO+o+#,,,,$$*@+++@@$$-",
"@+*,,,*$@$@@oo+=,,$**,*$+oO+@@@*",
"@@;,,,,*,,**$++#$*-;;,,;$oo++++$",
"@#=;-*$*$=**$o+$-222,,,-*$ooo+o+",
"@+#=#=##&###$oX$2--=*-==$#+oooo+",
"#o##=#$=##$@$$@@===*==&=##@+#$$-",
"=++=#&&&###=**$oo@#=$==###oo@##=",
"%. +=&=&&#==$@@o#,=#+@+@#$ooo+o@",
"+.====&#@@+o++@$2552-o#--1;;###+",
"+=111;;;;@+.#$,25222;@@$;--=####"
};
