/* XPM */
static char *result[] = {
/* columns rows colors chars-per-pixel */
"32 34 183 2 ",
"   c #3A372FE40E06",
".  c #2A633AFC107D",
"X  c #2DA2356D0FA5",
"o  c #328D32B610AD",
"O  c #3D2E33CB1460",
"+  c #33B03D321162",
"@  c #39523A4E1209",
"#  c #48B72EB90F0D",
"$  c #47412FDD0F00",
"%  c #5FD031CE0E2A",
"&  c #4631367714D7",
"*  c #5ED831E10FD3",
"=  c #5042341F1C73",
"-  c #623831F40E31",
";  c #768735AF0E14",
":  c #6EA032CA1592",
">  c #6A0A34531D01",
",  c #724F38F91D1E",
"<  c #798235C51487",
"1  c #473C2C8F23A5",
"2  c #4A90350C24DD",
"3  c #4A1335A82A22",
"4  c #50F53433247B",
"5  c #5AB3365A23D0",
"6  c #543C3C5A23ED",
"7  c #5AD93EBD2810",
"8  c #4A223A1A34AF",
"9  c #47FB390836AA",
"0  c #62F13C0B22A0",
"q  c #684B3C8124DF",
"w  c #721F3A402221",
"e  c #2D284386107E",
"r  c #2EC5496813A9",
"t  c #349743F7135C",
"y  c #303049501271",
"u  c #3C8C48D21858",
"i  c #4D67413613E6",
"p  c #413943831970",
"a  c #48C347251A3F",
"s  c #53F54A721E89",
"d  c #783148DD1F59",
"f  c #559341872F4E",
"g  c #59E642B02A7A",
"h  c #5E9E49222DAE",
"j  c #572D4DF0223F",
"k  c #52EF43EE3270",
"l  c #586543B839FD",
"z  c #59D546BB36C8",
"x  c #5DCD52843C80",
"c  c #6D3143AE2A86",
"v  c #640F4C592E1E",
"b  c #61D347702773",
"n  c #7CA845E92627",
"m  c #720147512D27",
"M  c #7BD64AF02BD3",
"N  c #74DA4703298C",
"B  c #6BB150ED2F10",
"V  c #6394527C28FC",
"C  c #788253432D05",
"Z  c #60AD47533092",
"A  c #6DA8456C3332",
"S  c #6562499637BF",
"D  c #73BB49EE3250",
"F  c #6D4C552732C0",
"G  c #600457123F71",
"H  c #6A7958A93998",
"J  c #724B54223394",
"K  c #71D45A29352E",
"L  c #76295C793A1B",
"P  c #7C5264233A3F",
"I  c #4E6542E3419C",
"U  c #59774BDD4A5F",
"Y  c #501443B041E9",
"T  c #5A4955FF590B",
"R  c #596554165715",
"E  c #61D84B234304",
"W  c #632954DA429B",
"Q  c #6A8E53FD45A6",
"!  c #65C05A8B423E",
"~  c #6B225EF84652",
"^  c #7B6B5CC84C8B",
"/  c #620A561853A5",
"(  c #6DDD65864A97",
")  c #707568634C60",
"_  c #7F636B9D5433",
"`  c #638762206650",
"'  c #681566726A7D",
"]  c #782E6AB267EE",
"[  c #6E316E297321",
"{  c #6F2870CE7620",
"}  c #7AF0764D7805",
"|  c #80D83A8E0DFD",
" . c #8CE53DF90E63",
".. c #914F3EDB0EDE",
"X. c #849D3A6A1397",
"o. c #8ABF3C2E10F6",
"O. c #8F4C40150ED5",
"+. c #949F41440E7A",
"@. c #9C2F4540113E",
"#. c #9ED54BBD1B85",
"$. c #9A2658B61953",
"%. c #ABD34AD50E55",
"&. c #B5584E540E58",
"*. c #B7A4501C0E91",
"=. c #BE3C53570E97",
"-. c #A72248C71062",
";. c #AAC64B25112E",
":. c #B0584BE81098",
">. c #A3545EC41916",
",. c #B6344FE110A1",
"<. c #BEAC536C109B",
"1. c #AD2862E614E5",
"2. c #A60761961AB0",
"3. c #B6B9698F1728",
"4. c #81AD4D5F2BD4",
"5. c #890B4E842AFF",
"6. c #8E3B51972A61",
"7. c #974F57852D6D",
"8. c #81834CE42FF4",
"9. c #866C531A3453",
"0. c #8B5F54CF3258",
"q. c #8C9A5BF13AF1",
"w. c #84ED57003A57",
"e. c #94F859283394",
"r. c #9B2E5BC83279",
"t. c #926D5CD03961",
"y. c #982E5F0537EA",
"u. c #A2225FC432DC",
"i. c #8AC263353C26",
"p. c #961D645A3E7C",
"a. c #9BF765A83D68",
"s. c #B53C615C2A7B",
"d. c #A57669893E7D",
"f. c #AC1F6BB43C52",
"g. c #B30468283898",
"h. c #B94B740B3E34",
"j. c #C3BA54FD0E3E",
"k. c #C24371A217F5",
"l. c #86595EAF42E5",
"z. c #88A76F7840FE",
"x. c #8AEA692B4C03",
"c. c #992E675F419E",
"v. c #8C4270EB4CA6",
"b. c #9B83714D45F3",
"n. c #82796EA35944",
"m. c #912A70AC5847",
"M. c #951E7C4152D6",
"N. c #A4D16C8F4335",
"B. c #AA366D5F41B0",
"V. c #B1056FD44180",
"C. c #AD6672DE4327",
"Z. c #ACD677C34DA5",
"A. c #B49C75B7447F",
"S. c #BD487C004754",
"D. c #B4B179E94AA5",
"F. c #BA907E1F4CF9",
"G. c #BDBB76B840D1",
"H. c #AB3D7AC852F3",
"J. c #8DB27C346590",
"K. c #C8977EC94450",
"L. c #BC7580334C5D",
"P. c #A93688685F41",
"I. c #A0FB8183576E",
"U. c #BBDF833251C5",
"Y. c #B557916462D3",
"T. c #C44381C34C95",
"R. c #CD2788BE4F8F",
"E. c #C55A879C543D",
"W. c #C4FA8A405412",
"Q. c #CA0A8A5954AB",
"!. c #CA068DD7597B",
"~. c #CEC991845999",
"^. c #D32892A75913",
"/. c #D85698DF5FD8",
"(. c #DC2C9B5E5E6F",
"). c #D73394825763",
"_. c #E1339FF25FA1",
"`. c #C0DB923D67F3",
"'. c #DF949F0161B0",
"]. c #E0D49EEB627E",
"[. c #E4E4A35F6396",
"{. c #89B08B83910B",
"}. c None",
/* pixels */
"}.}.}.}.}.}.}.}.}.}.}.}.}.}.}.}.}.}.}.}.}.}.}.}.}.}.}.}.}.}.}.}.",
"}.}.}.}.}.}.}.}.}.}.}.}.}.}.}.}.}.}.}.}.}.}.}.}.}.}.}.}.}.}.}.}.",
"}.}.}.}.}.}.}.}.}.}.}.}.}.}.}.}.}.}.}.}.}.}.}.}.}.}.}.}.}.}.}.}.",
"}.}.}.}.}.}.}.}.}.}.}.}.}.}.}.}.}.}.}.}.}.}.}.}.}.}.}.}.}.}.}.}.",
"}.}.}.}.}.}.}.}.}.}.}.}.}.}.}.}.}.}.}.}.}.}.}.}.}.}.}.}.}.}.}.}.",
"}.}.}.}.}.}.}.}.}.}.}.}.}.}.}.}.}.}.}.}.}.}.p.B.M t.}.}.}.}.}.}.",
"}.}.}.}.}.}.}.}.}.}.}.}.}.}.}.}.}.}.}.}.1 w.!.Q.d.F.0.}.}.}.}.}.",
"}.}.}.}.}.}.}.}.}.}.}.}.}.}.}.}.}.}.q.D / H.D.c.9.N.t.c }.}.}.}.",
"}.}.}.}.}.}.}.}.}.}.}.}.}.N.E.E.d.E.].H.} m.F.4.A A 5 }.}.}.}.}.",
"}.}.}.}.}.}.}.}.}.}.}.}.c.r.7.0.m J N.Z.] } Q S I 3 }.}.}.6 }.}.",
"}.}.}.}.}.}.}.}.}.}.}.w , o.=.:.* . + = w C l 8 l }.}.}.F F }.}.",
"}.}.}.}.}.}.X.> 4.w < :.o.:.j.j.%.$ t @ >.3.b G W k 4 g F F }.}.",
"}.}.}.}.N.D.#., w.4.;.;...j.j.j.j.; . u d M g ( ) x h P J F }.}.",
"}.}.}.N.'.'.B.9.`.r.-.X.-.j.j.j.j. .o M.x.P.v.( ) x h P z.F }.}.",
"}.}.}.~.[.[.d.M E.r.-.@...j.j.j.j. .O M.J Y.H ! ! W h K B h }.}.",
"}.}.t.'.[.~.#.: a.e.-.&.; &.j.j.j. .  L v.i.h ( k k 4 6 f Q n.}.",
"}.}.B.[.[.W.#.< e.N.X.,. .+.j.j.=.| X & 2.$.g ) G 2 }.}.}.J.}.}.",
"}.}.D.[.[.^.r.g.R.u.;.+.o.; *.j.&.- . i k.1.g ) G }.}.}.}._ }.}.",
"}.}.B.[.[.).T.).'.s.j.j.;...%.=.+.  y & k.1.g ( ! 2 2 }.}.g }.}.",
"}.}.M ~.[.[.T.C.N.g.j.j.j.j.*.O.$ . y i k.1.0 ( ( x g v v F }.}.",
"}.}.}.9.D.Q.E.q.5.7.-.#.+.| -   . y r i 3.$.m Z ~ G v K J K }.}.",
"}.}.}.}.}.}.}.> 7.G.h + + + e e r y r & 2.b l.D.N c Z P K F }.}.",
"}.}.}.}.}.}.}.}.M C t y y p j s u a s & = U l.^.B.V.4.B F v }.}.",
"}.}.}.}.}.}.}.}.}.O y y V U.(.^.C.W.~.c.l ` W F./.Q.A.0 4 7 }.}.",
"}.}.}.}.}.}.}.}.}.}.+ j !.[.[.[.(.].[.H.I [ [ E q.A.B.q }.}.}.}.",
"}.}.}.}.}.}.}.}.}.}.& b.[.[.[.[.[.[.[.F.U ' {.[ T l 4 }.}.}.}.}.",
"}.}.}.}.}.}.}.}.}.}.}.p.'.[.[.(.T.(.[.'.^ T T ` R 9 }.}.}.}.}.}.",
"}.}.}.}.}.}.}.}.}.}.}.}.a.F.S.a.4.h.S.d.0.E I 9 3 }.}.}.}.}.}.}.",
"}.}.}.}.}.}.}.}.}.}.}.}.}.}.}.}.}.n 5.7.6.q }.}.}.}.}.}.}.}.}.}.",
"}.}.}.}.}.}.}.}.}.}.}.}.}.}.}.}.}.}.}.}.}.}.}.}.}.}.}.}.}.}.}.}.",
"}.}.}.}.}.}.}.}.}.}.}.}.}.}.}.}.}.}.}.}.}.}.}.}.}.}.}.}.}.}.}.}.",
"}.}.}.}.}.}.}.}.}.}.}.}.}.}.}.}.}.}.}.}.}.}.}.}.}.}.}.}.}.}.}.}.",
"}.}.}.}.}.}.}.}.}.}.}.}.}.}.}.}.}.}.}.}.}.}.}.}.}.}.}.}.}.}.}.}.",
"}.}.}.}.}.}.}.}.}.}.}.}.}.}.}.}.}.}.}.}.}.}.}.}.}.}.}.}.}.}.}.}."
};
