/* XPM */
static char *result[] = {
/* columns rows colors chars-per-pixel */
"32 34 182 2 ",
"   c #398D30020E06",
".  c #2A633B1C1082",
"X  c #2D9135870FAC",
"o  c #328C32B110A9",
"O  c #3D2C33C6145E",
"+  c #33923D4E1170",
"@  c #39533AAC120D",
"#  c #47EF2EB30F0F",
"$  c #48342FE50EFA",
"%  c #5E9031950E2A",
"&  c #482F35E31654",
"*  c #614A31CA0E37",
"=  c #79C1371D0DCD",
"-  c #60C832690FC3",
";  c #6E8632B3157D",
":  c #69D034121CC2",
">  c #72BC38C31C76",
",  c #79EC361314AF",
"<  c #47512CC523E9",
"1  c #4B53346C23DA",
"2  c #484B365B2B38",
"3  c #506833E5248F",
"4  c #598535B823C9",
"5  c #52AC3AF8236C",
"6  c #5B213EEE284F",
"7  c #4A1939E4343F",
"8  c #4807391636BD",
"9  c #4FD43F97301F",
"0  c #62C53BFF22C3",
"q  c #68193C5D24D2",
"w  c #726F3A9E225C",
"e  c #2D2C43A11083",
"r  c #2ECC497113AE",
"t  c #345044061345",
"y  c #303C493E1274",
"u  c #3DE0490C18BD",
"i  c #4D64413713E3",
"p  c #424043C819F2",
"a  c #46FD40A111ED",
"s  c #504145C01F8A",
"d  c #56774B3B1F7B",
"f  c #474550921F02",
"g  c #5AA143622AA1",
"h  c #5E3E49B02EBE",
"j  c #595A4EC3233C",
"k  c #56044426317D",
"l  c #5890437C394B",
"z  c #597F46D2372A",
"x  c #5E2D52F43CD4",
"c  c #6DA943DA2A89",
"v  c #63FB4C442E0E",
"b  c #6D7C4C852CA1",
"n  c #618A475B2757",
"m  c #77C548D21FC9",
"M  c #7C24469F2BDF",
"N  c #70C647E82F1A",
"B  c #7CB84B7E2CA9",
"V  c #752E4527265B",
"C  c #6CCC525E2DE0",
"Z  c #6613539E2A23",
"A  c #786C51B52D08",
"S  c #60F84741306D",
"D  c #6CC64529334C",
"F  c #651B498037BC",
"G  c #74814A9B32C7",
"H  c #6D2C550732AF",
"J  c #6F315932339D",
"K  c #60F856E93FA3",
"L  c #70EE543134F8",
"P  c #721A59BA352C",
"I  c #75F35C4D39F7",
"U  c #7C5464263A42",
"Y  c #4E4E42DF419E",
"T  c #59F64C814B0E",
"R  c #5028439441B5",
"E  c #5A2455E858FC",
"W  c #58CC532955FE",
"Q  c #61104B5643FD",
"!  c #63A05409445D",
"~  c #65ED5A8941FB",
"^  c #6BC65B7F45D6",
"/  c #6904512E480F",
"(  c #7BEC5CC84C22",
")  c #628356BE5460",
"_  c #6DDD65844A95",
"`  c #7070685B4C5B",
"'  c #7E616A885335",
"]  c #631761A765D5",
"[  c #675065A169A0",
"{  c #778C6998669C",
"}  c #6ED16EE373EB",
"|  c #6F9F716176B7",
" . c #7AC5762977F5",
".. c #8E123E650E83",
"X. c #80003AA70EBE",
"o. c #84CB3A7F139B",
"O. c #8B0E3C4C10EA",
"+. c #942140C90EB5",
"@. c #9BF8453A1141",
"#. c #9E954BA81B89",
"$. c #9A7858E61951",
"%. c #AC9F4B2A0E53",
"&. c #B59C4E8A0E4E",
"*. c #B792506E0EFF",
"=. c #BE7A536A0E8D",
"-. c #A71848C41060",
";. c #AB7A4B6F1122",
":. c #B3764DF4109F",
">. c #A3205EAD191D",
",. c #BE9B536710A5",
"<. c #AD3A62EE14E9",
"1. c #A77262481A5B",
"2. c #B6736962172B",
"3. c #8016474E277F",
"4. c #82DA4CD12B55",
"5. c #888D4E322AD1",
"6. c #86DA51C02A50",
"7. c #94D655D32C26",
"8. c #9B0A59372E4A",
"9. c #81404C9E2FC0",
"0. c #85B7522132AB",
"q. c #8B18545B31DF",
"w. c #851055613848",
"e. c #8C4C5B613B60",
"r. c #87C95A9D3AFC",
"t. c #95995A953493",
"y. c #9B945C3B32D4",
"u. c #92CB5D23399E",
"i. c #A1FC5F41323B",
"p. c #897D61993AA3",
"a. c #961A64593E7A",
"s. c #9B4F668A3E9E",
"d. c #9C2F61083758",
"f. c #B5C661C02AC4",
"g. c #A4F9692A3E07",
"h. c #AC096BC33C6B",
"j. c #B2A167FB3896",
"k. c #B89173623DC0",
"l. c #C3B854FD0E3E",
"z. c #C24371A117F4",
"x. c #85E25E7242ED",
"c. c #88AE6F8940FF",
"v. c #8ABC68FB4BDF",
"b. c #9A2A66144060",
"n. c #9C2F6F384354",
"m. c #9654616D40CE",
"M. c #8C96713D4CDB",
"N. c #96B7704D463F",
"B. c #82DF6F1C59AB",
"V. c #902B705E58B4",
"C. c #95DA7CD25357",
"Z. c #A5496CFB437C",
"A. c #AA3D6D5341A3",
"S. c #AF3C781D4131",
"D. c #ABF174EF4A69",
"F. c #B29D73664403",
"G. c #BC8E7B4346C6",
"H. c #B4E77A0F4ABB",
"J. c #BB2D7ECC4D3B",
"K. c #BDB976E0410A",
"L. c #AB947B11531E",
"P. c #8D6A7BE46537",
"I. c #C8A17E9F4409",
"U. c #A53C85155B65",
"Y. c #BDC2853D5349",
"T. c #B54E915662BE",
"R. c #C81A83014B12",
"E. c #C2E687DD53B1",
"W. c #C5FA8A70550B",
"Q. c #CAD289DE5300",
"!. c #C79F8B805806",
"~. c #CE5A914259FB",
"^. c #D413939D5933",
"/. c #DC329B5E5E6C",
"(. c #D945950E5754",
"). c #E15FA0215FCB",
"_. c #C13192736801",
"`. c #DDF69D266101",
"'. c #E1359F74631D",
"]. c #E4E0A35B6394",
"[. c #89838B4390CA",
"{. c None",
/* pixels */
"{.{.{.{.{.{.{.{.{.{.{.{.{.{.{.{.{.{.{.{.{.{.{.{.{.{.{.{.{.{.{.{.",
"{.{.{.{.{.{.{.{.{.{.{.{.{.{.{.{.{.{.{.{.{.{.{.{.{.{.{.{.{.{.{.{.",
"{.{.{.{.{.{.{.{.{.{.{.{.{.{.{.{.{.{.{.{.{.{.{.{.{.{.{.{.{.{.{.{.",
"{.{.{.{.{.{.{.{.{.{.{.{.{.4.Z.H.Z.u.{.{.{.{.{.{.{.{.{.{.{.{.{.{.",
"{.{.{.{.{.{.{.{.{.{.{.{.0.~.].].].'.~.Z.{.{.{.{.{.{.{.{.{.{.{.{.",
"{.{.{.{.{.{.{.{.{.{.{.{.H.].].].].].].].Z.{.{.{.{.{.{.{.{.{.{.{.",
"{.{.{.{.{.{.{.{.{.{.{.{.Q.'.(.^.W.~.'./.H.{.{.{.{.{.{.{.{.{.{.{.",
"{.{.{.{.{.{.{.{.{.{.{.{.E.R.I.y.#.#.g.F.#.o.{.{.{.{.{.{.{.{.{.{.",
"{.{.{.{.{.{.{.{.{.{.{.: e.A.(.h., ; M w.; : {.{.{.{.{.{.{.{.{.{.",
"{.{.{.{.{.{.{.{.{.{.B t.5.A.`.Q.t.s.E._.e.M {.{.{.{.{.{.{.{.{.{.",
"{.{.{.{.{.{.{.{.{.O A K.y.j.f.i.g.t.y.y.3.w {.{.{.{.{.{.{.{.{.{.",
"{.{.{.{.{.{.{.& @ y t j #.,.l.;., -.;.;.;., {.{.{.{.{.{.{.{.{.{.",
"{.{.{.{.{.{.a.n.j y y t @.l.l.+.:.*.-.o.;.:.> {.{.{.{.{.{.{.{.{.",
"{.{.{.{.{.s./.].~.Z y + +.l.;.O...= ..;...o.> m.{.{.{.{.{.{.{.{.",
"{.{.{.{.{.J.].].].Y.p + = l.+.= ..&.l.l.l.:.O.t.Z.{.{.{.{.{.{.{.",
"{.{.{.{.{.G.].].]./.j e - *.%.*.l.l.l.l.l.l.,.7.!.{.{.{.{.{.{.{.",
"{.{.{.{.{.y./.].].^.d e   ..l.l.l.l.l.l.l.l.%.q.Q.{.{.{.{.{.{.{.",
"{.{.{.{.{.5.J.].).k.u r . # ..*.l.l.l.l.=.%.- b A.{.{.{.{.{.{.{.",
"{.{.{.{.M k./.].).W.f r r .   * X.O.....= # X b E.{.{.{.{.{.{.{.",
"{.{.{.{.5.G.].].].^.s y r r e . o o O   X e t n.'.e.{.{.{.{.{.{.",
"{.{.{.{.7.g./.Y.L.m.& @ a i i i & J U.C.& + & D.L.G {.{.{.{.{.{.",
"{.{.{.{.q.q.( T Y l 4 >.2.z.z.z.1.N.L v.m 1.V {  .) < {.{.{.{.{.",
"{.{.{.{.q F E [ } ] T 0 $.2.<.<.$.p.T.U.A 2.4. .V.L.w.{.{.{.{.{.",
"{.{.{.{.{.Y E [.} Q v.r.N g g g g g P M.g 6 z / J.J.!.m.{.{.{.{.",
"{.{.{.{.{.2 ] | T J.^.H.S _ ` ` ` _ ~ _ _ ~ 7 F B b.Q.A.{.{.{.{.",
"{.{.{.{.{.{.W E r./.A.V ^ _ ~ K x z x _ ` ~ l Y D w.Z.M {.{.{.{.",
"{.{.{.{.{.{.8 R F.Q.F.c K x 2 {.1 k ! ! x k {.2 D Z.J.u.{.{.{.{.",
"{.{.{.{.{.{.{.3 h.F.4.n v g < {.{.1 h h h 5 {.{.4 u.q.{.{.{.{.{.",
"{.{.{.{.{.{.{.{.q 0 b U I v {.{.{.5 J U I g {.{.{.c {.{.{.{.{.{.",
"{.{.{.{.{.{.{.{.{.1 P P L v {.{.{.k C c.H H L {.{.{.{.{.{.{.{.{.",
"{.{.{.{.{.{.{.{.{.6 v P P H g ' P.^ h H H H H 5 {.{.{.{.{.{.{.{.",
"{.{.{.{.{.{.{.{.{.{.{.{.{.{.{.{.{.B.{.{.{.{.{.{.{.{.{.{.{.{.{.{.",
"{.{.{.{.{.{.{.{.{.{.{.{.{.{.{.{.{.{.{.{.{.{.{.{.{.{.{.{.{.{.{.{.",
"{.{.{.{.{.{.{.{.{.{.{.{.{.{.{.{.{.{.{.{.{.{.{.{.{.{.{.{.{.{.{.{."
};
