/* XPM */
static char *result[] = {
/* columns rows colors chars-per-pixel */
"32 32 178 2 ",
"   c #071018FB2739",
".  c #09AB1A112761",
"X  c #074A197027EF",
"o  c #09241C122B12",
"O  c #19641EF22680",
"+  c #12CC1EC928A9",
"@  c #154B1D60262C",
"#  c #0A3F1F3A300B",
"$  c #180722022A99",
"%  c #14F520CD2AAE",
"&  c #0B9222D234C1",
"*  c #0CFC262D3915",
"=  c #1EE0296D3370",
"-  c #201421E02617",
";  c #281528AA2BD7",
":  c #353F2BEC2A05",
">  c #227A2E5E3959",
",  c #2466300F3ACA",
"<  c #3D96335B309F",
"1  c #78663BE11804",
"2  c #4E2134492B12",
"3  c #5AE63AFD2DB1",
"4  c #4B5D3BF43570",
"5  c #5D803E373054",
"6  c #56663BCB30F3",
"7  c #581642923757",
"8  c #64874C042E38",
"9  c #6D6E5237392D",
"0  c #79975B92390D",
"q  c #781355E93BFD",
"w  c #655D45023538",
"e  c #0EF4281F4037",
"r  c #10EF29FF48F1",
"t  c #13E02C7D5E73",
"y  c #12A42B86522D",
"u  c #16462A496145",
"i  c #19F02B6C6592",
"p  c #201A36906695",
"a  c #3331352F6422",
"s  c #21AF3C997FA7",
"d  c #476F3CFC469E",
"f  c #61564D504100",
"g  c #6E1E55304551",
"h  c #729150F540FF",
"j  c #6C245B4B52CE",
"k  c #7EB962DA5088",
"l  c #5C2D5AD87CD3",
"z  c #85093C5B14EA",
"x  c #8E1846821CEC",
"c  c #8AA043F91A26",
"v  c #94CE4B0C22B3",
"b  c #9A0C4FA026C1",
"n  c #A79C53DC2690",
"m  c #A6C858FA2A81",
"M  c #A84D5D083295",
"N  c #BD306BDA3A3E",
"B  c #B8FC666D34C1",
"V  c #C13E6C703BCF",
"C  c #82C15DA94C72",
"Z  c #8A435EF4468A",
"A  c #8924604F48E9",
"S  c #9F346AD74998",
"D  c #8BC96B905523",
"F  c #AE77746B4C5F",
"G  c #AC16761648DB",
"H  c #B08A7A3C4E12",
"J  c #B3527C6A5330",
"K  c #BA4C7D2F5863",
"L  c #A46377DF586C",
"P  c #A74E7ABD646C",
"I  c #B03E7D856222",
"U  c #AE577A707046",
"Y  c #C439713D41E1",
"T  c #B5A581FA59CE",
"R  c #B4B680225773",
"E  c #AE1882366D10",
"W  c #B60A86416BD6",
"Q  c #BCFF874B65F3",
"!  c #BF538C9F714A",
"~  c #BCB8919B7940",
"^  c #C0D6841C5C77",
"/  c #C6A48C496328",
"(  c #C25A8C946E02",
")  c #CD348FA4683E",
"_  c #D2918FC563A0",
"`  c #D9F098C66B60",
"'  c #CD5998A87A0A",
"]  c #D6419E767C23",
"[  c #DF139E8D73AC",
"{  c #DF1CA2C1752F",
"}  c #E0CBA4D077DE",
"|  c #E117A4457A5B",
" . c #E2D1A8C67F74",
".. c #1F043DC58F76",
"X. c #1CDC3D189274",
"o. c #21693C178B63",
"O. c #1FFA3F6F84E0",
"+. c #20633E5095A0",
"@. c #1F8B4051891D",
"#. c #209742478DB6",
"$. c #2ECB52269009",
"%. c #2FCE556D8F72",
"&. c #238045BD93E8",
"*. c #235E417A9ACA",
"=. c #28C949A99DEF",
"-. c #3230552B9BAD",
";. c #232A448AA45E",
":. c #21D6471DAA5B",
">. c #28E74B24A794",
",. c #339D53E8A660",
"<. c #376357F9A8F6",
"1. c #2B7D4E2CB628",
"2. c #26B54B3CBC5E",
"3. c #2AF24D89BBCE",
"4. c #38B44D82B6F9",
"5. c #2C9A53B8BD86",
"6. c #2964501CB81B",
"7. c #3163544AB69F",
"8. c #32BA53DCBCED",
"9. c #3C5C5A71BD64",
"0. c #374E582FBDE7",
"q. c #3FA16106B570",
"w. c #422E53B89FA9",
"e. c #54CB5DF99339",
"r. c #74FB64CA85FF",
"t. c #45235EDFB0B4",
"y. c #40066210AB3B",
"u. c #54CA7224AD9E",
"i. c #4B74675DBD34",
"p. c #2F4C5298C098",
"a. c #31D1547CC26C",
"s. c #34E45AF6C416",
"d. c #3B0B5C7FC5D2",
"f. c #36145BAECA09",
"g. c #3F8B5E19C976",
"h. c #3B1A602EC80E",
"j. c #350C61ACC8BF",
"k. c #3DD86C25CBAA",
"l. c #3D8264F3C7F5",
"z. c #403E5BA3C4CF",
"x. c #433E640ECC24",
"c. c #4A1E661FCF87",
"v. c #449969A3CD27",
"b. c #44AB66DDC5C4",
"n. c #4AEF699DD06F",
"m. c #509C6AA6D2EA",
"M. c #4C1C723AD284",
"N. c #945E88299EDF",
"B. c #ABF89730A000",
"V. c #C70B9B6884D4",
"C. c #C92C9D368537",
"Z. c #D2E7A57A8985",
"A. c #D7E9AC3B95C7",
"S. c #DD4FB29F9D89",
"D. c #E4A5ACCC851E",
"F. c #E589AF478B5A",
"G. c #E6BEB0B48B44",
"H. c #EE69B43D958F",
"J. c #E717B42898D6",
"K. c #ECEEBC859F32",
"L. c #E786B59D98C4",
"P. c #F171B9C49D90",
"I. c #EE45BE61A4FA",
"U. c #E7A1BB34A114",
"Y. c #EE20C0C7A68F",
"T. c #EED3C1A6ADF4",
"R. c #F208C114A70D",
"E. c #F3BFC4A9AD70",
"W. c #EE34CA83B498",
"Q. c #E954C702B62D",
"!. c #F41ECA7CB4CE",
"~. c #FA12CE6CBC1C",
"^. c #F746C9ECB4A9",
"/. c #FA08D2FEBFA6",
"(. c #FB2ED489C3B5",
"). c #FAF2D914C81D",
"_. c #FD44E3E0D333",
"`. c None",
/* pixels */
"`.`.`.`.`.`.`.`.`.`.`.`.`.`._.).).(.W.`.`.`.`.`.`.`.`.`.`.`.`.`.",
"`.`.`.`.`.`.`.`.`.`.`.`.`.(.Q.!.E.I.Z.`.`.`.`.`.`.`.`.`.`.`.`.`.",
"`.`.`.`.`.`.`.`.`.`.`.).(.I.A.T.E.J.! E.^.I.`.`.`.`.`.`.`.`.`.`.",
"`.`.`.`.`.`.`.`.`.`.).(.(.I.~ U.J.' W I.E.P.P.`.`.`.`.`.`.`.`.`.",
"`.`.`.`.`.`.`.`.`.(.(.^.V.C 5 9 q w 3 Z ' J.J.B.u.`.`.`.`.`.`.`.",
"`.`.`.`.`.`.`.`.).~.T.P 3 : O @ O @ O : 5 P N.i.i.y.%.`.`.`.`.`.",
"`.`.`.`.`.`.`.Q.S.T.U 2 O             X - d t.m.m.c.<.`.`.`.`.`.",
"`.`.`.`.`.`.`.W.V.L 6 O             o o # p z.z.c.m.t.%.`.`.`.`.",
"`.`.`.`.`.`.(./.E.C $ . X       . & * * * O.s.l.x.M.b.-.`.`.`.`.",
"`.`.`.`.`.`.(.^.A.7 . . X X   X # * * * r o.k.v.z.M.v.-.`.`.`.`.",
"`.`.`.`.`.).!.E.V.< . . X X X o & * * * y +.v.x.d.v.v.,.`.`.`.`.",
"`.`.`.`.`.!.R.P.' 4 .   X X X & * * * & t X.j.h.a.h.x.,.`.`.`.`.",
"`.`.`.`.`.Y.J.A.W < . X X X X & * * * * t &.5.f.8.5.h.,.`.`.`.`.",
"`.`.`.`.`.Q.A.! A $ X X X X o * * * * * t =.d.d.x.c.x.,.`.`.`.`.",
"`.`.`.`.`.`.R.P.W ; . X     X * * * * * t *.7.0.0.t.d.=.`.`.`.`.",
"`.`.`.`.`.`.P.H.W ; X X     o * * * * * t :.k.s.s.l.9.=.`.`.`.`.",
"`.`.`.`.`.`.H.H.! :     X X & * * * * * t :.j.s.2.s.0.&.`.`.`.`.",
"`.`.`.`.`.`.L.] I : X   X X # * * * * * u :.s.a.5.s.0.#.`.`.`.`.",
"`.`.`.`.`.`.Z.Q S : X     X & * * * * * t :.3.5.2.s.5.#.`.`.`.`.",
"`.`.`.`.`.`.D.[ T 4 X     X & * * * * * t 1.p.8.p.9.1.#.`.`.`.`.",
"`.`.`.`.`.`.F.[ / 7 o X X X & * * * * * t >.1.5.7.e.-.#.`.`.`.`.",
"`.`.`.`.`.`.G.| ) 7 o X X X * * * * * * u 7.l.3.7.4.>.#.`.`.`.`.",
"`.`.`.`.`.`.I.F.] 9 . . X o * * * * * * u 8.x.3.s.d.;.`.`.`.`.`.",
"`.`.`.`.`.`.`.( J 7 . X X o * * * * * * u 8.l.2.s.d.;.`.`.`.`.`.",
"`.`.`.`.`.`.`.] ' 9 + X X o & * * * * * u 3.f.p.f.0.+.`.`.`.`.`.",
"`.`.`.`.`.`.`.G.D.k % X X o * * * * * & i 3.p.2.f.8.+.`.`.`.`.`.",
"`.`.`.`.`.`.`.G.D.D $ . X & * * * * & & i 4.8.2.5.3.+.`.`.`.`.`.",
"`.`.`.`.`.`.`.D. .D ; $ $ = > > , , , > a 4.p.a.p.3...`.`.`.`.`.",
"`.`.`.`.`.`.`.D.{ L h A S F F F K K K K Y E r.<.z.z.o.`.`.`.`.`.",
"`.`.`.`.`.`.`.D.{ _ Y Y V V V B N B B n n n b g j l `.`.`.`.`.`.",
"`.`.`.`.`.`.`.D. .` M b v v v x x x c z z z 1 8 0 0 `.`.`.`.`.`.",
"`.`.`.`.`.`.`.G.{ { / T J K R J J H H H G G G 0 0 `.`.`.`.`.`.`."
};
