/* XPM */
static char *result[] = {
/* columns rows colors chars-per-pixel */
"30 30 182 2 ",
"   c #37172C3C0D7A",
".  c #39682DD40EF9",
"X  c #2BBE36BC0D96",
"o  c #34CE302D0DA6",
"O  c #3BF62C1310B9",
"+  c #2F6435751005",
"@  c #2D613D6810C0",
"#  c #3A173B5A1272",
"$  c #3B4432B81728",
"%  c #3AD52A9D2749",
"&  c #3EDA32072F92",
"*  c #466A2EE20E02",
"=  c #52E426310F57",
"-  c #3FC4258B1BFB",
";  c #46282BF11C5E",
":  c #4AF3322A1EF8",
">  c #580E3A401E3E",
",  c #650431260E12",
"<  c #7FF13A130ECD",
"1  c #71BD35330ECA",
"2  c #6DEE2B0C1137",
"3  c #64E93C2E1A42",
"4  c #722937870F9E",
"5  c #728B3B0A1E5C",
"6  c #4FB52F3724DD",
"7  c #437A2C5622D9",
"8  c #4BB733972340",
"9  c #4F293C4F2A40",
"0  c #4DCF3282298B",
"q  c #501737452316",
"w  c #55393ADA257A",
"e  c #5ED3396A2680",
"r  c #56FE37702A4E",
"t  c #528B3DB927CE",
"y  c #49A1394F335F",
"u  c #62A43DF923BF",
"i  c #60073CE12A31",
"p  c #75B63E3920DE",
"a  c #2B4D4349118B",
"s  c #2EA049D613F3",
"d  c #338F44411341",
"f  c #3C30428215C9",
"g  c #304049351381",
"h  c #426A449819A4",
"j  c #4BC641411C61",
"k  c #5B0B422926F0",
"l  c #5538408A2826",
"z  c #5B9243812A48",
"x  c #5F0148AE2A99",
"c  c #506F4BBF2630",
"v  c #592250C02967",
"b  c #500C44CB31CE",
"n  c #5D424ECC3903",
"m  c #637344052370",
"M  c #6EA145192770",
"N  c #6AC143C62A35",
"B  c #65814CC22D94",
"V  c #69054A902B57",
"C  c #722840302354",
"Z  c #744248BE2F2C",
"A  c #79344C772F6F",
"S  c #64E9508A2780",
"D  c #67C950B12F26",
"F  c #6C9A51022E4E",
"G  c #6C9650F62661",
"H  c #63534C1D30C0",
"J  c #6F1F4B9F31D2",
"K  c #694B45B831A5",
"L  c #7B4E4C6632DD",
"P  c #6DDB55043312",
"I  c #750C577330A5",
"U  c #776650083A51",
"Y  c #7DFB53373A66",
"T  c #76D65E5237D9",
"R  c #7D915BBD3F8B",
"E  c #7BD965353AA0",
"W  c #79A566123CF4",
"Q  c #4B4846584761",
"!  c #5141455D4443",
"~  c #5AAA4D2F46DB",
"^  c #5387498B4A4B",
"/  c #5B884C8C49BF",
"(  c #5DF35A2E5D0C",
")  c #58DE534255E8",
"_  c #66D34EB74162",
"`  c #64E45AF842AD",
"'  c #646353804BD7",
"]  c #6A5D5E8343E4",
"[  c #7E5C5E8E41E3",
"{  c #645055405282",
"}  c #703469634CA7",
"|  c #6C1961F05BFE",
" . c #6BA96AAD6D79",
".. c #719E720D7751",
"X. c #842938270E26",
"o. c #8C163C0A0E87",
"O. c #914F3DA50E65",
"+. c #82B8359F1053",
"@. c #84F639281302",
"#. c #973B3D10111A",
"$. c #97CF419B0E5B",
"%. c #99A041B60EB4",
"&. c #892A438C1DAB",
"*. c #8F1549551F90",
"=. c #851B4F9B1AF6",
"-. c #975D413711E8",
";. c #9D9A45CF11AA",
":. c #9DC64A601AB6",
">. c #86A953721F38",
",. c #9732580D1D78",
"<. c #9AFE5DDB1657",
"1. c #A08946600F59",
"2. c #B4D24E070F8B",
"3. c #BCC252820F0B",
"4. c #A39B48871170",
"5. c #AAA849D2140B",
"6. c #A0DE45FF1497",
"7. c #B2AA4D840FEB",
"8. c #B9CC50DF1060",
"9. c #B4DB521017DD",
"0. c #A20A60E614D7",
"q. c #BA326B8F195C",
"w. c #814C49D824A1",
"e. c #85A84DA72982",
"r. c #85F9458723F9",
"t. c #8C8E518F2B35",
"y. c #9AF558BE286C",
"u. c #8279556536EE",
"i. c #80565A683199",
"p. c #841455D6398A",
"a. c #868857F53C18",
"s. c #8DAB5CDF3B34",
"d. c #8E11583434C6",
"f. c #92595A0D3634",
"g. c #9BE75C25322C",
"h. c #920D59593950",
"j. c #B54D5A22220F",
"k. c #84656A143DBC",
"l. c #877D66123C4E",
"z. c #965162303D36",
"x. c #985A62273A90",
"c. c #A38A658C3AE7",
"v. c #AAB9698A3C0F",
"b. c #B4A070453BBC",
"n. c #C3F654DC0E59",
"m. c #C08A54AA103E",
"M. c #838965DA472A",
"N. c #9EB36A9142BA",
"B. c #906171D84D7F",
"V. c #919A6A8C5096",
"C. c #9D4D7A6B52A9",
"Z. c #A5066F524390",
"A. c #AA0F70E042E1",
"S. c #ACCA75154CB5",
"D. c #A364745546DA",
"F. c #B16C77A74A2F",
"G. c #B4507C274C01",
"H. c #BC487C664ABA",
"J. c #BAB676C9430B",
"K. c #C2767AE64307",
"L. c #C8BD7FE1454B",
"P. c #BADE81D24FB8",
"I. c #A3E580BD5521",
"U. c #BC79835D52B3",
"Y. c #B91F83C857EC",
"T. c #C9F084F54B22",
"R. c #CD6189D84F58",
"E. c #C1B0862B53F1",
"W. c #C6E08A7C5625",
"Q. c #CB098AD95416",
"!. c #CA6186915131",
"~. c #D2D48E6053B6",
"^. c #CED1916D5AAE",
"/. c #D24390845782",
"(. c #D3BB951B5B96",
"). c #D8E997B15B6C",
"_. c #DE4A9C985DEA",
"`. c #E0849C375DA0",
"'. c #DC879C325FE2",
"]. c #E0D29F165FEC",
"[. c #E460A2D862FE",
"{. c None",
/* pixels */
"{.{.{.{.{.{.{.{.{.{.{.{.{.{.{.{.{.{.{.{.{.{.{.{.{.{.{.{.{.{.",
"{.{.{.{.{.{.{.{.{.{.{.x.F.G.A.{.{.{.{.{.{.{.{.{.{.{.{.{.{.{.",
"{.{.{.{.{.{.{.{.{.{.x.(.[.[.[.(.G.{.{.{.{.{.{.{.{.{.{.{.{.{.",
"{.{.{.{.{.{.{.{.{.{.P.[.[.[.[.[.].W.{.{.{.{.{.{.{.{.{.{.{.{.",
"{.{.{.{.{.{.{.{.{.{.(.].`.~.Q.K.!.(.d.{.{.{.{.{.{.{.{.{.{.{.",
"{.{.{.{.{.{.{.{.{.e./.W.K.T.g.;.:.h.@.{.{.{.{.{.{.{.{.{.{.{.",
"{.{.{.{.{.{.{.{.{.C v.h.H.'.J.p p Z L {.{.{.{.{.{.{.{.{.{.{.",
"{.{.{.{.{.{.{.{.m c.g.g.H.!.~.c.G.'.Y.{.{.{.{.{.{.{.{.{.{.{.",
"{.{.{.{.{.{.{.# d G g.y.j.9.y.r.&.*.&.@.{.{.{.{.{.{.{.{.{.{.",
"{.{.{.{.{.{.> j f d h 3 8.m.5.5.7.4.@.6.{.{.{.{.{.{.{.{.{.{.",
"{.{.{.{.{.D./.(.D.h s # ;.3.#.7.O.X.;.X.2 {.{.{.{.{.{.{.{.{.",
"{.{.{.{.f._.[.[.'.I s @ 4 3.@.+.%.3.n.3.+.{.{.{.{.{.{.{.{.{.",
"{.{.{.{.v.].[.[.[.z.g a * 4.o.1.n.n.n.n.#.{.{.{.{.{.{.{.{.{.",
"{.{.{.{.x.`.[.[.].T d s X 1 7.n.n.n.n.n.+.{.{.{.{.{.{.{.{.{.",
"{.{.{.{.e.T.[.[.R.m s s a   < 7.3.n.n.4.= {.{.{.{.{.{.{.{.{.",
"{.{.{.{.w.J.[.].Q.P.h s s @   , o.$.@.*   {.{.{.{.{.{.{.{.{.",
"{.{.{.{.e./.[.[.[.'.S g g s a X o   X @ O {.{.{.{.{.{.{.{.{.",
"{.{.{.{.w.R.[.[.[.[.I d d d d # v W c $ {.{.{.{.{.{.{.{.{.{.",
"{.{.{.{.{.b.).Q.(.E.z 8 >.<.0.>.I.R R 7 8 {.{.{.{.{.{.{.{.{.",
"{.{.{.{.{.t.T.Q.S.Y ! & u y.q.,.C.C.R e a.Z {.{.{.{.{.{.{.{.",
"{.{.{.{.{.{.t.A.V.{ Q ) / Y 3 e z B.M.r p.p.{.{.{.{.{.{.{.{.",
"{.{.{.{.{.{.0 / ) Q { ..( U J ` ` ] n K p.S.p.{.{.{.{.{.{.{.",
"{.{.{.{.{.{.{.% ! { |  .' z.N 9 ` } n Y U.s.{.{.{.{.{.{.{.{.",
"{.{.{.{.{.{.{.- y ~ ~ _ N.N 9 b ` ` z s.z.p.{.{.{.{.{.{.{.{.",
"{.{.{.{.{.{.{.{.; q J d.M : q x x t J E.L {.{.{.{.{.{.{.{.{.",
"{.{.{.{.{.{.{.{.8 z V F B q B E W z r u {.{.{.{.{.{.{.{.{.{.",
"{.{.{.{.{.{.{.{.{.l E E P P k E k.k.k.F {.{.{.{.{.{.{.{.{.{.",
"{.{.{.{.{.{.{.{.{.l B B P P z x B D B k H {.{.{.{.{.{.{.{.{.",
"{.{.{.{.{.{.{.{.{.{.{.{.{.{.{.{.{.{.{.{.{.{.{.{.{.{.{.{.{.{.",
"{.{.{.{.{.{.{.{.{.{.{.{.{.{.{.{.{.{.{.{.{.{.{.{.{.{.{.{.{.{."
};
