/* XPM */
static char *result[] = {
/* columns rows colors chars-per-pixel */
"32 32 27 1 ",
"  c #3A2937023312",
". c #3DBD3A7A3635",
"X c #3F473C2337F4",
"o c #41B33DA5378C",
"O c #41CB3E5439F8",
"+ c #455641C53D05",
"@ c #492C44B73E4A",
"# c #478443D93FE9",
"$ c #4A0B465D4192",
"% c #4D8249764457",
"& c #51E44CFF464E",
"* c #52404E00495A",
"= c #5655519E4C59",
"- c #5983546C4E11",
"; c #5B9756795153",
": c #5E5E5934541E",
"> c #61AB5BF1563A",
", c #63F45E3A59A0",
"< c #66A460CE5BE0",
"1 c #69EF63BA5DD2",
"2 c #6C6966416154",
"3 c #6F1D68F16325",
"4 c #72106B9F6592",
"5 c #75036E4B68F7",
"6 c #76EC70F56ABE",
"7 c #796472B06D1F",
"8 c #7D2F765670D2",
/* pixels */
"$+%$#++.X@&&&=&&&@@ .+@$%$$+O:78",
"@ XXXO+##Oo@@@@&->151&+O+++.-664",
"o $-:,12<%o+=<47877752:+ . $2552",
"&+2776431:$&4567754411;@$%O:222<",
"*#344222,-@-334434131>@&32%*:::;",
"##<22,:;-=@-<111<<<>;-@132*$***%",
"O#:::;-=-&@;;-:;;;---@,42,*++#$$",
"#O******@o@@--==----@&31,;$%XXXX",
"..#$%%###%%$@%&==***+:<,=*O+=>:*",
".X+OOX#-,232>%O@@$$+#::-*%X*,<34",
"#*:,-%O;,1211>O;<<>;##$$$+ =;,13",
"$=,<22$+=->>>;@;:>,:=O$;::+=;:,3",
"#%;:<<:+@@&&&@o&==-=-%O->1--;;>1",
"+#%*;::*o@@@@oo%%**=*@.$->@@=-->",
"XX##%%**ooo@&=@o#$$$@&:@@--@-:--",
"X. X+###@o;12,;%O+++-21=@@@@@@--",
"+-%+$O..X,222:==$XX=21:=X++O%&&=",
"=<<#%==#$<<,;;=*$+;2<,;%%=XX#%@%",
"-<2-#**$%:::=**$.*,,;=**46;*&++o",
"-:<:$#$O$==**%#OX+==**$<55;*-+&:",
"&=:>;X#.X#%%$#*22#+$%+-331=$@#<<",
"&=--:#X.*=*#O=222*;*X+><1,%X@O=-",
"-@@-=* %<22<$::2<*<2<%*;;-$*<-#$",
"@@-@*%X=:,,:#;:::*><2<*$&&$=<>#.",
"@@++@o @=;;*+*-;;$;:>22*@@O&=-O&",
"@:><<<-@+%*$+****+*=;:,>&@X+$+ =",
"-><1<,>-++$$X%%%%O%%*===-+O==% $",
"@-:----=%X+#X#$$+ #%%***@+,43,+O",
"$$*===*%%+XX.+++%=#+##%%O:52<>*X",
"*+%%%%%%+X+#...%5852*OXX=522<:*X",
"=+++##+XX%:<;+.135432* #222,>=*+",
"*$.XX+=:<121:%@133332:X;2<,:=**+"
};
