/* XPM */
static char *_ac31ab3b9a0484fdcd699e2af99e4e2pFxlLg3KFDpuSlzn[] = {
/* columns rows colors chars-per-pixel */
"32 32 206 2 ",
"   c #191A3B",
".  c #231E34",
"X  c #30252B",
"o  c #282437",
"O  c #372A32",
"+  c #3B333C",
"@  c #522312",
"#  c #5D2C16",
"$  c #5E2B18",
"%  c #632E1A",
"&  c #65311B",
"*  c #6B331E",
"=  c #5B3B2E",
"-  c #4D3531",
";  c #4C3836",
":  c #6D3421",
">  c #6E3922",
",  c #713622",
"<  c #753A25",
"1  c #783B27",
"2  c #763D29",
"3  c #7A3D29",
"4  c #603F34",
"5  c #57413D",
"6  c #7A4427",
"7  c #7C412C",
"8  c #66473A",
"9  c #724E3D",
"0  c #74533E",
"q  c #161A43",
"w  c #1C1A49",
"e  c #191D54",
"r  c #221D55",
"t  c #241F5B",
"y  c #1E2643",
"u  c #1B264C",
"i  c #192355",
"p  c #14225D",
"a  c #252B41",
"s  c #313052",
"d  c #1C266D",
"f  c #172969",
"g  c #1A2B6D",
"h  c #152B72",
"j  c #1A2E72",
"k  c #1A2F7B",
"l  c #1D3174",
"z  c #1E367C",
"x  c #222363",
"c  c #23246A",
"v  c #2A2569",
"b  c #2C246B",
"n  c #343C6D",
"m  c #232B71",
"M  c #282873",
"N  c #253577",
"B  c #323F7B",
"V  c #47374D",
"C  c #3B416A",
"Z  c #584752",
"A  c #654B49",
"S  c #765545",
"D  c #664D56",
"F  c #775758",
"G  c #464764",
"H  c #843C14",
"J  c #803E2D",
"K  c #8E461B",
"L  c #92471E",
"P  c #81422E",
"I  c #984C23",
"U  c #864432",
"Y  c #8A4735",
"T  c #834B35",
"R  c #8B4A35",
"E  c #8C513B",
"W  c #8B543B",
"Q  c #9B5D38",
"!  c #AA592B",
"~  c #9E683C",
"^  c #A4693E",
"/  c #B76939",
"(  c #C16E3D",
")  c #C0703C",
"_  c #865A46",
"`  c #965C44",
"'  c #885950",
"]  c #89634D",
"[  c #96604C",
"{  c #9C654C",
"}  c #8C685E",
"|  c #996A56",
" . c #9B735E",
".. c #A66946",
"X. c #B26F47",
"o. c #AA7147",
"O. c #AB744B",
"+. c #B57446",
"@. c #BA7A4D",
"#. c #A46E56",
"$. c #A77454",
"%. c #A4725B",
"&. c #B67C58",
"*. c #AE7661",
"=. c #A67B61",
"-. c #B47D63",
";. c #BB7E63",
":. c #C16F40",
">. c #C57445",
",. c #BA815C",
"<. c #BB8563",
"1. c #BA8665",
"2. c #B88972",
"3. c #C88656",
"4. c #D58C5C",
"5. c #D68E5C",
"6. c #D7935D",
"7. c #C18864",
"8. c #CB8E62",
"9. c #C18B6D",
"0. c #CE9167",
"q. c #CB926C",
"w. c #D89769",
"e. c #C18D75",
"r. c #CA9575",
"t. c #C7957B",
"y. c #D29973",
"u. c #DB9E74",
"i. c #D29D7C",
"p. c #DEA378",
"a. c #E1A57B",
"s. c #173288",
"d. c #262A80",
"f. c #322D83",
"g. c #263A85",
"h. c #253B8B",
"j. c #323684",
"k. c #283696",
"l. c #263D92",
"z. c #253D9A",
"x. c #36379B",
"c. c #1C3AA2",
"v. c #1D3CA9",
"b. c #243BA4",
"n. c #2A3CA7",
"m. c #343AA3",
"M. c #3B3CA6",
"N. c #333FAA",
"B. c #2B4097",
"V. c #3D4799",
"C. c #1E40AA",
"Z. c #2C42A4",
"A. c #2443AD",
"S. c #2A46AA",
"D. c #3540AD",
"F. c #324CAB",
"G. c #3C4CAC",
"H. c #2741B1",
"J. c #2B44B4",
"K. c #2E4AB5",
"L. c #2B46B8",
"P. c #2D4BBB",
"I. c #324BB5",
"U. c #3448B6",
"Y. c #324CBC",
"T. c #3751B8",
"R. c #4A4697",
"E. c #4749A5",
"W. c #414FB2",
"Q. c #4555B8",
"!. c #2F58C1",
"~. c #3352C2",
"^. c #3B54C3",
"/. c #3957C6",
"(. c #3D5AC3",
"). c #3C62C7",
"_. c #4259C4",
"`. c #465AC8",
"'. c #4665CE",
"]. c #4A69D0",
"[. c #C79A87",
"{. c #CA9C84",
"}. c #D59C80",
"|. c #CEA18A",
" X c #DCA481",
".X c #DAA385",
"XX c #DCAA8E",
"oX c #D7AA97",
"OX c #DBAE9B",
"+X c #DEB59A",
"@X c #E5AC83",
"#X c #E4AC8C",
"$X c #E6B294",
"%X c #EDB595",
"&X c #E5B89F",
"*X c #ECBA9D",
"=X c #E5BCA5",
"-X c #ECBCA3",
";X c #F1BBA0",
":X c #EDC1A9",
">X c #F3C4AC",
",X c #F1C8AE",
"<X c #F2C7B5",
"1X c #F5CAB6",
"2X c #F9CDBB",
"3X c #FBD0BE",
/* pixels */
"& % U R Y J 3 1 < < < , * 7 [.=X=X=X{.7 1 < * * * % % 3 7 7 3 < ",
"* % U Y U 3 3 1 < < , : 2 [ [.1X>X>Xe.{ E < , 7 P < * : 3 P 7 3 ",
", * U U P 1 < < < , 2 %.OX<X[.,X>X-X9.-X&X2.E U P 3 < * * 1 < < ",
", * 3 3 1 < < < , T [.2X3X1Xt.&X*XXX-.-X>X;X.X..P 3 < < * < 3 < ",
", & < < < , , , T oX2X2XoX| 8 S S 9 = _ e.%X%X#X{ 3 < < * : P 3 ",
": : : , , , : 2 [.2X1X2.8 - o . . . . O = %.#X*XXXE < < , & 3 7 ",
": 2 & * : * * _ |.>X[.4 o   w r t r w   . - =.$Xr.#.7 < : * * * ",
"% & # : , , T OX|.1.8 o q r v b b b M M r o 4 #.r.#X` , < 7 < * ",
"% # # 3 7 < %.1X1X=.X q t v c c b f.x.M.x.x V #.$X%X1.3 3 3 < > ",
"* & # : < < [.2X-XS   e c N z c f.M.(.n.m.j.s '  X%XXX#.< , : : ",
"* & & & * { :X1XOX5 q x m g.k c x.M.).~.z.m.m F +X,X:X}.3 : : * ",
"& & & # $ 2.-X-XXXA i c N g.h d.M.N./.~.c.n.j.} =X*X%Xi.7 : * * ",
"* : # % : t.$X$Xt.Z i c j h f k.M.N.A.A.c.n.k.F {..Xi.7.< & & & ",
"U Y 1 $ * ` e.9.| O p c m m m m.N.D.D.D.J.J.k.V $.1.&.R 3 * % : ",
"Y R U % : U XX;Xt.+ p c x f m m.N.m.Z.Z.b.J.z.Z r.p.y.R 3 3 1 P ",
"U U U : : 7 }.%Xt.; p d l z s.b.J.Z.).!.C.L.z.D q.p.q.P 3 3 3 3 ",
"P P U 3 * 2 r.%Xi.; p d l k s.b.J.S.!.P.v.P.z.D 8.w.3.3 < 1 1 3 ",
"3 3 P 3 % : ;.}.9.; p d j k s.v.L.A.~.L.v.~.l.A O.@...< < < < 1 ",
"3 3 3 : # : { ,.$.; i g h h s.b.L.A.A.C.A.~.l.F &.&..., , < < < ",
"< < , $ # * $.u.8.8 u s g k z.L.L.L.P.Y.~.^.h.} w.4.X., , < < , ",
", , % # % & ..p.0.8 u f f g l.S.L.Z.F.F.I.^.g.} 4.4...* : < < < ",
"* & # # % % ` a.w.S u h j g.F.A.Y.F.].'.K.^.B  .4.4.Q * * : < 2 ",
"& # # * > & W #X XS u h l h.K.H.Y.F.].(.I.^.B =.w.w.Q & & * * < ",
"& % > 7 7 7 T 1.<.9 y h l l.Y.J.~.T.'.^.Y.(.n ] @.@.6 % % & * : ",
"& * < 7 7 7 E q.y.] a h l B.Y.L.^.T.'.^.T._.C %.3.3.6 # % % & & ",
"& * < < < : T  X@X .a h l h.K.U.^.T.T.I.^._.G &.4.3.6 # # # % % ",
"% % * : : * 7 u.@X=.o j g.B.^.^.^._._.`.`.Q.G 1.6.3.< # # # # % ",
"* # * * : : 3 y.@X=.+ N j.V.Q.W.G.G.G.E.E.R.D <.6.3., % * * : < ",
", % % * : : < q.a.1.0 _ { %.*.*.*.-.;.-.;.;.,.8.6.@.& # % * * , ",
"* # @ % : : , 7.a.w.>.>.:.( ( ( / ) / ! ! ! ! +.4.+.& # # % % % ",
"# $ : , : , , &.a.u./ I I I L L K K K H H H H ~ 3.+.7 < * & & % ",
"# , U U J 1 < ..0.8.,.O.O.O.O.O.O.O.o.o...^ ^ ^ +.Q < , * * * * "
};
