/* XPM */
static char *_5d3743473ab45ffa0baad2b61c02820DLpQV6OBrOCeSsMR[] = {
/* columns rows colors chars-per-pixel */
"32 32 166 2 ",
"   c None",
".  c #8B0F01",
"X  c #8E1102",
"o  c #931503",
"O  c #9C1702",
"+  c #941803",
"@  c #9D1903",
"#  c #A21C03",
"$  c #A81D03",
"%  c #9F2106",
"&  c #A52305",
"*  c #AC2403",
"=  c #A62907",
"-  c #AC2C05",
";  c #A92709",
":  c #B02704",
">  c #B42B03",
",  c #B43305",
"<  c #B93203",
"1  c #B73806",
"2  c #BC3C05",
"3  c #B33409",
"4  c #B63B0C",
"5  c #BC3E0B",
"6  c #CC3406",
"7  c #D73906",
"8  c #E33606",
"9  c #E93403",
"0  c #E93904",
"q  c #BF4004",
"w  c #BC400C",
"e  c #BF4510",
"r  c #C24305",
"t  c #C54906",
"y  c #C2450B",
"u  c #C54A0B",
"i  c #C84E0D",
"p  c #D44105",
"a  c #D24D06",
"s  c #D04109",
"d  c #CB5404",
"f  c #CF5904",
"g  c #C3500A",
"h  c #CA520E",
"j  c #C9580D",
"k  c #D05707",
"l  c #D25E03",
"z  c #D05E0A",
"x  c #C24710",
"c  c #C64F12",
"v  c #CB5511",
"b  c #CE5A14",
"n  c #D05E16",
"m  c #D15F18",
"M  c #E74605",
"N  c #EA4404",
"B  c #E44A05",
"V  c #EA4E03",
"C  c #E45306",
"Z  c #EB5305",
"A  c #EF5807",
"S  c #E8550A",
"D  c #E4590C",
"F  c #ED5C0A",
"G  c #F15E09",
"H  c #D5650D",
"J  c #DE660C",
"K  c #DB6E0C",
"L  c #D67206",
"P  c #DC7206",
"I  c #D7740A",
"U  c #DE7509",
"Y  c #DF7808",
"T  c #D36314",
"R  c #D66914",
"E  c #D96C14",
"W  c #D16319",
"Q  c #DA7214",
"!  c #DF7E12",
"~  c #EE6104",
"^  c #E1620B",
"/  c #E8620B",
"(  c #F46106",
")  c #F16D05",
"_  c #F96D06",
"`  c #F36B08",
"'  c #F96F09",
"]  c #E3760E",
"[  c #E67B0A",
"{  c #EB7B0B",
"}  c #F27306",
"|  c #F87706",
" . c #F47D06",
".. c #F17508",
"X. c #F27D08",
"o. c #F7741C",
"O. c #F36E2A",
"+. c #ED8C06",
"@. c #EC8309",
"#. c #EA8E0B",
"$. c #F48507",
"%. c #F88707",
"&. c #F38D07",
"*. c #FB8F06",
"=. c #F4830A",
"-. c #F18908",
";. c #EF9B05",
":. c #EF9009",
">. c #ED9F0C",
",. c #F69506",
"<. c #FD9305",
"1. c #F79C06",
"2. c #FB9D05",
"3. c #F6950B",
"4. c #F9950E",
"5. c #F59A08",
"6. c #FA9C09",
"7. c #E08012",
"8. c #EB9715",
"9. c #F79115",
"0. c #F69C17",
"q. c #F7971C",
"w. c #F79C1B",
"e. c #F4A207",
"r. c #FCA404",
"t. c #F7AB06",
"y. c #FCAB04",
"u. c #F2A00C",
"i. c #FAA508",
"p. c #F5AE0A",
"a. c #F9B706",
"s. c #FBBB05",
"d. c #FAB20C",
"f. c #FBBD0B",
"g. c #DD8529",
"h. c #EF842A",
"j. c #F39F29",
"k. c #F98A3B",
"l. c #EE9131",
"z. c #F7A02A",
"x. c #F9B32F",
"c. c #FAAE31",
"v. c #F9B232",
"b. c #FCC503",
"n. c #FCC60D",
"m. c #FAC713",
"M. c #FAC11B",
"N. c #FACE2F",
"B. c #FAC836",
"V. c #EC9B4D",
"C. c #FA9450",
"Z. c #E1AC5F",
"A. c #F4B05A",
"S. c #E3AA76",
"D. c #E7B87C",
"F. c #F9CE5A",
"G. c #FACE61",
"H. c #FADB73",
"J. c #F8DD76",
"K. c #F9D77E",
"L. c #F9CE85",
"P. c #F8DC9E",
"I. c #F8E3AC",
"U. c #F8E0B6",
"Y. c #F9E4BB",
"T. c #FAE0C1",
/* pixels */
"                                                                ",
"                                                                ",
"                                                                ",
"                                                                ",
"                x.I.G.          r.d.K.H.n.                      ",
"            ,.r.6.z.0.1.2.    r.t.2.4.4.e.a.                    ",
"          Y r.i.<.<.*.=.{ &.@.y.i.<.<.<.%.@.a.                  ",
"      2 r P y.2.*.,.c.L.l.F ..y.2.<.<.<.<. .e.t.                ",
"    2 2 > a r.,.,.r.4.h.D B Z 2.r.<.<.<.<.$.t.;.k               ",
"      r r 6 | 5.r.i.} V B C M A 2.r.r.2.q.A.B.L d f             ",
"      , r r p &.r.,.~ V V Z Z N N  .t.M.P.T.V., d l r           ",
"        > r r d +.2.) V V M M Z M 0 N F O.o.s & f d             ",
"          & 1 r t K -.} Z B 8 9 9 9 9 9 V ` 2 2 r ,             ",
"          X o - r u g I +.&. .G Z M V A ( D r q -               ",
"        : # X X @ 1 u i j H ^ S F F F / J z 2 @ #               ",
"      : > < - X . o & 1 y h v b R E R b y - + & >               ",
"    * : > 2 r , + X X + & - 3 4 w 4 3 & @ o & 2 2 <             ",
"    * > < r t u 5 % X X + @ # # & # @ o @ 3 y r r 2 >           ",
"    * > < r u u i u 3 % @ @ @ @ @ @ & 3 y i u y r q >           ",
"  $ $ > < r u i i h v v x 5 5 i i e c v h i i u r r < :         ",
"  # # * < r u i h b v b b m Q t.u.W b v v h i u t r < *         ",
"  # O $ > 2 u i T T b b m W >.b.N.S.W v v h i u u y 4 ;         ",
"  # O # * 2 u i n T b b m Q s.b.m.J.g.b v h i h Y 8.D.Z.        ",
"  # O # # > y i v v b b m ! s.#.! p.7.b v h h +.y.2.w.0.p.s.    ",
"    O # # & 1 i h v b b n E ,.$.] ] T v v h Y y.i.<.<.*.=.:.s.  ",
"    O # # # & 5 h h v b b T { ] ] $.] v h i [ y.2.<.<.<.<.X.t.t.",
"    O O # # $ * 5 h v v b E ,.[ ] -.T v h u C r.r.<.<.<.<.$.t.t.",
"    # O O # # $ & 3 u v v b K &.,.K v h h 5 6 | r.r.2.<.9.j.f.d.",
"  : : : * & # O # & * 3 y i v H [ v i u w & @ 7 _ 2.f.F.U.Y.v.  ",
"  > > : > > : # O O @ @ @ % & = = & & & # o X # 6 Z ' k.C.k.    ",
"                                                                ",
"                                                                "
};
