/* XPM */
static char *f532a38cbace4193a91fef0680c31630gc2dARDL6eJ3uzQR[] = {
/* columns rows colors chars-per-pixel */
"32 32 204 2 ",
"   c #552614",
".  c #5E2C16",
"X  c #5E2A18",
"o  c #7D200C",
"O  c #682915",
"+  c #632E1A",
"@  c #752512",
"#  c #7C2714",
"$  c #742B16",
"%  c #7B2916",
"&  c #722F1C",
"*  c #7F2D19",
"=  c #6C3016",
"-  c #65311B",
";  c #6A331E",
":  c #753519",
">  c #6D3420",
",  c #6F3822",
"<  c #713622",
"1  c #783520",
"2  c #753A25",
"3  c #793B26",
"4  c #763C29",
"5  c #7A3D29",
"6  c #7B4119",
"7  c #7D412C",
"8  c #8C0F01",
"9  c #8E1102",
"0  c #941502",
"q  c #9D1702",
"w  c #951905",
"e  c #9C1A03",
"r  c #A21C02",
"t  c #A81E01",
"y  c #87280D",
"u  c #9D2206",
"i  c #91280F",
"p  c #9D2B0B",
"a  c #91330D",
"s  c #9D330E",
"d  c #872610",
"f  c #832D15",
"g  c #932D13",
"h  c #992B13",
"j  c #863116",
"k  c #84331B",
"l  c #8B391A",
"z  c #933517",
"x  c #A42305",
"c  c #AA2403",
"v  c #A62A07",
"b  c #AB2A04",
"n  c #B32C02",
"m  c #B82F01",
"M  c #A3330C",
"N  c #B43305",
"B  c #B93304",
"V  c #BD3D04",
"C  c #B33409",
"Z  c #B73B0C",
"A  c #BC3E0B",
"S  c #833F22",
"D  c #803E2D",
"F  c #8B3D28",
"G  c #CC3406",
"H  c #C03F06",
"J  c #D73905",
"K  c #E93403",
"L  c #E63805",
"P  c #88441A",
"I  c #954519",
"U  c #8A501C",
"Y  c #9A5916",
"T  c #BE4104",
"R  c #BD400C",
"E  c #BE530A",
"W  c #A54816",
"Q  c #BF4510",
"!  c #A45C1A",
"~  c #B3750F",
"^  c #A5641A",
"/  c #B76011",
"(  c #AD7317",
")  c #BB7917",
"_  c #834626",
"`  c #81432E",
"'  c #924C21",
"]  c #995C21",
"[  c #854431",
"{  c #894634",
"}  c #854A33",
"|  c #8C4836",
" . c #C24405",
".. c #C54A07",
"X. c #C2460B",
"o. c #C54A0A",
"O. c #C94E0D",
"+. c #D24507",
"@. c #CC5404",
"#. c #C65308",
"$. c #CA520E",
"%. c #D15E06",
"&. c #C74F11",
"*. c #CB5511",
"=. c #CE5A13",
"-. c #D05E15",
";. c #D15F18",
":. c #E64405",
">. c #EA4504",
",. c #E54A05",
"<. c #EA4D03",
"1. c #E55306",
"2. c #EB5205",
"3. c #E85809",
"4. c #ED5D09",
"5. c #F05504",
"6. c #F15B0B",
"7. c #D5650D",
"8. c #DE650B",
"9. c #DB6D0B",
"0. c #C8740F",
"q. c #D77206",
"w. c #DE7307",
"e. c #DB750A",
"r. c #D46315",
"t. c #D76913",
"y. c #DA6C14",
"u. c #D1621A",
"i. c #CB7D12",
"p. c #DB7314",
"a. c #E86108",
"s. c #F56905",
"d. c #F66D09",
"f. c #E3760D",
"g. c #E57B0A",
"h. c #EC7B0B",
"j. c #F37305",
"k. c #F37807",
"l. c #F47D06",
"z. c #E07E12",
"x. c #F7741C",
"c. c #F46E2A",
"v. c #E37B35",
"b. c #CE8A0B",
"n. c #C68D16",
"m. c #D28B10",
"M. c #EE8C06",
"N. c #ED8409",
"B. c #E48D09",
"V. c #EA8E0B",
"C. c #F58506",
"Z. c #F58907",
"A. c #F28C06",
"S. c #FC8F06",
"D. c #F5830A",
"F. c #EC9709",
"G. c #F69507",
"H. c #FE9404",
"J. c #FC9D05",
"K. c #F9950E",
"L. c #F7990A",
"P. c #E18111",
"I. c #E99B14",
"U. c #F79D17",
"Y. c #F79719",
"T. c #E7A709",
"R. c #F5A207",
"E. c #FCA404",
"W. c #F7AA06",
"Q. c #FCAC04",
"!. c #F3A00B",
"~. c #FBA608",
"^. c #F2AE0B",
"/. c #FCBE05",
"(. c #FCBD0B",
"). c #C58329",
"_. c #DE8529",
"`. c #EF842A",
"'. c #F49F29",
"]. c #F88A3B",
"[. c #EE9131",
"{. c #EBA52F",
"}. c #F7A02A",
"|. c #FAAE31",
" X c #FDC503",
".X c #FBC417",
"XX c #FACE2E",
"oX c #FAC836",
"OX c #C49348",
"+X c #EC9B4C",
"@X c #F6914F",
"#X c #DAA45A",
"$X c #F5B05A",
"%X c #E0BB63",
"&X c #E3AA76",
"*X c #E7B87C",
"=X c #F9CE5A",
"-X c #E6C172",
";X c #F8DD76",
":X c #CEAD80",
">X c #FACE85",
",X c #F8DD9E",
"<X c #F9E3B9",
"1X c #FAE0C1",
/* pixels */
"- + [ | { D 5 3 2 2 2 < ; 5 5 3 2 2 2 2 3 2 ; ; ; + + 5 7 7 5 4 ",
"; + [ { [ 5 5 3 2 2 < > ; 2 2 2 2 2 2 2 2 2 < 7 ` 2 ; > 5 ` 7 5 ",
"< ; [ [ ` 3 2 2 2 1 < ; - ; 2 2 3 _ } ` 2 < 5 [ ` 5 2 ; ; 3 4 2 ",
"< ; 5 5 3 2 3 ! ).:XOX^ 6 ; 2 ' i.I.-X%Xn.] [ [ 7 5 4 2 ; 2 5 4 ",
"< - 2 2 2 3 0.R.L.}.U.L.B.Y I B.Q.J.K.K.R.^.) ` 5 3 4 4 ; > ` 5 ",
"> > > 1 l / E.~.H.H.S.D.h.Z.g.Q.~.H.H.H.C.N.^.^ 5 3 2 2 < - 5 7 ",
"> 4 : M T w.Q.J.S.G.|.>X[.4.j.Q.J.H.H.H.H.l.R.m.5 3 2 2 > ; ; ; ",
"+ - a V n +.E.G.G.R.K.`.3.,.2.J.E.H.H.H.H.C.W.F.W S 2 < 2 7 4 ; ",
"+ . f T  .G k.L.Q.~.k.<.,.1.>.5.J.Q.E.J.Y.$XoXq.@.E l 5 5 5 4 , ",
"; - O s  . .+.A.Q.G.a.<.<.2.2.>.>.l.W..X,X1X+XN @.%.W 2 2 < > > ",
"; - - = s V  .@.M.H.s.<.<.:.>.2.>.L >.6.c.x.+.x @.@.z < < > > ; ",
"- - - . O u B  ...9.Z.j.2.,.L K K K K K <.d.B V  .M 1 < ; > ; ; ",
"; > . + d 9 0 b  .o.#.q.M.A.l.6.2.>.<.5.s.3. .T p & ; ; + - - - ",
"[ { 3 f b r 8 9 r N o.O.*.7.a.3.4.4.4.a.8.%.V e i < < 2 3 ; + > ",
"{ | F b n B b 0 8 0 x N X.$.$.-.t.y.t.=...b 0 x n z 3 5 5 5 3 ` ",
"[ [ h n m V  .N w 9 9 0 x b C Z R Z C x e 0 x V V N k 2 5 5 5 5 ",
"` F c n m  ...o.A u 9 9 0 q r r x r e 0 e C X... .V M 1 2 3 3 5 ",
"5 z c n B  .o.o.O.o.C x e r e e e e x C X.O.o... .H N k < 2 2 3 ",
"5 g t n B  .o.o.O.$.*.*.X.A A ..o.Q &.*.$.O.o.o... .B g < 2 2 2 ",
"3 i r c B H o.O.$.=.*.=.=.;.p.W.!.u.=.*.$.$.O.o... .B p 2 2 2 < ",
"< i q t m H o.O.-.r.=.=.;.r.F. XXX&Xu.*.*.$.O.o.....C p 1 2 2 2 ",
"; d q r c V o.O.-.r.=.=.;.p./. X.X;X_.=.*.$.O.$.w.I.*X#X( P 2 4 ",
"- o q r r n X.O.*.*.=.=.;.z./.V.P.^.P.=.*.$.$.M.W.J.U.U.W.T.Y 4 ",
"- @ q r r x B O.$.*.=.=.;.y.G.C.f.f.r.*.$.$.e.Q.~.H.H.S.D.M.T.U ",
"- $ q r r r c A $.$.*.=.=.r.h.f.f.C.f.*.$.O.g.Q.J.H.H.H.H.l.W.) ",
"- & w q r r t c A $.*.*.=.t.G.g.f.A.7.$.$.o.1.Q.E.H.H.H.H.C.W.b.",
"+ $ e q q r r t c C o.*.*.=.9.A.G.9.*.$.O.A G k.Q.E.J.H.Y.'.(.~ ",
"; y n n c r r q r t c C X.O.*.7.g.$.O.o.R x e J d.J.(.=X<X<X{.' ",
"< i b n n m n r e e e e e u x x v x x x r 0 9 r G 2.d.].@Xv.W < ",
"; . O $ f f f f # # % % % $ @ @ % k * % @ @ @ # % j l I I : + + ",
". X > < > < > ; ; + + X + + - > [ } } ` 2 . ; < 4 5 5 4 ; - - + ",
". < [ [ D 3 2 3 2 ; X   ; > 5 [ [ ` 7 ` 7 - + > 5 4 2 < > ; ; ; "
};
