/* XPM */
static char *d6d690ea1f57415c805fcf37eb56d407EtDa5dTMRNHLwA8K[] = {
/* columns rows colors chars-per-pixel */
"32 32 142 2 ",
"   c #532513",
".  c #582715",
"X  c #572814",
"o  c #5D2B17",
"O  c #5E2C18",
"+  c #632E1A",
"@  c #66311C",
"#  c #6A331E",
"$  c #6B381F",
"%  c #682F21",
"&  c #6D3521",
"*  c #6F3922",
"=  c #723623",
"-  c #773926",
";  c #753A26",
":  c #753B26",
">  c #753B27",
",  c #763A26",
"<  c #773A26",
"1  c #763B26",
"2  c #763A27",
"3  c #773A27",
"4  c #773B27",
"5  c #753925",
"6  c #743C26",
"7  c #753C26",
"8  c #773C26",
"9  c #773D26",
"0  c #763C27",
"q  c #773C27",
"w  c #733A25",
"e  c #783927",
"r  c #793927",
"t  c #783A27",
"y  c #783B27",
"u  c #783C27",
"i  c #783D27",
"p  c #783B27",
"a  c #773A28",
"s  c #763B28",
"d  c #753B2A",
"f  c #773D28",
"g  c #773F28",
"h  c #763C28",
"j  c #793828",
"k  c #793928",
"l  c #7A3928",
"z  c #7B3929",
"x  c #793B28",
"c  c #793A29",
"v  c #7A3B28",
"b  c #7A3A29",
"n  c #7B3A29",
"m  c #7C392A",
"M  c #7D3A2A",
"N  c #7C3B2A",
"B  c #7D3B2A",
"V  c #7E3B2A",
"C  c #783C28",
"Z  c #783D28",
"A  c #793D29",
"S  c #7A3C28",
"D  c #7A3D28",
"F  c #7A3C29",
"G  c #7B3C29",
"H  c #7A3D29",
"J  c #783E29",
"K  c #783F29",
"L  c #7A3E29",
"P  c #7B3C2A",
"I  c #7B3D2A",
"U  c #793E2A",
"Y  c #793F2A",
"T  c #7B3F2A",
"R  c #7C3D29",
"E  c #7C3C2A",
"W  c #7D3D2A",
"Q  c #7C3E2B",
"!  c #7D3E2B",
"~  c #7C3F2B",
"^  c #7B3D2C",
"/  c #7E3C2C",
"(  c #7E3D2C",
")  c #7D3F2D",
"_  c #7F3E2C",
"`  c #7A3D2A",
"'  c #7A402B",
"]  c #7B412B",
"[  c #7C412C",
"{  c #7D412D",
"}  c #7E412D",
"|  c #7E422D",
" . c #7E432E",
".. c #7F432E",
"X. c #7C412C",
"o. c #7E4130",
"O. c #7F4431",
"+. c #803C2B",
"@. c #813D2C",
"#. c #813E2D",
"$. c #803F2D",
"%. c #823F2F",
"&. c #803E2D",
"*. c #80402E",
"=. c #80412E",
"-. c #81412E",
";. c #81412F",
":. c #81422E",
">. c #81422F",
",. c #80442E",
"<. c #81442F",
"1. c #81422E",
"2. c #804130",
"3. c #834030",
"4. c #824130",
"5. c #834330",
"6. c #854230",
"7. c #844231",
"8. c #874332",
"9. c #874333",
"0. c #834531",
"q. c #834631",
"w. c #844431",
"e. c #844531",
"r. c #864533",
"t. c #874533",
"y. c #874434",
"u. c #874534",
"i. c #874634",
"p. c #844431",
"a. c #884534",
"s. c #884735",
"d. c #894636",
"f. c #894735",
"g. c #854833",
"h. c #8A4836",
"j. c #8C4836",
"k. c #8C4837",
"l. c #8B4836",
"z. c #8C4938",
"x. c #8F4B3A",
"c. c #904B3B",
/* pixels */
"@ + 6.j.a.$.W x 5 5 5 = # G G u t 5 t 5 u 5 & # # + + G } } G 7 ",
"# + t.h.t.W G u 5 5 = & # 5 5 5 5 5 5 5 5 5 = } <.w # & X.<.} G ",
"= & t.i.=.G 5 5 5 = & # @ & 5 5 t t 5 5 5 w G q.<.G 7 # # G u 5 ",
"= # G G t 5 5 5 = = # # @ # 5 5 t 5 t 5 5 G t.q.} G 7 5 # w G 7 ",
"= @ 5 5 5 = = = & & # @ @ + 5 5 5 5 5 5 G t.t.} G u 7 7 & & =.G ",
"& & & = = = & & # # # @ + o = 5 5 = 5 t =.t.=.G G u 7 7 = @ G } ",
"& d @ # & & # # # # # + + o = x x N ) =.2.=.W G u u 5 5 & # # & ",
"+ @ o & = = w = = & @ + & o 2.a.i.a.6.2.=.W W x 5 5 5 w 5 ' G # ",
"+ O O G } f 5 w * @ o . o   o.c.6.$.$.) W x x x 5 5 5 G ' G 7 * ",
"# @ O * 7 = = # @ @ 5 x & . ^ 6.$.W N N x x x x 5 5 f 5 5 = & & ",
"# @ @ @ & # @ # 5 2.j.z.i.5 & 5 N N N x x x t 5 w 5 w = = & & # ",
"@ @ @ O O & x ) 6.j.j.z.z.a.) = & = & & + + + @ = w = & & & # # ",
"# & O + + N 6.6.6.t.a.h.a.i.t.2.w 5 X.f + + & o + # # # @ @ @ @ ",
"t.a.G O + ) =.$.$.$.6.t.t.2.2.2.^ d } O.f + + + & & = 5 x # @ & ",
"h.j.6.+ & x G W W W W ) } } } } G & w f X.O . # = 5 G G } G G =.",
"t.t.t.& & d x x x x x x d d d d d & & & * o o # & = 5 5 G G W ) ",
"=.2.6.W # = 5 5 d 5 5 5 w w w & & & # # @ O # w & = = 5 5 u G G ",
"W W =.W @ & = = = = = w w = & & & @ @ @ O @ w w & & = = w 5 5 G ",
"G G G & o & & & & & = = = & & & # @ + O o O & * # # # & = w 5 5 ",
"5 5 = o o # & & & & & & & & # @ @ @ o o + o + @ # # # & w 5 w = ",
"= = + o + @ @ # # # # # # @ @ @ @ O O o     o @ @ @ # # & w 7 w ",
"# @ o O + @ + @ @ @ @ @ @ @ + O @ * 7 w = * # O + @ @ # # & w f ",
"@ o O & * @ O O O O O O O O O # }  .7 w 7 5 = @ O + @ @ @ # # w ",
"@ + * X.X.' & @ @ @ @ @ O o @ w G 7 = = w w w # + O + + @ @ # * ",
"@ # 7 ' ' ' f f f f 7 w $ O + # = = 5 G ' ' ' 7 & O O O + + @ @ ",
"@ # w f 5 & & & = = w * & O + # 5 X. .} G } G 7 w & + O O + + @ ",
"+ + # & & # & # # # # # # + X & ' G 5 w w w w & # # @ O O O O + ",
"# o # # & & & & # # # # # # @ @ & = w = = = = & # # @ + # # & 5 ",
"= + + & & & & & & # # & = w * o o # # = & & & & # # O O @ # # = ",
"# o   + & & & & & & & & # @ @ o & f w # + + + # # @ O O O + + + ",
"O o & = & = & # # + @ O + + @ & q.g.g.<.7 O # w 7 G G 7 # @ @ + ",
"O = 6.6.$.x t x 5 # O . # & G q.t.<.' <.' @ + & G 7 w = & # # # "
};
