/* XPM */
static char *result[] = {
/* columns rows colors chars-per-pixel */
"32 34 189 2 ",
"   c #379F30690E0C",
".  c #2B6D3B01107E",
"X  c #2D16360E0FC5",
"o  c #33CA30EF117B",
"O  c #3D03347E149F",
"+  c #33423D981171",
"@  c #3A5A3A80122F",
"#  c #450E2E970F12",
"$  c #45CF2FDC0F03",
"%  c #5C9131150E30",
"&  c #4D873372198B",
"*  c #460A376B1444",
"=  c #5EE3320F0FA8",
"-  c #6E8A35B90D8C",
";  c #7CE639610E09",
":  c #7AF034A80E92",
">  c #6E4133A71A0D",
",  c #685132F0191A",
"<  c #730538B11C18",
"1  c #77C736E01612",
"2  c #47782CF72427",
"3  c #4C6C32D32345",
"4  c #483436E127DC",
"5  c #4F643F012FA2",
"6  c #47C534CB2D8B",
"7  c #544336B22335",
"8  c #52E23B28239A",
"9  c #5D503EE325D3",
"0  c #5ABE348B24C7",
"q  c #4A063965337D",
"w  c #47D1390E36D9",
"e  c #63AE3A3F2378",
"r  c #71AE39C6219D",
"t  c #2D4B43FF1098",
"y  c #2EE3498D13BA",
"u  c #33A244A41359",
"i  c #300349C011F7",
"p  c #3E48496418F9",
"a  c #4B1F411E1264",
"s  c #43D844171A9E",
"d  c #50AC416D1472",
"f  c #56DF4B5D1FA5",
"g  c #5A7243832B65",
"h  c #5870488B274E",
"j  c #48CD50FF1FA6",
"k  c #5DDB500A241D",
"l  c #4DC942DD3FA9",
"z  c #5FB64B523035",
"x  c #55F943023B48",
"c  c #591F46BB35BE",
"v  c #5D73537B3D7B",
"b  c #6C3F42C029DF",
"n  c #631A4BBD2E38",
"m  c #6C1B4BCF2C15",
"M  c #63E046F72C66",
"N  c #7C5F454E256B",
"B  c #7818490D203B",
"V  c #7C1C46D92C13",
"C  c #709A48262FA2",
"Z  c #7D4C4B1A2DF9",
"A  c #742D46092706",
"S  c #6AEC52C42CD1",
"D  c #7D8D50E22AFD",
"F  c #713251FC2D5D",
"G  c #6BD144AF3321",
"H  c #615447D330D5",
"J  c #651F4A14384F",
"K  c #748C4B3A33B0",
"L  c #6C3554D132D9",
"P  c #649457893ECC",
"I  c #71BE554834C9",
"U  c #72195A023470",
"Y  c #774B5E5037C9",
"T  c #70F757813A79",
"R  c #7B95637A39CC",
"E  c #4EC042B24248",
"W  c #59A44CB14BA7",
"Q  c #580654CD57A7",
"!  c #5A9E55E75906",
"~  c #57B1518C541E",
"^  c #61444B1A437C",
"/  c #630D5485423B",
"(  c #6846505B4758",
")  c #65F15AEA427C",
"_  c #6C985C6846C0",
"`  c #7A725C034C2C",
"'  c #63FD58975649",
"]  c #6D9D65184A4D",
"[  c #6FD768314C63",
"{  c #6FF368B24C98",
"}  c #70AE67C94BED",
"|  c #7E2C6A435306",
" . c #654163CD67F4",
".. c #77656A10678E",
"X. c #6DFF6DF371B1",
"o. c #6F1470CC7622",
"O. c #73AB70DD749F",
"+. c #7E287A937CCF",
"@. c #8BC53E250E72",
"#. c #85203C980E53",
"$. c #912E3E2D0E99",
"%. c #84C23A4C1359",
"&. c #8BC93C9E10DA",
"*. c #8137367912D2",
"=. c #941E40F90F05",
"-. c #98B7412E0E72",
";. c #9A2E445A117D",
":. c #9EDC483F1764",
">. c #9DDA4BE11BF3",
",. c #990F57F11680",
"<. c #9725572E1CC6",
"1. c #AC854B2C0E4C",
"2. c #B52E4E460E16",
"3. c #B7604FFF0F14",
"4. c #BE8E53500E7D",
"5. c #A0E247AF1019",
"6. c #AB104B0310D9",
"7. c #B3D94E2610A0",
"8. c #A1F75DD31A0B",
"9. c #BF7053B0106B",
"0. c #ABF86214158F",
"q. c #A6CD60F21868",
"w. c #A95563551A37",
"e. c #B7FF6ACA176E",
"r. c #83A04D6D2B93",
"t. c #88A04E462AC7",
"y. c #86D3501B2BB9",
"u. c #9473555C2BBE",
"i. c #9BCB593F2DEF",
"p. c #850F51A831CD",
"a. c #8A7553DC3191",
"s. c #87865CAC3A18",
"d. c #8B885BDB3BEC",
"f. c #878955B538F9",
"g. c #9A6D5BEC3302",
"h. c #93195DDA3A72",
"j. c #9333594F33FA",
"k. c #A0EC5D2E3009",
"l. c #98AA66AE3E91",
"z. c #B5FA605F28CD",
"x. c #A50766F43C6B",
"c. c #A40E692D3D27",
"v. c #B0BB69ED3A08",
"b. c #B91273BF3DF0",
"n. c #C3D7550A0E3D",
"m. c #C394726B17F0",
"M. c #896D67A44886",
"N. c #9AD566404040",
"B. c #984D6AC44324",
"V. c #897E70544177",
"C. c #9FC471B84555",
"Z. c #91E570C557CD",
"A. c #98CC7F00555B",
"S. c #A5DB6D1A4445",
"D. c #AA096D5341A2",
"F. c #B0916F73415D",
"G. c #AB6D7116454A",
"H. c #AFC678844168",
"J. c #A9E4758C4C85",
"K. c #B34E74C943F6",
"L. c #BB537A1F45FC",
"P. c #B4CE7A7A4B6D",
"I. c #BC087E0B4BEC",
"U. c #B9437788443F",
"Y. c #A88C788151C4",
"T. c #B05D7EEB551E",
"R. c #8D8F7C086561",
"E. c #C8B27E9843FC",
"W. c #A1BD81F057DD",
"Q. c #BADE81C351DA",
"!. c #AD058C1761A6",
"~. c #B5E691DE62EE",
"^. c #C72D82424AB5",
"/. c #C47A873452E1",
"(. c #C54E89BC54C6",
"). c #CB3D8A2B533B",
"_. c #C9EC8CF658CE",
"`. c #CF8A92085B19",
"'. c #C8B4905554CA",
"]. c #D62492C05649",
"[. c #D3E494A15AF5",
"{. c #DC719B8B5E85",
"}. c #DA4996885963",
"|. c #C3E594206852",
" X c #DF669DD260EE",
".X c #E2439F8B6473",
"XX c #E480A30A6367",
"oX c #88FC8AC5904F",
"OX c None",
/* pixels */
"OXOXOXOXOXOXOXOXOXOXOXOXOXOXOXOXOXOXOXOXOXOXOXOXOXOXOXOXOXOXOXOX",
"OXOXOXOXOXOXOXOXOXOXOXOXOXOXOXOXOXOXOXOXOXOXOXOXOXOXOXOXOXOXOXOX",
"OXOXOXOXOXOXOXOXOXOXOXOXOXOXOXOXOXOXOXOXOXOXOXOXOXOXOXOXOXOXOXOX",
"OXOXOXOXOXOXOXOXOXOXOXOXOXOXOXOXOXOXOXOXOXOXOXOXOXOXOXOXOXOXOXOX",
"OXOXOXOXOXOXOXOXOXOXOXOXOXOXOXOXOXOXOXOXOXOXOXOXOXOXOXOXOXOXOXOX",
"OXOXOXOXOXOXOXOXOXOXe t.u.t.N OXOXOXOXOXOXOXOXOXOXOXOXOXOXOXOXOX",
"OXOXOXOXOXOXOXOX6 E J p.c.L.b.t.l.L.L.l.OXOXOXOXOXOXOXOXOXOXOXOX",
"OXOXOXOXOXOXq ~  .Q ! `  XXX{.Q. X.XXX{.l.OXOXOXOXOXOXOXOXOXOXOX",
"OXOXOXOXOX7 x ! o.oX .W Q.XXXXXXXXXXXXXXC.* OXOXOXOXOXOXOXOXOXOX",
"OXOXOXOXOXx.G.d.W X.O.E Y.XXXX{.XXXXXX`.k @ OXOXOXOXOXOXOXOXOXOX",
"OXOXg 7 e K.).{.I.(  .w N.[.'.H.[. X/.S u y @ OXOXOXOXOXOXOXOXOX",
"OXOXM L L r.v.G.].M.W 9 & s j p d k s i y u C Z OXOXOXOXOXOXOXOX",
"OXOXL U R M b b P.d.e 8.$ i y y i t . + u f U.k., OXOXOXOXOXOXOX",
"OXOXT U U n v ] H C u.m.a i y . @ = ; =.;.>.i.t.d./.(.P.a.OXOXOX",
"OXOXL n m g v ] ] 9 0.m.a y . # @.3.n.n.n.4.v.D.S.^.XXXX`.r.OXOX",
"OXOXg OXOX3 4 / ] g 0.m.d t   =.4.7.=.6.4.n.z.{.}.E.].XXXXG.OXOX",
"OXOX| OXOXOXOXv [ g 0.m.a . % 2.n.3.- &.;.6.k.).v.g.`.XXXXP.OXOX",
"OXOXR.OXOXOXOXz [ g ,.w.* X ; 4.n.n.-.&.7.%.S.i.r 5.(.XXXXD.OXOX",
"OXOX_ c h 3 g l [ c s.B.U o @.n.n.n.2.: 7.5.j.N.> 5.`.XX.Xl.OXOX",
"OXOXh S L z / P ) T ~.I W.O &.n.n.n.n.$.;.6.i.(.Z x..XXX[.p.OXOX",
"OXOXL V.R H / { ] V.!.M.A.o %.n.n.n.n.1.%.6.i.|.f.G. XXXS.OXOXOX",
"OXOXL I U z v ] ] g D A s X - n.n.n.n.$.6.6.N d.> >.P.S.OXOXOXOX",
"OXOXL L g 8 g ) ) 9 e.q.@ t # 6.n.n.2.%.7.*.r Z > %.OXOXOXOXOXOX",
"OXOXS I OXOXOXc q x D A & u X = 1.n.&.< < OXOXOXOXOXOXOXOXOXOXOX",
"OXOX8 OXOXOX6 E J ( O...G.B.S b a.u.h.N.OXOXOXOXOXOXOXOXOXOXOXOX",
"OXOXOXOXOX0 G G r.P.Z.+.Y..X_.D./.(.S.OXOXOXOXOXOXOXOXOXOXOXOXOX",
"OXOXOXOXr h.S.p.N.P.T.' K h.OXOXOXOXOXOXOXOXOXOXOXOXOXOXOXOXOXOX",
"OXOXOXOXOXa.I.l._.(.d.2 OXOXOXOXOXOXOXOXOXOXOXOXOXOXOXOXOXOXOXOX",
"OXOXOXOXOXOXl.V D.N.OXOXOXOXOXOXOXOXOXOXOXOXOXOXOXOXOXOXOXOXOXOX",
"OXOXOXOXOXOXOXOXOXOXOXOXOXOXOXOXOXOXOXOXOXOXOXOXOXOXOXOXOXOXOXOX",
"OXOXOXOXOXOXOXOXOXOXOXOXOXOXOXOXOXOXOXOXOXOXOXOXOXOXOXOXOXOXOXOX",
"OXOXOXOXOXOXOXOXOXOXOXOXOXOXOXOXOXOXOXOXOXOXOXOXOXOXOXOXOXOXOXOX",
"OXOXOXOXOXOXOXOXOXOXOXOXOXOXOXOXOXOXOXOXOXOXOXOXOXOXOXOXOXOXOXOX",
"OXOXOXOXOXOXOXOXOXOXOXOXOXOXOXOXOXOXOXOXOXOXOXOXOXOXOXOXOXOXOXOX"
};
