/* XPM */
static char *result[] = {
/* columns rows colors chars-per-pixel */
"32 34 189 2 ",
"   c #3B072FA80E5E",
".  c #3A632FF20DAE",
"X  c #2A633AE21078",
"o  c #2DAB35610FA1",
"O  c #328832BA10AD",
"+  c #3D3333CF1463",
"@  c #33DA3D081158",
"#  c #39523A1D1208",
"$  c #49802EC20F0A",
"%  c #46C92FD90F03",
"&  c #4602367414C4",
"*  c #57843316165B",
"=  c #61E032090E2B",
"-  c #765835A30E15",
";  c #6EB732D9159E",
":  c #6A41348B1D33",
">  c #722139181D74",
",  c #794E359F1473",
"<  c #47282C5C2364",
"1  c #49A634262559",
"2  c #4E5D37EB22E6",
"3  c #476A348E2E32",
"4  c #5140345E2475",
"5  c #5B4E36AE23D5",
"6  c #54643C81240C",
"7  c #58023E50295F",
"8  c #59FF3F542AC7",
"9  c #4A243A3A34EF",
"0  c #47F8390F36B6",
"q  c #63213C1C228A",
"w  c #686D3C9924E7",
"e  c #71F43A102204",
"r  c #2D23436B107A",
"t  c #2EBD496013A4",
"y  c #340543EC1355",
"u  c #302B4959126F",
"i  c #3B9B45FE16E1",
"p  c #4D6B413513E7",
"a  c #469A458519D7",
"s  c #52BD4A151E14",
"d  c #78A648F01EEE",
"f  c #561D4D8C21C4",
"g  c #59C642922A6D",
"h  c #5EBD49402DBC",
"j  c #546B432E2F44",
"k  c #5315442632A0",
"l  c #569642EF3BA5",
"z  c #5E964FB538DF",
"x  c #5BB947B53576",
"c  c #5C9D532D3CFB",
"v  c #6E0044DE2BE4",
"b  c #64084C552E1D",
"n  c #621D4785278F",
"m  c #7CC445F32629",
"M  c #7AD546EA2C15",
"N  c #7D8B4BF32BB7",
"B  c #720D47A82983",
"V  c #6BBD51062F21",
"C  c #625A51EF286B",
"Z  c #78F153B22DD6",
"A  c #61ED4618341B",
"S  c #6E6A45DB3363",
"D  c #66814C1A3808",
"F  c #71E84C5B33E4",
"G  c #6DA0551C32B6",
"H  c #6A9C58C739AA",
"J  c #720C5A533555",
"K  c #765D5CA43A3E",
"L  c #747A567C3338",
"P  c #7C4F64203A3C",
"I  c #4E7242E5419A",
"U  c #59384B8B4A05",
"Y  c #4FFD43CB421B",
"T  c #5A3955DA58DC",
"R  c #596554165715",
"E  c #62454B11428D",
"W  c #623255904192",
"Q  c #6A705397450E",
"!  c #659A5A524217",
"~  c #6B545F574698",
"^  c #7B6B5CC84C8B",
"/  c #6192557252EA",
"(  c #6DA665324A60",
")  c #6F6F67E84C34",
"_  c #7078686A4C66",
"`  c #7FDE6C2554AD",
"'  c #637D620E663A",
"]  c #687766DA6AEC",
"[  c #787D6B3C6894",
"{  c #6DE26DCC72BB",
"}  c #6EEA708175D1",
"|  c #7B04765A7807",
" . c #81A43ACE0DFC",
".. c #8CB83DE50E62",
"X. c #910B3E520EFC",
"o. c #84893A621395",
"O. c #8A983C2010FC",
"+. c #924D40E80EA5",
"@. c #986541120E58",
"#. c #9DDB466F10AF",
"$. c #9EB24B9F1BA5",
"%. c #980B41D912E6",
"&. c #992A581416D2",
"*. c #9B0C59491BC4",
"=. c #AB6D4AAB0E56",
"-. c #B5774E610E58",
";. c #B70250260EFD",
":. c #BD8252D40E7C",
">. c #A72C48C91064",
",. c #AB344B19111E",
"<. c #A0204C4A1AEF",
"1. c #A3905EE31910",
"2. c #B68E500C1098",
"3. c #BEBD53701090",
"4. c #AD2062E114E3",
"5. c #A550613D1ADE",
"6. c #B6DD69A71726",
"7. c #82F44E622C5D",
"8. c #898B4ED72B2D",
"9. c #8EF0520D2A9D",
"0. c #979357D82DBD",
"q. c #81A24D06300E",
"w. c #868D532D344C",
"e. c #8B5A54F3328F",
"r. c #8CC25BFE3AE9",
"t. c #8443565739D9",
"y. c #94CD590D338A",
"u. c #9AF15B853243",
"i. c #92565CBE3955",
"p. c #8B6864043CE7",
"a. c #959B63F03E38",
"s. c #9AC162923A9C",
"d. c #9BBF68603F3E",
"f. c #B4F6612B2A58",
"g. c #A45F69993EAC",
"h. c #AAF16B113D00",
"j. c #A39163E23839",
"k. c #B36568533898",
"l. c #AB6B75DA3F86",
"z. c #BA0474B43EA8",
"x. c #C3E3550D0E3D",
"c. c #C24571A217F5",
"v. c #86935ECC42E0",
"b. c #889D6F6540FC",
"n. c #8B0D69514C1F",
"m. c #9CB26B42417D",
"M. c #989A63FD4105",
"N. c #8BEB70964C6F",
"B. c #979B71AB47BB",
"V. c #82426E64590D",
"C. c #91AA70D45814",
"Z. c #945E7BAC5252",
"A. c #A4976C204292",
"S. c #A9C66D054176",
"D. c #ADBC70DD4483",
"F. c #AD0E77F94DCF",
"G. c #A1617277456E",
"H. c #B33171B941E6",
"J. c #B4AC78424730",
"K. c #B4727A2D4B5E",
"L. c #BC547DE64B82",
"P. c #BD55799B4415",
"I. c #AB0A7A9952D4",
"U. c #8DD77C5D65BC",
"Y. c #C88C7EDB4474",
"T. c #BD6781044CEC",
"R. c #A8CC88025EFB",
"E. c #A11C81A95795",
"W. c #BBA3831051A7",
"Q. c #B55C916F62E6",
"!. c #C43681A54C74",
"~. c #CCC288494F37",
"^. c #C4D0872753F1",
"/. c #C42F89D153E6",
"(. c #C9DC8B5A54FA",
"). c #C7F28BC7583A",
"_. c #CB818F835A80",
"`. c #CEF491A759B1",
"'. c #D2C2925958E0",
"]. c #D85698DF5FD8",
"[. c #DC0C9B455E5F",
"{. c #D6F09449573A",
"}. c #E11C9FDB5F8B",
"|. c #C080920267E1",
" X c #DF6C9EE461A1",
".X c #E0B79ED26270",
"XX c #E4E4A35F6396",
"oX c #89C18B9C9125",
"OX c None",
/* pixels */
"OXOXOXOXOXOXOXOXOXOXOXOXOXOXOXOXOXOXOXOXOXOXOXOXOXOXOXOXOXOXOXOX",
"OXOXOXOXOXOXOXOXOXOXOXOXOXOXOXOXOXOXOXOXOXOXOXOXOXOXOXOXOXOXOXOX",
"OXOXOXOXOXOXOXOXOXOXOXOXOXOXOXOXOXOXOXOXOXOXOXOXOXOXOXOXOXOXOXOX",
"OXOXOXOXOXOXOXOXOXOXOXOXOXOXi.A.K.A.7.OXOXOXOXOXOXOXOXOXOXOXOXOX",
"OXOXOXOXOXOXOXOXOXOXOXOXA._..XXXXXXX`.e.OXOXOXOXOXOXOXOXOXOXOXOX",
"OXOXOXOXOXOXOXOXOXOXOXA..XXXXXXXXXXXXXJ.OXOXOXOXOXOXOXOXOXOXOXOX",
"OXOXOXOXOXOXOXOXOXOXOXK..X.X_.^.'.{.}.(.OXOXOXOXOXOXOXOXOXOXOXOX",
"OXOXOXOXOXOXOXOXOXOXo.$.D.S.$.$.u.!.!.(.OXOXOXOXOXOXOXOXOXOXOXOX",
"OXOXOXOXOXOXOXOXOXOX: ; w.q.; , h.{.S.i.q OXOXOXOXOXOXOXOXOXOXOX",
"OXOXOXOXOXOXOXOXOXOXM r.Q.^.A.y.~. XS.8.u.N OXOXOXOXOXOXOXOXOXOX",
"OXOXOXOXOXOXOXOXOXOXe 7.u.u.y.g.j.f.k.0.P.Z + OXOXOXOXOXOXOXOXOX",
"OXOXOXOXOXOXOXOXOXOX, >.>.>.>.o.>.x.x.<.n y u @ & OXOXOXOXOXOXOX",
"OXOXOXOXOXOXOXOXOX> -.,.o.#.:.-.X.x.x.#.@ u u f m.a.OXOXOXOXOXOX",
"OXOXOXOXOXOXOXOXM.> o.X.>.X.- X.X.,.x.%.@ u C `.XX[.d.OXOXOXOXOX",
"OXOXOXOXOXOXOXA.u.O.,.x.x.x.-.X.- X.x.o.@ i W.XXXXXXT.OXOXOXOXOX",
"OXOXOXOXOXOXOX^.u.:.x.x.x.x.x.x.-.=.-.= r f [.XXXXXXL.OXOXOXOXOX",
"OXOXOXOXOXOXOX^.e.>.x.x.x.x.x.x.x.:.+.. t f `.XXXX}.s.OXOXOXOXOX",
"OXOXOXOXOXOXOXA.B = =.;.x.x.x.x.-.+.$ X t i l.}.XXT.7.OXOXOXOXOX",
"OXOXOXOXOXOXOX^.L X % - +.+.+.- = . X t t a /.}.XX[.z.m OXOXOXOX",
"OXOXOXOXOXOXr..XG.y r X O + O X X r t t r s '.XXXXXXT.8.OXOXOXOX",
"OXOXOXOXOXOXF I.K.* # # Z.E.K & p p p p & & M.I.L. XA.0.OXOXOXOX",
"OXOXOXOXOX< / | [ B 5.m n.F B.5.c.c.c.6.1.5 9 I U ^ e.9.OXOXOXOX",
"OXOXOXOXOXt.I.C.| Z 6.N R.Q.p.&.4.4.6.*.q U ' { ] T D w OXOXOXOX",
"OXOXOXOXa.).K.L.Q x 5 g N.K g g g g 8 B r.n.E { oXT Y OXOXOXOXOX",
"OXOXOXOXS.(.M.7.A 0 ! ( ( ! ) _ ) ( ( x J.{.W.E } ' 3 OXOXOXOXOX",
"OXOXOXOXM g.w.S l l ! ) _ W k c W H ( ( B S.[.r.T R 3 OXOXOXOXOX",
"OXOXOXOXi.L.A.S 3 OXj c W W k 1 OX1 c D v D.(.J.Y 0 OXOXOXOXOXOX",
"OXOXOXOXOXe.i.5 OXOX2 b h h 2 OXOX1 g A n 7.H.h.4 OXOXOXOXOXOXOX",
"OXOXOXOXOXOXv OXOXOXg K P G 6 OXOXOXb J P V q w OXOXOXOXOXOXOXOX",
"OXOXOXOXOXOXOXOXOXG G G b.G j OXOXOXb J J G 4 OXOXOXOXOXOXOXOXOX",
"OXOXOXOXOXOXOXOX6 V G G G h Q U.` g G J J b 8 OXOXOXOXOXOXOXOXOX",
"OXOXOXOXOXOXOXOXOXOXOXOXOXOXV.OXOXOXOXOXOXOXOXOXOXOXOXOXOXOXOXOX",
"OXOXOXOXOXOXOXOXOXOXOXOXOXOXOXOXOXOXOXOXOXOXOXOXOXOXOXOXOXOXOXOX",
"OXOXOXOXOXOXOXOXOXOXOXOXOXOXOXOXOXOXOXOXOXOXOXOXOXOXOXOXOXOXOXOX"
};
