/* XPM */
static char *e539a95c2b5342698bd58a0ef7cbd743m942aUiziTX2FQwV[] = {
/* columns rows colors chars-per-pixel */
"32 32 195 2 ",
"   c #071827",
".  c #0A1A27",
"X  c #091D2C",
"o  c #161E26",
"O  c #1A1F26",
"+  c #121E29",
"@  c #0A1F30",
"#  c #1C2227",
"$  c #16202A",
"%  c #0B2335",
"&  c #0D2639",
"*  c #1E2933",
"=  c #202227",
"-  c #27282B",
";  c #352B29",
":  c #3D322F",
">  c #222E39",
",  c #522312",
"<  c #5D2B16",
"1  c #5E2B19",
"2  c #632E1A",
"3  c #65311B",
"4  c #6A331E",
"5  c #783B18",
"6  c #543227",
"7  c #4B3335",
"8  c #4B3B35",
"9  c #573D33",
"0  c #5D3E30",
"q  c #6D3521",
"w  c #6E3823",
"e  c #6D3B2B",
"r  c #713622",
"t  c #743A25",
"y  c #783C27",
"u  c #743D2C",
"i  c #7A3D29",
"p  c #6B3E35",
"a  c #584438",
"s  c #7B412C",
"d  c #694F34",
"f  c #694439",
"g  c #7A4931",
"h  c #785439",
"j  c #0E2840",
"k  c #102948",
"l  c #122B52",
"z  c #132C5E",
"x  c #3E3958",
"c  c #162A61",
"v  c #1A2B66",
"b  c #203666",
"n  c #363A67",
"m  c #243B7F",
"M  c #2D3B78",
"N  c #473847",
"B  c #543C46",
"V  c #603F45",
"C  c #384676",
"Z  c #5F4042",
"A  c #5A4854",
"S  c #654742",
"D  c #6D584C",
"F  c #795240",
"G  c #7E6250",
"H  c #50506E",
"J  c #655B73",
"K  c #853C15",
"L  c #813F2E",
"P  c #864017",
"I  c #8E461C",
"U  c #81422E",
"Y  c #944B23",
"T  c #9A4F26",
"R  c #854432",
"E  c #894635",
"W  c #884B38",
"Q  c #8F5936",
"!  c #8B513D",
"~  c #925C38",
"^  c #A75527",
"/  c #A85D32",
"(  c #97613F",
")  c #BB6937",
"_  c #C16C3C",
"`  c #8C5B44",
"'  c #855B4A",
"]  c #8B5E4B",
"[  c #935C48",
"{  c #896048",
"}  c #9C6543",
"|  c #9B664A",
" . c #8B6B55",
".. c #A06946",
"X. c #AD724E",
"o. c #B0734E",
"O. c #A06E55",
"+. c #A47157",
"@. c #A37359",
"#. c #B57954",
"$. c #B87C59",
"%. c #A77965",
"&. c #B27E62",
"*. c #AE7A70",
"=. c #C47141",
"-. c #AE826D",
";. c #BB8560",
":. c #B6856B",
">. c #BD8A6B",
",. c #B58D77",
"<. c #B98872",
"1. c #C0845C",
"2. c #CA8C65",
"3. c #C38D6D",
"4. c #D28F63",
"5. c #DA996B",
"6. c #CC997D",
"7. c #D69B74",
"8. c #D69E7C",
"9. c #DCA47E",
"0. c #E0A47A",
"q. c #E2A67B",
"w. c #1F3D8F",
"e. c #1E3E94",
"r. c #233B88",
"t. c #243E94",
"y. c #2E4485",
"u. c #37528E",
"i. c #28469A",
"p. c #38599D",
"a. c #2548A7",
"s. c #3453A5",
"d. c #2B4EB6",
"f. c #264CBB",
"g. c #2A4DBB",
"h. c #384DB7",
"j. c #2E51B6",
"k. c #2D52BC",
"l. c #3255B5",
"z. c #3354BD",
"x. c #3758BE",
"c. c #3D5ABB",
"v. c #3F61B5",
"b. c #42539F",
"n. c #545D93",
"m. c #746485",
"M. c #455EB0",
"N. c #4061AA",
"B. c #4D68BA",
"V. c #2F4FC0",
"C. c #2F52C0",
"Z. c #3154C2",
"A. c #345AC4",
"S. c #3B5BC4",
"D. c #365BCA",
"F. c #3C5FC8",
"G. c #3A63C8",
"H. c #3E6CCB",
"J. c #405BC4",
"K. c #4266C5",
"L. c #4967C4",
"P. c #4364CC",
"I. c #4966CF",
"U. c #4469CD",
"Y. c #4A69D0",
"T. c #506AD2",
"R. c #4C72D2",
"E. c #94889E",
"W. c #B1918C",
"Q. c #C79B85",
"!. c #C99C86",
"~. c #D69F84",
"^. c #CEA490",
"/. c #D7AB95",
"(. c #DDB29D",
"). c #E3AB84",
"_. c #E2AC8B",
"`. c #E6AF8F",
"'. c #EEB394",
"]. c #E6B59B",
"[. c #EAB69B",
"{. c #F1BB9F",
"}. c #E5BDA6",
"|. c #ECBDA3",
" X c #E6C4AF",
".X c #EEC2AD",
"XX c #F1C1A7",
"oX c #F3C4AD",
"OX c #ECC5B4",
"+X c #F4CAB5",
"@X c #F2CABA",
"#X c #F9CEBB",
"$X c #FAD3BF",
"%X c #EED0C0",
"&X c #FAD5C3",
/* pixels */
"q 2 R W E U i i i t t r 4 ` %X&X&X$XQ.i y t w 4 4 2 2 i U s i s ",
"q 2 R E R i i y t t r t ` -.}.+XoXXX>.@.! t r s U t 4 w i U s i ",
"t 4 R R U y t t t t ] ^.@X.X^.oXXX].3.oX].:.W R U i t 4 4 y t t ",
"t 4 i i y t t t t %.OX&X#X.X,.}.].6.:.|.oX{.~.| s i t t 4 t i y ",
"t 3 t t t r r t %.@X$X+X!.' 0 F h f 0 ] 6.'.].W.J A p t 4 w U i ",
"w q q r r r w | OX#X.X%.0 ; O o O o O ; 0 %.E.B.L.N.H u r 3 i s ",
"w u 3 4 w 4 u W.(..X-.6 O               = N M.I.T.L.p.A w 4 4 w ",
"3 3 < w r r %.OXQ.%.9 o             X X X b S.P.I.Y.v.C e s t 4 ",
"3 < < i s s !.#XoX' #             % & & j m x.P.P.R.K.u.f i t r ",
"q 3 < w s ,.OX#X/.9 .           % & & & k r.H.U.F.R.P.p.Z r w w ",
"4 3 3 3 W  X+X+X!.:           X & & & & l w.H.P.S.Y.U.s.B w w 4 ",
"4 3 3 < F .X|.{.Q.8           % & & & & z e.G.G.Z.G.P.s.B w 4 4 ",
"w w < 2 ] |.]._.:.:           % & & & & z t.k.S.Z.k.F.s.B 3 3 3 ",
"E E y 1 u <./.>.{ =         X & & & & & z i.S.S.P.I.I.s.V 4 2 w ",
"W W R 2 w [ [.{.-.-         X & & & & & z i.l.x.x.c.J.i.S i y U ",
"E R R w q ! `.'.:.-         X & & & & & z a.H.A.Z.K.S.i.p i i s ",
"R U R i 4 R _.'.>.;         @ & & & & & z a.G.A.g.A.S.y.p t y i ",
"U i U i 2 s ~.8.&.;         % & & & & & z a.A.Z.g.A.x.y.e t t i ",
"i i i q < t >.;.| ;         % & & & & & z a.f.C.f.Z.z.C e t t t ",
"i t r 1 < w 3.5.1.8         % & & & & & z j.C.Z.Z.c.j.n t t t t ",
"t r 2 < 2 q >.7.2.8         % & & & & & z a.d.k.z.n.s.n w t t t ",
"w 3 < < 2 3 &.0.2.a         & & & & & & c j.G.g.l.l.a.x 4 w t i ",
"4 < < 4 w 3 &.`.8.S .     X & & & & & & c z.U.g.D.S.a.N 3 4 4 t ",
"4 2 w s s s @.3.$.a .     X & & & & & & c k.G.g.D.A.i.N 2 3 4 w ",
"4 4 t s s s +.8.7.D +     X & & & & & & c g.F.f.D.x.t.7 2 2 3 4 ",
"3 4 t t t w O.`.).G +     X & & & & & & v d.Z.f.D.z.t.7 < < 2 3 ",
"3 2 4 w w w | ).). .$     % & & & & & % v z.z.f.g.d.r.6 < < < 2 ",
"q < 4 4 q w [ ).0. .- + $ * > > > > > > n h.V.Z.Z.g.m 6 4 4 w t ",
"t 2 2 4 q q ! 9.0.@.h ` } X.o.o.#.$.$.#.$.*.m.b.c.J.M 6 3 4 4 r ",
"w < , 2 q q W 9.0.4.=.=.) _ _ ) ) ) ) ^ ^ ^ Y d D H N 1 1 2 2 3 ",
"2 1 4 r q r s 7.0.5./ T Y Y Y I I I I P K K 5 d h g i t 4 3 3 3 ",
"3 r R R L y s #.$.#.| ( } } } ....} } } ( ~ Q g g s t t w w w w "
};
