/* XPM */
static char *result[] = {
/* columns rows colors chars-per-pixel */
"30 30 182 2 ",
"   c #37162C3B0D7A",
".  c #39682DD40EF9",
"X  c #2BBE36BC0D96",
"o  c #34CE302D0DA6",
"O  c #3BF42C1310B8",
"+  c #2F6435751005",
"@  c #2D613D6810C0",
"#  c #3A173B5A1272",
"$  c #3B4432B81729",
"%  c #3AD52A9D2749",
"&  c #3EDA32072F92",
"*  c #466A2EE30E02",
"=  c #52E626320F57",
"-  c #3FC4258B1BFB",
";  c #46282BF11C5E",
":  c #4AF3322A1EF8",
">  c #580E3A401E3E",
",  c #650331260E12",
"<  c #7FF03A120ECD",
"1  c #71BD35330ECA",
"2  c #6DEF2B0C1137",
"3  c #64E93C2F1A42",
"4  c #722937870F9E",
"5  c #728B3B0A1E5C",
"6  c #4FB32F3824DC",
"7  c #437C2C5722D9",
"8  c #4BB633972340",
"9  c #4F283C4E2A40",
"0  c #4DCF3282298B",
"q  c #501737452316",
"w  c #55383AD9257A",
"e  c #5ED4396B2680",
"r  c #56FE37712A4E",
"t  c #528B3DB927CE",
"y  c #49A1394F335F",
"u  c #62A53DF923BF",
"i  c #60093CE22A32",
"p  c #75B83E3A20DF",
"a  c #2B4D4349118B",
"s  c #2EA049D613F3",
"d  c #339044411341",
"f  c #3C30428315C9",
"g  c #304049351381",
"h  c #426C449819A5",
"j  c #4BC641411C61",
"k  c #5B0B422926F0",
"l  c #5538408A2825",
"z  c #5B9243812A48",
"x  c #5F0148AE2A98",
"c  c #506F4BBF2630",
"v  c #592250C02967",
"b  c #500C44CA31CE",
"n  c #5D424ECC3903",
"m  c #637544062371",
"M  c #6EA145192770",
"N  c #6AC243C62A35",
"B  c #65814CC22D94",
"V  c #69054A902B57",
"C  c #722640302354",
"Z  c #744148BE2F2C",
"A  c #79374C7A2F70",
"S  c #64EC508B2781",
"D  c #67C950B12F26",
"F  c #6C9A51022E4E",
"G  c #6C9450F62661",
"H  c #63534C1D30BF",
"J  c #6F1F4B9F31D2",
"K  c #694A45B831A5",
"L  c #7B4E4C6632DD",
"P  c #6DDB55043312",
"I  c #750E577430A6",
"U  c #776650083A51",
"Y  c #7DFC53373A66",
"T  c #76D65E5237D9",
"R  c #7D915BBD3F8B",
"E  c #7BD965353AA0",
"W  c #79A466123CF3",
"Q  c #4B4846584761",
"!  c #5141455D4443",
"~  c #5AA94D2E46DA",
"^  c #5387498B4A4B",
"/  c #5B884C8C49BF",
"(  c #5DF25A2E5D0C",
")  c #58DE534255E8",
"_  c #66D34EB74162",
"`  c #64E45AF742AD",
"'  c #646253804BD6",
"]  c #6A5D5E8343E4",
"[  c #7E5C5E8E41E3",
"{  c #645155415282",
"}  c #703469634CA7",
"|  c #6C1861F05BFD",
" . c #6BA96AAD6D79",
".. c #719E720D7751",
"X. c #842938270E26",
"o. c #8C163C0A0E87",
"O. c #914F3DA50E65",
"+. c #82B9359F1053",
"@. c #84F639291303",
"#. c #973C3D10111A",
"$. c #97CF419B0E5B",
"%. c #99A041B60EB4",
"&. c #892A438C1DAB",
"*. c #8F1549551F90",
"=. c #851B4F9B1AF6",
"-. c #975D413811E8",
";. c #9D9A45CF11AA",
":. c #9DC64A601AB6",
">. c #86A953711F37",
",. c #9732580C1D77",
"<. c #9AFE5DDB1657",
"1. c #A088465F0F59",
"2. c #B4D14E070F8B",
"3. c #BCC252820F0B",
"4. c #A39B48881170",
"5. c #AAA949D2140B",
"6. c #A0DC45FE1498",
"7. c #B2A94D830FEB",
"8. c #B9CC50E01060",
"9. c #B4DB521017DD",
"0. c #A20A60E614D7",
"q. c #BA326B8F195C",
"w. c #814A49D724A1",
"e. c #85A74DA52980",
"r. c #85F9458723F9",
"t. c #8C8E518E2B35",
"y. c #9AF558BE286C",
"u. c #8278556536ED",
"i. c #80595A6A319B",
"p. c #841455D6398A",
"a. c #868857F43C18",
"s. c #8DAA5CDF3B34",
"d. c #8E11583434C6",
"f. c #92585A0C3634",
"g. c #9BE75C25322C",
"h. c #920D59593950",
"j. c #B54D5A22220F",
"k. c #84656A143DBC",
"l. c #877F66133C4F",
"z. c #965062303D36",
"x. c #985A62273A90",
"c. c #A389658B3AE6",
"v. c #AAB869893C0E",
"b. c #B49F70433BBB",
"n. c #C3F654DC0E59",
"m. c #C08A54AA103E",
"M. c #838965DA472A",
"N. c #9EB36A9142BA",
"B. c #906171D84D7F",
"V. c #919A6A8C5096",
"C. c #9D4D7A6B52A9",
"Z. c #A5066F514390",
"A. c #AA0F70E042E1",
"S. c #ACCA75154CB5",
"D. c #A364745546DA",
"F. c #B16C77A74A2F",
"G. c #B4507C274C01",
"H. c #BC487C664ABA",
"J. c #BAB876CB430C",
"K. c #C2767AE64306",
"L. c #C8BD7FE1454B",
"P. c #BADD81D24FB7",
"I. c #A3E580BD5521",
"U. c #BC79835D52B4",
"Y. c #B91F83C857EC",
"T. c #C9F084F44B22",
"R. c #CD6089D64F56",
"E. c #C1B2862C53F2",
"W. c #C6E08A7C5625",
"Q. c #CB098AD95416",
"!. c #CA6186915131",
"~. c #D2D38E5F53B5",
"^. c #CED1916D5AAE",
"/. c #D24290825781",
"(. c #D3BB951B5B96",
"). c #D8E997B15B6C",
"_. c #DE4A9C985DEA",
"`. c #E0849C375DA0",
"'. c #DC849C315FE2",
"]. c #E0D29F165FEC",
"[. c #E460A2D862FE",
"{. c None",
/* pixels */
"{.{.{.{.{.{.{.{.{.{.{.{.{.{.{.{.{.{.{.{.{.{.{.{.{.{.{.{.{.{.",
"{.{.{.{.{.{.{.{.{.{.{.{.{.{.{.A.H.F.z.{.{.{.{.{.{.{.{.{.{.{.",
"{.{.{.{.{.{.{.{.{.{.{.{.{.F.(.[.[.[.).h.{.{.{.{.{.{.{.{.{.{.",
"{.{.{.{.{.{.{.{.{.{.{.{.U.[.[.[.[.[.[.U.{.{.{.{.{.{.{.{.{.{.",
"{.{.{.{.{.{.{.{.{.{.{.d.).Q.H.Q.~.`.[.(.{.{.{.{.{.{.{.{.{.{.",
"{.{.{.{.{.{.{.{.{.{.{.&.f.:.6.g.L.K.E./.e.{.{.{.{.{.{.{.{.{.",
"{.{.{.{.{.{.{.{.{.{.{.L L 5 p J.`.H.f.v.C {.{.{.{.{.{.{.{.{.",
"{.{.{.{.{.{.{.{.{.{.{.Y.(.H.c.Q.Q.H.g.g.x.m {.{.{.{.{.{.{.{.",
"{.{.{.{.{.{.{.{.{.{.@.r.*.&.r.y.9.j.g.y.G d # {.{.{.{.{.{.{.",
"{.{.{.{.{.{.{.{.{.{.6.+.4.8.5.5.n.8.3 f g f j > {.{.{.{.{.{.",
"{.{.{.{.{.{.{.{.{.2 @.;.X.O.7.#.n.;.# s h D.^.^.A.{.{.{.{.{.",
"{.{.{.{.{.{.{.{.{.+.8.n.3.%.+.+.3.1 @ s I ].[.[._.f.{.{.{.{.",
"{.{.{.{.{.{.{.{.{.-.n.n.n.n.1.o.4.* a d l.[.[.[.[.c.{.{.{.{.",
"{.{.{.{.{.{.{.{.{.@.n.n.n.n.3.7.1 X s d i.[.[.[._.g.{.{.{.{.",
"{.{.{.{.{.{.{.{.{.= 4.3.n.3.2.X.. a g g m Q.[.[.T.t.{.{.{.{.",
"{.{.{.{.{.{.{.{.{.  * X.%.o.,   a s g f P./._.[.K.w.{.{.{.{.",
"{.{.{.{.{.{.{.{.{.O @ + .   X a s g g B _.[.[.[./.e.{.{.{.{.",
"{.{.{.{.{.{.{.{.{.{.$ c W v d d d d d I [.[.[.[.Q.w.{.{.{.{.",
"{.{.{.{.{.{.{.{.{.6 7 [ [ C.e.0.<.>.: e E.^.W.).b.{.{.{.{.{.",
"{.{.{.{.{.{.{.{.Z a.e [ C.C.<.q.y.3 & ! Y F.Q.T.t.{.{.{.{.{.",
"{.{.{.{.{.{.{.{.u.u.r M.B.k e 3 [ ^ ) Q { V.A.t.{.{.{.{.{.{.",
"{.{.{.{.{.{.{.p.S.Y K n ] ` ` J U ( ..{ ^ ) / 0 {.{.{.{.{.{.",
"{.{.{.{.{.{.{.{.s.U.Y n } ` 9 N z.'  .| { ! % {.{.{.{.{.{.{.",
"{.{.{.{.{.{.{.{.p.z.s.z ` ` b 9 N N._ / / y $ {.{.{.{.{.{.{.",
"{.{.{.{.{.{.{.{.{.A E.J t x H t ; M d.Z 8 - {.{.{.{.{.{.{.{.",
"{.{.{.{.{.{.{.{.{.{.u w k E W x q V J V x 8 {.{.{.{.{.{.{.{.",
"{.{.{.{.{.{.{.{.{.{.P l.k.k.E k P D T E l {.{.{.{.{.{.{.{.{.",
"{.{.{.{.{.{.{.{.{.H k B B D B z P P P B l {.{.{.{.{.{.{.{.{.",
"{.{.{.{.{.{.{.{.{.{.{.{.{.{.{.{.{.{.{.{.{.{.{.{.{.{.{.{.{.{.",
"{.{.{.{.{.{.{.{.{.{.{.{.{.{.{.{.{.{.{.{.{.{.{.{.{.{.{.{.{.{."
};
