/* XPM */
static char *result[] = {
/* columns rows colors chars-per-pixel */
"30 30 182 2 ",
"   c #36EF2C470D79",
".  c #39032DE20EFB",
"X  c #2B9736FD0D9C",
"o  c #344F30640DA3",
"O  c #3DE528C11654",
"+  c #2F3235AA1016",
"@  c #2D533D9310C6",
"#  c #39EC3B65127D",
"$  c #3B5A32A91742",
"%  c #3AB62A4426C7",
"&  c #3EAD32363001",
"*  c #46152EE40E00",
"=  c #525F26140F50",
"-  c #46272BF81C57",
";  c #4A9132001F0E",
":  c #58D83A9C1E9C",
">  c #650731270E12",
",  c #7F2A39CF0EC7",
"<  c #71BD35330ECA",
"1  c #6DEE2B0C1138",
"2  c #64453C1B1A41",
"3  c #708D370C0F99",
"4  c #72C43B681EB7",
"5  c #4FB32F3724DD",
"6  c #43792C4122AF",
"7  c #4BB633972327",
"8  c #4F223C402A34",
"9  c #4D7A32412952",
"0  c #501637442316",
"q  c #55443AE1257A",
"w  c #5EE2396D2671",
"e  c #56DE37682A4E",
"r  c #54553EDD2830",
"t  c #5B5C3F87292B",
"y  c #49A1394F335F",
"u  c #623C3DCE23D2",
"i  c #60073CE12A31",
"p  c #75E73E832129",
"a  c #2B6343901197",
"s  c #2EA549DD13F6",
"d  c #33B5442D1342",
"f  c #3C1B427F15CF",
"g  c #3043492B1380",
"h  c #42B744A619C4",
"j  c #4CBC41801CC2",
"k  c #596141E6267A",
"l  c #5482411927DC",
"z  c #5C6644B229E7",
"x  c #57D84AA42906",
"c  c #59AA510D29AD",
"v  c #500C44CB31CE",
"b  c #5D3E4ED03905",
"n  c #63DC444023A0",
"m  c #6E8145182771",
"M  c #6AF343E22A40",
"N  c #65AB4CFA2DE7",
"B  c #69064A902B57",
"V  c #71F2401A2357",
"C  c #74B649072F4C",
"Z  c #79424C842F73",
"A  c #653950AE27A4",
"S  c #676B504C2EF3",
"D  c #6CE851492E78",
"F  c #6BF550D12639",
"G  c #62524B68313D",
"H  c #6E9949FE2FFB",
"J  c #695B45C7319B",
"K  c #7BDE4D023359",
"L  c #70744D8C33BB",
"P  c #6DF2551D3329",
"I  c #77D0570330D2",
"U  c #77F550763A86",
"Y  c #7E3653693A89",
"T  c #770A5E8B37FB",
"R  c #7AB857DC37C1",
"E  c #7BED654B3AAA",
"W  c #7EA268BC3BD2",
"Q  c #75FC644A3EF0",
"!  c #4B4846584761",
"~  c #515B458F4476",
"^  c #5A9A4D2246D1",
"/  c #5380499F4A70",
"(  c #5B054C26497D",
")  c #5E465A8F5D70",
"_  c #589D530455AD",
"`  c #66804EA1417B",
"'  c #64E25AF742AF",
"]  c #6462538B4BDC",
"[  c #6A825EC8441D",
"{  c #7E605D8340FB",
"}  c #64AE55665286",
"|  c #703D695D4CA4",
" . c #6C1261DA5BD7",
".. c #6B8E6A836D3A",
"X. c #71AE7223775E",
"o. c #83F5380A0E1F",
"O. c #8C6C3C330E85",
"+. c #91AB3DD10E6A",
"@. c #82D135AB1052",
"#. c #84FE392F12FE",
"$. c #972F3D08111C",
"%. c #97DC419D0E5D",
"&. c #99D541D20EB6",
"*. c #87FF457B1E9E",
"=. c #89B0428A1D2F",
"-. c #8F0E494C1F84",
";. c #84AC4F581AFF",
":. c #978D415311ED",
">. c #9D4B45B311AA",
",. c #9DFB4A511A7D",
"<. c #86A953721F38",
"1. c #96E057C51D54",
"2. c #9AFE5DDB1657",
"3. c #A10A469B0F5A",
"4. c #B5F24E980F8D",
"5. c #BCB5527C0F0C",
"6. c #A38A487E116A",
"7. c #ACBF4AE212A4",
"8. c #A0B945F91491",
"9. c #B0B34CAC1044",
"0. c #B9D850E6105E",
"q. c #B4DB521017DD",
"w. c #A20360E414D1",
"e. c #B9556B021967",
"r. c #80EA49992483",
"t. c #852B4D4D2951",
"y. c #88814AA8280C",
"u. c #8D1A52AA29F5",
"i. c #9AD858A32872",
"p. c #85CD573B3704",
"a. c #8F8059FB355E",
"s. c #8395556A39E2",
"d. c #86EF583D3ABA",
"f. c #8DE25D143B56",
"g. c #875158D2332B",
"h. c #922859DC360F",
"j. c #9BE25C303234",
"k. c #91DE591A390D",
"l. c #B5105A27223E",
"z. c #84AA6A663DE9",
"x. c #80CC663E3C42",
"c. c #94B863683D35",
"v. c #9895625A3AAD",
"b. c #A36065723AD5",
"n. c #AA57692E3BCE",
"m. c #B4A070453BBC",
"M. c #C3F354DB0E57",
"N. c #C08A54AB103E",
"B. c #838865DA4729",
"V. c #9E646A6942B8",
"C. c #8FEF71634D29",
"Z. c #919C6A8E5096",
"A. c #9D747A8952B3",
"S. c #A5056F514391",
"D. c #AA8E7138430E",
"F. c #ACA374F74CA4",
"G. c #A361745346D9",
"H. c #B2F87AFC4B63",
"J. c #BB117C2B4AFB",
"K. c #BBE677E143C6",
"L. c #C2717AEE4317",
"P. c #C8BD7FE0454B",
"I. c #BADE81D24FB8",
"U. c #A3D380A654FB",
"Y. c #B91C8254558F",
"T. c #C983847A4ABF",
"R. c #CD3689AB4F34",
"E. c #C3158698532E",
"W. c #C9CC85DE50AA",
"Q. c #C6FC8A9B5639",
"!. c #CB848B635446",
"~. c #D2C38E4A53A4",
"^. c #CEB991465A86",
"/. c #D24390845783",
"(. c #D3B295115B92",
"). c #D90497B35B5D",
"_. c #DEE79C465D11",
"`. c #E07E9C295D94",
"'. c #DD459D1F6002",
"]. c #E0ED9F326006",
"[. c #E461A2D962FD",
"{. c None",
/* pixels */
"{.{.{.{.{.{.{.{.{.{.{.{.{.{.{.{.{.{.{.{.{.{.{.{.{.{.{.{.{.{.",
"{.{.{.{.{.{.{.{.{.{.{.{.{.{.{.{.{.{.{.{.{.{.{.{.{.{.{.{.{.{.",
"{.{.{.{.{.{.{.{.{.{.{.{.{.{.{.{.{.{.{.{.{.{.{.{.{.{.{.{.{.{.",
"{.{.{.{.{.{.{.{.{.{.{.{.{.{.{.{.{.{.{.{.{.{.{.{.{.{.{.{.{.{.",
"{.{.{.{.{.{.{.{.{.{.{.{.r.y.r.y.v.n.h.{.{.{.{.{.{.{.{.{.{.{.",
"{.{.{.{.{.{.{.{.{.{.u.m.!.~.L.T.`.[._.S.{.{.{.{.{.{.{.{.{.{.",
"{.{.{.{.{.{.{.{.9 u.T.).[.[.[.[.[.[.[.^.: {.{.{.{.{.{.{.{.{.",
"{.{.{.{.{.{.O % ( D.!.Q.[.[.].[.[.[.[.^.j # {.{.{.{.{.{.{.{.",
"{.{.{.{.6 - y ~ _ Z.F.(.[.[./.W.[.[.[.G.f d n {.{.{.{.{.{.{.",
"{.{.l l z 0 ^ ] / } Y E.[.'.I.n I c.I h g F v.p t.{.{.{.{.{.",
"{.{.N E B C ( ..) ! ~ t I S f s d g d g f j.j.n././.Y.v.{.{.",
"{.{.S T D h.G ..X._ & ; d s s s s a @ # 2 i.v.h.Q.[.[.(.v.{.",
"{.{.P P B m V.] ) / 2 <.d g s a + * < >.4.l.J.J.L._.[.[.H.{.",
"{.{.P P 0 ; M v.U R i.2.d s @ . < 3.0.5.N.q.W._.P.~.[.[.J.{.",
"{.{.z k z q 8 M H 2 e.w.d a   , 9.O.@.$.7.i.~.K.j./.[.[.D.{.",
"{.{.n W T b v r ' u 1.<.f X > 9.N.3.@.9.7.y.b.p >.J.[.(.{.{.",
"{.{.S z.E G ' ' ' z A.A.c . O.5.M.M.%.O.0.*.J.4 ,.W.].H.{.{.",
"{.{.N x.z q ' | [ C.A.{ | . %.M.M.M.5.o.6.-.^.K k.).E.{.{.{.",
"{.{.G z.q J x b b B.{ { x + o.M.M.M.M.>.@.y.Y.K =.a.{.{.{.{.",
"{.{.z D u E.f.R J e w 6 . @ * 6.M.M.5.O.8.#.{.{.{.{.{.{.{.{.",
"{.{.G {.{.K v.Y.s.s.d.5 {.O   = @.$.@.1 {.{.{.{.{.{.{.{.{.{.",
"{.{.{.{.{.{.d.f.F.d.C {.{.{.{.{.{.{.{.{.{.{.{.{.{.{.{.{.{.{.",
"{.{.{.{.{.{.{.{.p.{.{.{.{.{.{.{.{.{.{.{.{.{.{.{.{.{.{.{.{.{.",
"{.{.{.{.{.{.{.{.{.{.{.{.{.{.{.{.{.{.{.{.{.{.{.{.{.{.{.{.{.{.",
"{.{.{.{.{.{.{.{.{.{.{.{.{.{.{.{.{.{.{.{.{.{.{.{.{.{.{.{.{.{.",
"{.{.{.{.{.{.{.{.{.{.{.{.{.{.{.{.{.{.{.{.{.{.{.{.{.{.{.{.{.{.",
"{.{.{.{.{.{.{.{.{.{.{.{.{.{.{.{.{.{.{.{.{.{.{.{.{.{.{.{.{.{.",
"{.{.{.{.{.{.{.{.{.{.{.{.{.{.{.{.{.{.{.{.{.{.{.{.{.{.{.{.{.{.",
"{.{.{.{.{.{.{.{.{.{.{.{.{.{.{.{.{.{.{.{.{.{.{.{.{.{.{.{.{.{.",
"{.{.{.{.{.{.{.{.{.{.{.{.{.{.{.{.{.{.{.{.{.{.{.{.{.{.{.{.{.{."
};
