/* XPM */
static char *_e67615a236a40a4b34d762541cd8735UyJdBTkZan83m1Pc[] = {
/* columns rows colors chars-per-pixel */
"32 32 196 2 ",
"   c #362E0D",
".  c #392E0F",
"X  c #2C370E",
"o  c #34300D",
"O  c #2F3510",
"+  c #2D3D10",
"@  c #3D3614",
"#  c #3D2B26",
"$  c #3E3230",
"%  c #462E0E",
"&  c #402A10",
"*  c #4C2D15",
"=  c #4B2D1D",
"-  c #542513",
";  c #572813",
":  c #5D2C16",
">  c #5E2C19",
",  c #48371C",
"<  c #5E311B",
"1  c #65310E",
"2  c #71360F",
"3  c #7F390E",
"4  c #602E17",
"5  c #632E1A",
"6  c #6E3017",
"7  c #65311B",
"8  c #6A331E",
"9  c #643C1A",
"0  c #753519",
"q  c #723C1F",
"w  c #442C21",
"e  c #562F21",
"r  c #4F3426",
"t  c #4F3C2A",
"y  c #523525",
"u  c #5E3622",
"i  c #543D26",
"p  c #5F3A23",
"a  c #593B2A",
"s  c #4B3932",
"d  c #623521",
"f  c #6E3521",
"g  c #633A23",
"h  c #6E3924",
"j  c #673E2B",
"k  c #713622",
"l  c #753A25",
"z  c #783B27",
"x  c #753E28",
"c  c #7A3D29",
"v  c #2B4311",
"b  c #2E4913",
"n  c #334413",
"m  c #3C4216",
"M  c #304913",
"N  c #424419",
"B  c #4C411C",
"V  c #564026",
"C  c #5B4127",
"Z  c #5B442B",
"A  c #584B29",
"S  c #595129",
"D  c #504431",
"F  c #5C4F37",
"G  c #5D4A3C",
"H  c #664324",
"J  c #6E4527",
"K  c #604729",
"L  c #6C432A",
"P  c #654B2D",
"I  c #6A4B2D",
"U  c #7E4425",
"Y  c #73422B",
"T  c #7C412B",
"R  c #75482F",
"E  c #7B4A2E",
"W  c #655027",
"Q  c #6B5026",
"!  c #6F502E",
"~  c #694531",
"^  c #614C30",
"/  c #764531",
"(  c #704D33",
")  c #7B4A34",
"_  c #6D5433",
"`  c #775730",
"'  c #765B34",
"]  c #77503A",
"[  c #7E533A",
"{  c #7E573B",
"}  c #7C653A",
"|  c #7A663D",
" . c #4B4647",
".. c #524542",
"X. c #544A4A",
"o. c #5B4C49",
"O. c #5A5558",
"+. c #654C41",
"@. c #6A4E43",
"#. c #634F48",
"$. c #645A42",
"%. c #6A5E44",
"&. c #7E5D41",
"*. c #635856",
"=. c #725951",
"-. c #70694C",
";. c #6C696B",
":. c #717277",
">. c #80370F",
",. c #83380E",
"<. c #8C3C0E",
"1. c #913D0E",
"2. c #813614",
"3. c #843911",
"4. c #923D14",
"5. c #803E2D",
"6. c #97410E",
"7. c #99410E",
"8. c #89421D",
"9. c #864A1C",
"0. c #8F491F",
"q. c #974111",
"w. c #9D4512",
"e. c #9D4A1A",
"r. c #86531F",
"t. c #985A1A",
"y. c #A1460F",
"u. c #B44D0F",
"i. c #BA510F",
"p. c #A34811",
"a. c #AB4A14",
"s. c #B04C10",
"d. c #B45217",
"f. c #B95010",
"g. c #A26014",
"h. c #B96B19",
"j. c #834425",
"k. c #81422E",
"l. c #834B2E",
"z. c #884E29",
"x. c #9A5828",
"c. c #854431",
"v. c #8A4735",
"b. c #854934",
"n. c #8C4836",
"m. c #885031",
"M. c #865835",
"N. c #84553A",
"B. c #8D5C3A",
"V. c #925735",
"C. c #935837",
"Z. c #9B5C32",
"A. c #B55A22",
"S. c #82663B",
"D. c #846B3F",
"F. c #94643D",
"G. c #9B613B",
"H. c #A2643B",
"J. c #AA693B",
"K. c #B26E3B",
"L. c #C3550E",
"P. c #C05410",
"I. c #836547",
"U. c #9E6A42",
"Y. c #8F714D",
"T. c #9D794F",
"R. c #916A50",
"E. c #9D7B55",
"W. c #A36A41",
"Q. c #A37446",
"!. c #AC7144",
"~. c #AC754C",
"^. c #BB7743",
"/. c #B47D4C",
"(. c #BB7C4A",
"). c #B37E54",
"_. c #C27B43",
"`. c #C87F45",
"'. c #A38054",
"]. c #BC8353",
"[. c #C9844A",
"{. c #CD894F",
"}. c #C18653",
"|. c #C98651",
" X c #C78A56",
".X c #CB8B54",
"XX c #D28E54",
"oX c #CF915A",
"OX c #D3955B",
"+X c #D9975B",
"@X c #DE9C5D",
"#X c #E09C5D",
"$X c #DD9D60",
"%X c #E09F60",
"&X c #E2A162",
"*X c #E4A363",
/* pixels */
"7 5 c.n.v.5.c z l l k k 8 c c z l l l l z l 8 8 8 5 5 c T T c x ",
"8 5 c.v.c.c c z l l k f 8 l l l l l l l l l k T k.k 8 f c k.T c ",
"k 8 c.c.k.z l l l k f 8 7 8 l l l l l l l k c c.k.c l 8 8 z l l ",
"k 8 c c z l l l k k 8 8 7 8 l l z l z l l c c.c.T c x l 8 k c l ",
"k 7 l l l k k k f 8 8 7 5 7 l z l l l l c c.c.T c z x x 8 f k.c ",
"f f f k k f f f 8 8 8 7 8 q U U j.V.Z.m.T c.k.c c z l l k 7 c T ",
"f x f h f 8 8 8 8 7 8 z.K.{.XX_.[.@X&X@XW.T c c z z l l f 8 8 8 ",
"5 7 7 Y k f k h d y z.[.+X*X*X&X*X*X*X*XoXp x z l l l k l T x 8 ",
"5 : < / T x h = # o.!..X X*X*X%X&X*X*X*XoXB , k l l l c c c x h ",
"8 7 7 L h u = s ..O.R.~.OX*X*XXX|.&X*X&XQ.m n H x l l l l k f f ",
"8 7 g i V Z r G @.X.*.[ }.&X$X/.H M.F.` N n Q H.l T T k k f f 8 ",
"7 7 g P } I R +.=.*. ...j ` W N M M n M M m Z.Z.J.XXoX/.l.k 8 8 ",
"8 f d P ' ! V.+.;.:.O.$ = n M b b b v + @ 9 Z.Z.C. X*X&XoXl.7 7 ",
"c.v./ _ _ P J U.#.O.X.g 9.n b b v X % 2 w.f.A.(.(._.#X*X*XW.8 f ",
"v.n.) _ _ y = L F.] [ x.t.n b + . 2 p.i.P.L.d.|.@X`.XX*X*X!.z k.",
"c.c.) Z C Z i t L ( 9 h.g.n v   3 u.<.3.q.a.x..X^.Z..X*X&XG.c c ",
"k.k.) K } } ^ D t $.g t.r.n X 1 u.L.y.>.s.a.j.H.l w.(.*XOXl.z c ",
"c c / I D.} ^ $.$.%.a T.'.S o <.L.L.L.7.1.u.8.(.q e.|.&XW.x l z ",
"c c Y P S.C i $.-.%.Y.E.{ | . 6.L.L.L.i.,.p.0.oX) C.+X/.T k l l ",
"l l j P S.u I Z F F I.&.&.A O 3 L.L.L.L.w.3.8.).) 8.l.x k l k k ",
"k k g C I g ].B.[ ~ a p w @ + % p.L.L.f.3.w.0 8 8 6 8 8 f k l k ",
"8 7 d g < 7 Y F.].N.N.N.e > * & ; 2.4.2.6 0 8 : 5 5 7 8 8 f k x ",
"7 ; 7 Y h 7 > E B.~.N.L > > > 8 T T l k x l k 7 : 4 7 7 7 8 8 l ",
"7 5 x ) T T f 7 8 E d 7 : ; 5 k c x k k k l k 8 5 : 5 5 5 7 8 f ",
"7 8 Y E T T x x x x x k 8 : 5 8 k k l c T T T x f : : : 5 5 7 7 ",
"7 8 k x l k f f h k k h 8 > 5 8 l T T T c T c l k f 5 : : : 5 5 ",
"5 5 8 f f 8 8 8 8 8 8 8 8 5 ; f c c l k k k k f 8 8 7 : : : : 5 ",
"8 : 8 8 f f f f 8 8 8 8 8 8 7 7 k k k k k k k f 8 8 7 5 8 8 f l ",
"k 5 5 8 f k f f f 8 8 f k k h ; : 8 8 k f f f f 8 8 : : 5 8 8 k ",
"8 ; - 5 f f f f f 8 f f 8 7 7 ; 8 x k 8 5 5 5 8 8 5 : : : 5 5 5 ",
": > f k f k f 8 8 5 5 > 5 5 7 f c.b.b.k.l : 8 k x c c x 8 7 7 5 ",
": k c.c.5.z l z l 8 > - 8 f c c.c.k.T k.T 7 5 f c x l k f 8 8 8 "
};
