/* XPM */
static char *_fbeb7980e2b454faf5d888189d4382bQ5XsC6p1aaCrd5u8[] = {
/* columns rows colors chars-per-pixel */
"32 32 192 2 ",
"   c #362E0D",
".  c #392D0F",
"X  c #2C360E",
"o  c #34300D",
"O  c #2F3510",
"+  c #2D3D10",
"@  c #3C3A10",
"#  c #3F3318",
"$  c #3C2B27",
"%  c #3E322F",
"&  c #462E0E",
"*  c #452D13",
"=  c #4B2E1D",
"-  c #542513",
";  c #5D2C16",
":  c #542E1E",
">  c #5E2C18",
",  c #48371B",
"<  c #59361D",
"1  c #65310E",
"2  c #72360F",
"3  c #7F3A0E",
"4  c #632E1A",
"5  c #6A3117",
"6  c #66311C",
"7  c #6A331E",
"8  c #653C1A",
"9  c #75381E",
"0  c #442C22",
"q  c #4F3427",
"w  c #4F3C2A",
"e  c #503424",
"r  c #5C3422",
"t  c #523C26",
"y  c #5C3C27",
"u  c #593B2A",
"i  c #4C3A32",
"p  c #643522",
"a  c #6D3521",
"s  c #633B23",
"d  c #6C3A24",
"f  c #633E2A",
"g  c #6D3E29",
"h  c #713623",
"j  c #753A25",
"k  c #783B27",
"l  c #763C29",
"z  c #7B3D29",
"x  c #2B4311",
"c  c #2E4913",
"v  c #334413",
"b  c #3C4215",
"n  c #304913",
"m  c #424419",
"M  c #4B411C",
"N  c #574027",
"B  c #5C4127",
"V  c #5C452A",
"C  c #574A29",
"Z  c #595029",
"A  c #504431",
"S  c #5D4F39",
"D  c #694626",
"F  c #6C432B",
"G  c #664C2E",
"H  c #6B4A2C",
"J  c #7D4425",
"K  c #74442B",
"L  c #7C412C",
"P  c #74482F",
"I  c #7F4A2C",
"U  c #645027",
"Y  c #6C5026",
"T  c #6F512E",
"R  c #614B30",
"E  c #6C4932",
"W  c #724731",
"Q  c #7B4B32",
"!  c #6E5432",
"~  c #755730",
"^  c #765E37",
"/  c #77503A",
"(  c #7E533A",
")  c #7D5B3F",
"_  c #74633E",
"`  c #7C653A",
"'  c #7E683B",
"]  c #4B4647",
"[  c #524443",
"{  c #5F4A41",
"}  c #544949",
"|  c #5B4C49",
" . c #5A5558",
".. c #634D43",
"X. c #694F43",
"o. c #645A42",
"O. c #6A5E43",
"+. c #6E574E",
"@. c #7E5E41",
"#. c #625856",
"$. c #70694C",
"%. c #6B696B",
"&. c #717277",
"*. c #80370F",
"=. c #84380E",
"-. c #8C3C0E",
";. c #913D0E",
":. c #843617",
">. c #843911",
",. c #813A1D",
"<. c #943E16",
"1. c #803E2D",
"2. c #97410E",
"3. c #99410E",
"4. c #87401B",
"5. c #89441E",
"6. c #854F1A",
"7. c #8F491F",
"8. c #974111",
"9. c #9E4513",
"0. c #9D4A1A",
"q. c #86531F",
"w. c #9A5D16",
"e. c #97581D",
"r. c #A0460F",
"t. c #B44E0F",
"y. c #BA510F",
"u. c #A34811",
"i. c #AB4A14",
"p. c #B04C10",
"a. c #B45217",
"s. c #B95110",
"d. c #A26014",
"f. c #BA6B19",
"g. c #874A27",
"h. c #81422E",
"j. c #834A2D",
"k. c #9A5928",
"l. c #854431",
"z. c #8A4735",
"x. c #854C32",
"c. c #8C4836",
"v. c #825437",
"b. c #805A31",
"n. c #8F5935",
"m. c #84553A",
"M. c #8D5B3A",
"N. c #955731",
"B. c #935837",
"V. c #9B5C32",
"C. c #965C39",
"Z. c #B55A22",
"A. c #81663B",
"S. c #89693E",
"D. c #96623E",
"F. c #9D663E",
"G. c #A2643A",
"H. c #AA693C",
"J. c #B26E3B",
"K. c #C3550E",
"L. c #C05410",
"P. c #836547",
"I. c #9E6A42",
"U. c #90714D",
"Y. c #916A50",
"T. c #9D7A52",
"R. c #A56B42",
"E. c #AA6F46",
"W. c #A77344",
"Q. c #AD754D",
"!. c #BA7643",
"~. c #B47C4C",
"^. c #BE7C49",
"/. c #BB7C4C",
"(. c #B37E53",
"). c #C27B43",
"_. c #C87F45",
"`. c #A38055",
"'. c #BC8253",
"]. c #CA854B",
"[. c #CD894F",
"{. c #C58652",
"}. c #C78A56",
"|. c #CB8A54",
" X c #D28E54",
".X c #CE915A",
"XX c #D2935A",
"oX c #D8975B",
"OX c #DE9C5E",
"+X c #E09E5E",
"@X c #E3A262",
"#X c #E4A363",
/* pixels */
"6 4 l.c.z.1.z k j j j h 7 z z k j j j j k j 7 7 7 4 4 z L L z j ",
"7 4 l.z.l.z z k j j h a 7 j j k j j j j j j h L h.j 7 a L h.L z ",
"h 7 l.l.h.k j j j h a 7 6 7 k j.C.E.R.x.j h z l.h.z j 7 7 k j j ",
"h 7 z z k j j h h h 7 7 6 j R.XX@X#X#XXXx.z l.l.L z j j 7 j z j ",
"h 6 j j j h h h a 7 7 6 d ~.@X#X#X#X#X@X~.l.l.L z k j j 7 a h.z ",
"a a a h h h a a 7 7 7 6 I oX|.^.|. X+X#XXXx.h.z z k j j h 6 z L ",
"a l 6 7 a 7 7 7 7 7 7 5 4.B.0.9.V._.).}. Xj.z z k k j j a 7 7 7 ",
"4 6 ; a h h j h h a 6 6 Q Q 9 j !.OX/.B.H.j z k j j j h j L j 7 ",
"4 ; ; z L z j j d 6 ; 6 (..X/.G.|.[.^.V.V.G.s j j j j z z z j d ",
"7 6 ; a j h h 7 6 4 j ,.5.7.5.g.k.a.Z.V.V.Y v , d j j j j h a a ",
"7 6 6 6 7 7 6 7 j l.h.9.>.u.s.i.i.K.s.8 b v b M < j j h h a a 7 ",
"6 6 6 ; ; a k z l.c.9 >.9.=.;.p.8.L.9.@ n m W..X.XF.j h 7 a 7 7 ",
"7 a ; 4 4 z l.l.l.h.:.s.K.y.3.*.>.y.2 + n ~ @X#X#XOXj.7 4 6 6 6 ",
"l.z.k > 4 z h.1.1.z <.K.K.K.K.r.-.u.& x v S.#X#X#X@XV.j k 7 4 a ",
"z.c.l.4 a k k z z k :.K.K.K.K.K.t.2 X c n b.@X#X#XOXN.z z z k h.",
"l.l.l.a a l k k k j ; u.K.K.K.t.3 . x c n D |.@X#X].J k z z z z ",
"h.h.l.z 7 h j j j j * & 3 2.-.1   + c c m ~. X+X@X).J j j k k z ",
"z z h.z 4 a h h h h : + O . o X x c c n U OX#X#X#X XJ j j j j k ",
"z z z a ; a a a a a p # C _ Z v v v v v ~ @X#X#X#X[.J h h j j j ",
"j j h > ; 7 a a a p r 0 @.) `.q.d.w.6.= f {.XX}.oXJ.h a j j j h ",
"h h 4 ; 4 6 6 7 6 K m.y ) T.T.e.f.k.s % [ ( Q.|.].g.7 7 a j j j ",
"7 6 ; ; 4 4 4 6 6 v.m.u P.U.y s 8 ( }  .] #.Y.E.g.6 6 7 7 a j l ",
"6 ; ; 7 d 6 ; > P Q.v.E S O.O.o.E /  .&.#.}  .| e 4 6 6 6 7 7 j ",
"6 4 d L L z a 6 7 M.'.v.S $.o.w F D...%.+.X.[ $ : ; 4 4 4 6 7 a ",
"6 7 j L L L j l j x.D.M.V o.o.A w F I.....{ i : p ; ; ; 4 4 6 6 ",
"6 7 j j j h a a d d K '.H t R R t = D n.P q = d h a 4 ; ; ; 4 4 ",
"4 4 7 a a 7 7 7 7 7 7 s r B ` ` V e G T H V r a 7 7 6 ; ; ; ; 4 ",
"7 ; 7 7 a a a a a 7 6 H A.A.S.' N ! ! ^ ` N d a a 7 6 4 7 7 a j ",
"h 4 4 7 a a a j K K f B G G G V V ! ! G G y F g g d > ; 4 7 7 h ",
"7 ; - 4 a a a h j d g g g f s s F W F d p p p p p p > ; ; 4 4 4 ",
"; > a h a h a 7 7 4 4 > 4 4 6 a l.x.x.h.j ; 7 h j z z j 7 6 6 4 ",
"; h l.l.1.k j k j 7 > - 7 a z l.l.h.L h.L 6 4 a z j j h a 7 7 7 "
};
