/* XPM */
static char *_5235e51c1be4445f4d64ea77bfb93d6RlACAmSgA3g4WyPo[] = {
/* columns rows colors chars-per-pixel */
"32 32 194 2 ",
"   c #362E0D",
".  c #392D0F",
"X  c #2C360E",
"o  c #34300D",
"O  c #2F3510",
"+  c #2D3D10",
"@  c #3D3614",
"#  c #3C2B26",
"$  c #3E322F",
"%  c #442D0E",
"&  c #4D2E15",
"*  c #4A2D1D",
"=  c #542512",
"-  c #592714",
";  c #5D2C16",
":  c #522D1F",
">  c #5E2B18",
",  c #46361A",
"<  c #5B311E",
"1  c #5B381E",
"2  c #65310E",
"3  c #72360F",
"4  c #7F3A0E",
"5  c #602E17",
"6  c #6A2C15",
"7  c #632E1A",
"8  c #682E1F",
"9  c #65311B",
"0  c #6A331E",
"q  c #653C1A",
"w  c #7D3212",
"e  c #723B1E",
"r  c #442C22",
"t  c #4F3426",
"y  c #4F3C2A",
"u  c #503425",
"i  c #533D26",
"p  c #5B3C27",
"a  c #593B2A",
"s  c #4B3932",
"d  c #663721",
"f  c #6E3521",
"g  c #643B24",
"h  c #6E3923",
"j  c #653E2A",
"k  c #6B3D29",
"l  c #713622",
"z  c #7A3720",
"x  c #753A25",
"c  c #783B27",
"v  c #753D29",
"b  c #7A3D29",
"n  c #2B4311",
"m  c #2E4913",
"M  c #334413",
"N  c #3C4215",
"B  c #304913",
"V  c #424419",
"C  c #4B411C",
"Z  c #5C4227",
"A  c #5C452A",
"S  c #574A29",
"D  c #595029",
"F  c #504431",
"G  c #5E4D3B",
"H  c #694626",
"J  c #6D422A",
"K  c #664C2D",
"L  c #6A4A2B",
"P  c #774125",
"I  c #7B4324",
"U  c #72422C",
"Y  c #7C412C",
"T  c #74482F",
"R  c #7B492D",
"E  c #645027",
"W  c #6C5026",
"Q  c #6F512E",
"!  c #694531",
"~  c #614B30",
"^  c #6F4C32",
"/  c #7C4B32",
"(  c #6E5432",
")  c #755730",
"_  c #765E37",
"`  c #77503A",
"'  c #7E533A",
"]  c #7D5B3F",
"[  c #7C653A",
"{  c #79663D",
"}  c #4B4647",
"|  c #524442",
" . c #5E4940",
".. c #504748",
"X. c #594B4A",
"o. c #595356",
"O. c #5E5A5C",
"+. c #654E43",
"@. c #645A42",
"#. c #6A5A47",
"$. c #7E5E41",
"%. c #645552",
"&. c #70694C",
"*. c #6B686B",
"=. c #717277",
"-. c #80370F",
";. c #84380E",
":. c #8C3C0E",
">. c #913D0E",
",. c #843911",
"<. c #883A18",
"1. c #803E2D",
"2. c #97410E",
"3. c #99410E",
"4. c #89431D",
"5. c #854F1A",
"6. c #8F491F",
"7. c #974111",
"8. c #9D4512",
"9. c #9D4A1A",
"0. c #86531F",
"q. c #9A5D16",
"w. c #97581D",
"e. c #A0460F",
"r. c #B44E0F",
"t. c #BA510F",
"y. c #A34811",
"u. c #AB4A14",
"i. c #B04C10",
"p. c #B45217",
"a. c #B95110",
"s. c #A26014",
"d. c #BA6B19",
"f. c #874C27",
"g. c #81422E",
"h. c #844B2E",
"j. c #884A28",
"k. c #9A5928",
"l. c #854431",
"z. c #8A4735",
"x. c #854A32",
"c. c #8C4836",
"v. c #825236",
"b. c #8A5131",
"n. c #805A31",
"m. c #8F5935",
"M. c #84553A",
"N. c #8D5B3A",
"B. c #935837",
"V. c #945836",
"C. c #9B5B31",
"Z. c #985E39",
"A. c #B55A22",
"S. c #82663C",
"D. c #89693E",
"F. c #96623E",
"G. c #9F643C",
"H. c #A2643A",
"J. c #AA693C",
"K. c #B36E3B",
"L. c #C3550E",
"P. c #C05410",
"I. c #836547",
"U. c #9E6A42",
"Y. c #90714D",
"T. c #916A50",
"R. c #9D7A52",
"E. c #A56A41",
"W. c #AA6E45",
"Q. c #A77344",
"!. c #AD754D",
"~. c #BA7643",
"^. c #B27B4B",
"/. c #BE7C49",
"(. c #BA7C4C",
"). c #B57F55",
"_. c #C27B43",
"`. c #C87F45",
"'. c #A38055",
"]. c #B88053",
"[. c #CA854B",
"{. c #CD894F",
"}. c #C08553",
"|. c #CA8651",
" X c #C78A56",
".X c #CB8A54",
"XX c #D28E54",
"oX c #CF915A",
"OX c #D2945B",
"+X c #D8975B",
"@X c #DE9C5E",
"#X c #E09E5E",
"$X c #E3A262",
"%X c #E4A363",
/* pixels */
"9 7 l.c.z.1.b c x x x l 0 b b c x x x x c x 0 0 0 7 7 b Y Y b x ",
"0 7 l.z.l.b b c x x l f 0 x x x c x x x x x l Y g.x 0 f Y g.Y b ",
"l 0 l.l.g.c x x x l f f R E.W.Z.h.c x x x l b l.g.b x 0 0 c x x ",
"l 0 b b c x x x l l f h.OX%X%X$XOXE.Y x x b l.l.Y b x x 0 x b x ",
"l 9 x x x l l l f 0 f ^.$X%X%X%X%X$X(.b b l.l.Y b c x x 0 f g.b ",
"f f f l l l f f 0 0 x oX%X#XXX.X/.|.+Xx.g.l.g.b b c x x l 9 b Y ",
"f v 9 0 f 0 0 0 0 0 P XX X_.`.C.8.9.B.4.c g.b b c c x x f 0 0 0 ",
"7 9 ; f l l x l l h h J.B.(.@X~.x e / / Y b b c x x x l x Y x 0 ",
"7 ; ; b Y x x x d g H.C.C./.|..XH.(.oX).b b c x x x x b b b x h ",
"0 9 ; h x l l 9 , M W C.C.A.p.k.j.4.6.4.<.c c c x x x x x l f f ",
"0 9 9 9 0 0 9 1 C N B N q a.L.u.u.r.y.,.8.z x x l x x l l f f 0 ",
"9 9 9 ; ; l G.oXoXQ.V B @ 8.P.7.i.>.;.8.,.6 7 7 l l l l 0 f 0 0 ",
"0 f ; 7 7 b.@X%X%X$X) B + 3 t.,.-.3.t.L.a.w 8 - 7 0 0 0 7 9 9 9 ",
"l.z.c > 9 G.$X%X%X%XD.B n % y.:.e.L.L.L.L.:.5 7 f f l x c 0 7 f ",
"z.c.l.7 f V.@X%X%X$Xn.B m X 3 r.L.L.L.L.L.w - 0 l x b b b b c g.",
"l.l.l.f f g.[.%X$X|.H B m n . 4 r.L.L.L.y.= ; 0 f l x x b b b b ",
"g.g.l.b 0 I _.$X#XXX^.V m m +   2 :.2.4 % % 0 x f l l x x c c b ",
"b b g.b 0 I XX%X%X%X@XE B m m n X o . O + & x x f f l l x x x c ",
"b b b f > P {.%X%X%X$X) M M M M M D { S @ > f h 0 0 f f l x x x ",
"x c l > - h K.+X XOX}.j * 5.q.s.0.'.] $.r : < 0 0 0 0 f x x x l ",
"l l 7 - 7 0 f.[..X!.' | $ g k.d.w.R.R.] p M.J 7 9 9 0 0 f x x x ",
"0 9 - ; 7 9 9 b.W.T.%.} o.X.' q g p Y.I.a M.v.< 7 7 9 0 0 f x v ",
"9 - ; 0 h 9 > u X.o...O.=.O.` ^ @.@.#.G ! M.!.R ; 5 9 9 9 0 0 x ",
"9 7 h Y Y Y h < # | +.#.*.+.F.H y @.&.G v.].N.d 7 ; 7 7 7 9 0 f ",
"9 0 x Y Y Y x v : s  .G +.U.J y F @.@.A N.F.v.x f ; ; ; 7 7 9 9 ",
"9 0 x x x f f f d * t T m.H * i ~ ~ i ^ }.R v x l f 7 ; ; ; 7 7 ",
"7 7 0 f f 0 0 0 f < A L Q K u A [ [ Z g k h x f 0 0 9 ; ; ; ; 7 ",
"0 ; 0 0 f f f f 0 d i [ _ ( ( Z [ D.S.S.L d l f 0 0 9 7 0 0 f x ",
"l 7 7 0 f f v v J J a K K ( ( A A K K K Z k U v x 0 ; ; 7 0 0 l ",
"0 - = 7 f f h h h h k k k j j g H U J k d d d f f 9 ; ; ; 7 7 7 ",
"; > f l f l f 0 0 7 7 > 7 7 9 f l.x.x.g.x ; 0 l x b b x 0 9 9 7 ",
"; l l.l.1.c x c x 0 > = 0 f b l.l.g.Y g.Y 9 7 f b x x l f 0 0 0 "
};
