/* XPM */
static char *c45806b094414671833c6d0f0ef16d550J2jHNDTcQTVLSkq[] = {
/* columns rows colors chars-per-pixel */
"32 32 193 2 ",
"   c #362E0D",
".  c #392E0F",
"X  c #2C360D",
"o  c #34300D",
"O  c #2F3510",
"+  c #2D3D10",
"@  c #3C3A10",
"#  c #3F3218",
"$  c #3C2B27",
"%  c #3E322F",
"&  c #462E0E",
"*  c #472D14",
"=  c #492B1B",
"-  c #542513",
";  c #582715",
":  c #5D2B16",
">  c #5D2B18",
",  c #46371A",
"<  c #5A351D",
"1  c #65310E",
"2  c #72360F",
"3  c #7F3A0E",
"4  c #632E1A",
"5  c #65311B",
"6  c #6A331E",
"7  c #643C1A",
"8  c #793819",
"9  c #442C22",
"0  c #4F3426",
"q  c #4F3C2A",
"w  c #503723",
"e  c #5E3524",
"r  c #543D26",
"t  c #5C3C27",
"y  c #56362A",
"u  c #5D3E29",
"i  c #4A3831",
"p  c #633622",
"a  c #6E3521",
"s  c #633C23",
"d  c #6D3923",
"f  c #6C3E29",
"g  c #723623",
"h  c #793720",
"j  c #753A25",
"k  c #783B27",
"l  c #753D28",
"z  c #7B3D29",
"x  c #2B4311",
"c  c #2E4913",
"v  c #334413",
"b  c #3C4215",
"n  c #304913",
"m  c #424419",
"M  c #4C411C",
"N  c #5C4227",
"B  c #5B442B",
"V  c #574A29",
"C  c #5A512A",
"Z  c #574837",
"A  c #5D4C3C",
"S  c #694526",
"D  c #604729",
"F  c #6B422B",
"G  c #654B2D",
"H  c #6B4B2D",
"J  c #7D4425",
"K  c #75442C",
"L  c #7C412C",
"P  c #79492D",
"I  c #635027",
"U  c #6C5026",
"Y  c #6F512E",
"T  c #614C30",
"R  c #694A36",
"E  c #734530",
"W  c #7E4130",
"Q  c #7C4B33",
"!  c #6D5433",
"~  c #765630",
"^  c #7F5337",
"/  c #745B34",
"(  c #7B523A",
")  c #7D5B3F",
"_  c #7C653A",
"`  c #7A673D",
"'  c #4B4647",
"]  c #524544",
"[  c #594B4A",
"{  c #595356",
"}  c #5E595C",
"|  c #654E44",
" . c #645B42",
".. c #6A5948",
"X. c #7D5D41",
"o. c #645552",
"O. c #70694C",
"+. c #6B686B",
"@. c #717277",
"#. c #80370F",
"$. c #84380E",
"%. c #8C3C0E",
"&. c #913D0E",
"*. c #833616",
"=. c #843811",
"-. c #903B14",
";. c #883F23",
":. c #813F2E",
">. c #97410E",
",. c #9A420E",
"<. c #89431D",
"1. c #854F1A",
"2. c #8F491F",
"3. c #974111",
"4. c #9E4513",
"5. c #9D4A1A",
"6. c #86531F",
"7. c #995A1A",
"8. c #A1460F",
"9. c #B44D0F",
"0. c #BA510F",
"q. c #A34712",
"w. c #A34911",
"e. c #AB4A14",
"r. c #B04C10",
"t. c #B45117",
"y. c #B95110",
"u. c #A26014",
"i. c #B96B19",
"p. c #854523",
"a. c #81412E",
"s. c #82422E",
"d. c #834B2B",
"f. c #8B4F2B",
"g. c #8A512D",
"h. c #9A5928",
"j. c #824230",
"k. c #854331",
"l. c #834531",
"z. c #854532",
"x. c #894635",
"c. c #8B4735",
"v. c #844B32",
"b. c #8C4A36",
"n. c #904B3B",
"m. c #805A31",
"M. c #8F5935",
"N. c #84553A",
"B. c #8D5B3A",
"V. c #935837",
"C. c #9B5B32",
"Z. c #915939",
"A. c #B55A21",
"S. c #82663B",
"D. c #89693E",
"F. c #96623E",
"G. c #9E653E",
"H. c #A2643B",
"J. c #AA693B",
"K. c #B46F3C",
"L. c #C3550E",
"P. c #C05410",
"I. c #826546",
"U. c #9F6A42",
"Y. c #90724D",
"T. c #916A50",
"R. c #9D7A53",
"E. c #A56B42",
"W. c #A27346",
"Q. c #AC7145",
"!. c #AD754D",
"~. c #BB7743",
"^. c #B37B4C",
"/. c #BC7C4A",
"(. c #B57D54",
"). c #C37B43",
"_. c #A38055",
"`. c #B98153",
"'. c #C88045",
"]. c #CA854B",
"[. c #CD8A4F",
"{. c #C08552",
"}. c #C88651",
"|. c #C78A56",
" X c #CC8C55",
".X c #D28E54",
"XX c #CE915A",
"oX c #D2935A",
"OX c #D8975B",
"+X c #DE9C5E",
"@X c #E09D5E",
"#X c #DD9C60",
"$X c #E4A263",
/* pixels */
"5 4 k.c.c.:.z k j j g g 6 z z k j j j j k j 6 6 6 4 4 z L L z k ",
"6 4 z.c.z.z z k j j g a 6 j j j j j j j j j g L a.g 6 a z a.L z ",
"g 6 z.z.a.k j j j g a 6 5 6 j j j j j j j g z z.a.z j 6 6 k j j ",
"g 6 z z k j j g g g 6 6 5 6 j j k j k j j z z.z.L z k j 6 g z j ",
"g 5 j j j g g g a 6 6 5 5 4 j j j j j j z z.z.L z k k k 6 a a.z ",
"a a a g g g a a 6 6 6 4 4 : g j j g j j a.z.a.z z k j j g 5 z L ",
"a l 5 6 a 6 6 6 6 6 6 4 4 > g j k z z a.j.a.z z k k j j d a 6 6 ",
"4 5 : a g g g g g a 5 4 a > j.c.c.c.k.a.a.z z k j j j g K L k 6 ",
"4 : : z L k j g d 5 : ; : - W n.k.:.:.z l l v.g j j j z Q L k d ",
"6 5 : d j g g 6 5 4 j k a ; z a.z z z l K N.!.B.v.g j k K l a a ",
"6 5 5 5 6 6 6 6 j :.a.h *.-.*.: * < g e N.N.N.`.F.K d d F l a 6 ",
"5 5 5 : : a h z k.;.4.=.y.L.L.w.& + # 9 t y R ^ B.{.f H N f 6 6 ",
"6 a : 4 d v.<.Q (.<.=.4.L.L.L.L.3 O V X.) I.A A B H e S.G s 5 5 ",
"z.c.z d ^.OXV.Q XX2.q.$.0.L.L.L.>.. ` ) R.Y...O. .r N S.G f 4 a ",
"c.c.z.E.$X}.5.8 /.<.9.&.,.L.L.L.%.o C _.R.u  . . .T _ D.H K k a.",
"z.z.b.oX$X/.4.j H.p.e.r.#.8.L.9.1 X v 6.7.t  .q Z T _ ` D E z z ",
"a.a.G.$X$X XC.~. Xh.e.3.=.%.9.3   x v u.i.7 Y F q r B N B E z z ",
"z z Q.$X$X.X'.+X].t.L.P.0.w.2 . + c v 7.h.^ ( F.F = w ! ! E j k ",
"z k E.$X$X@X)././.A.y.4.2 & X x c c v 1.s [ } | U.S G ! ! F j j ",
"j k d.oX$X$X|.Z.C.C.7 @ + x c c c n v , % { @.+.| M.Y / G F g g ",
"g g 5 P ^.oX.XJ.C.C.b n n v n n m I ~ u ] ' } ..A E H _ G f j g ",
"6 5 : > 5 j k j G.U v m ~ D.m.S ^.+X$X{.^ o.] R A 0 B r r f g l ",
"5 : : 6 d 5 4 5 s v b W.$X$X$X}..X$X$XoX!.T.{ ] i = < p f d 6 j ",
"5 4 d L L L a 6 5 , M XX$X$X$X$X@X$X$X|. XQ.[ $ = > 4 5 f a 6 a ",
"5 6 k L L L k l l f < XX$X$X$X$X$X$X$XOX].f.y p a : : > s 5 5 5 ",
"5 6 g k j g a a d g d G.#X$X+X].)..X[.K.f.l l k g a 4 : p 5 4 4 ",
"4 4 6 a a 6 6 6 6 6 6 d g.C.g.J J d.J k g g g a 6 6 5 : : > : 4 ",
"6 : 6 6 a a a a 6 6 6 6 6 6 5 5 g j g g g g g a 6 6 5 4 6 6 a j ",
"g 4 4 6 a a a a a 6 6 a g g d : : 6 6 g a a a a 6 6 : : 4 6 6 g ",
"6 : - 4 a a a a a 6 a a 6 5 5 : 6 l g 6 4 4 4 6 6 4 : : : 4 4 4 ",
": > a g a g a 6 6 4 4 > 4 4 5 a l.v.z.a.j : 6 g k z z k 6 5 5 4 ",
": g k.k.:.k j k j 6 > - 6 a z l.z.a.L a.L 5 4 a z k j g a 6 6 6 "
};
