/* XPM */
static char *f0b5c5b1f89544759fb04aa2fabe2cee2RHolkslpuNmf6aK[] = {
/* columns rows colors chars-per-pixel */
"32 32 141 2 ",
"   c #3A3733",
".  c #3D3A36",
"X  c #3F3C38",
"o  c #413D37",
"O  c #423E3A",
"+  c #45423D",
"@  c #49443E",
"#  c #474440",
"$  c #4A4641",
"%  c #4D4944",
"&  c #524D46",
"*  c #524E49",
"=  c #56514C",
"-  c #59544E",
";  c #5C5652",
":  c #5C5753",
">  c #5D5753",
",  c #5C5750",
"<  c #5B5651",
"1  c #5D5850",
"2  c #5C5851",
"3  c #5E5851",
"4  c #5D5852",
"5  c #5D5952",
"6  c #5E5952",
"7  c #5F5953",
"8  c #5C5854",
"9  c #5D5854",
"0  c #5D5954",
"q  c #5E5854",
"w  c #5E5954",
"e  c #5E5955",
"r  c #5F5955",
"t  c #5F5A55",
"y  c #5E5954",
"u  c #615A53",
"i  c #605A56",
"p  c #605B56",
"a  c #615B56",
"s  c #605B57",
"d  c #615B57",
"f  c #605C55",
"g  c #615C55",
"h  c #625C54",
"j  c #625C55",
"k  c #605C56",
"l  c #615C57",
"z  c #635D56",
"x  c #645E56",
"c  c #655E57",
"v  c #615C56",
"b  c #625C58",
"n  c #635D59",
"m  c #635E58",
"M  c #645D59",
"N  c #645E5A",
"B  c #645F5A",
"V  c #655F5A",
"C  c #655F5B",
"Z  c #645E59",
"A  c #656059",
"S  c #666059",
"D  c #676159",
"F  c #65605A",
"G  c #65605B",
"H  c #66605A",
"J  c #66615A",
"K  c #66605B",
"L  c #66605C",
"P  c #67615C",
"I  c #67615D",
"U  c #66605C",
"Y  c #68625C",
"T  c #68635C",
"R  c #69635C",
"E  c #68625D",
"W  c #6A635C",
"Q  c #68635E",
"!  c #69635E",
"~  c #69635F",
"^  c #69645D",
"/  c #6B645D",
"(  c #69645F",
")  c #6B655E",
"_  c #6A645F",
"`  c #6C655E",
"'  c #6C665F",
"]  c #6D665F",
"[  c #6A635E",
"{  c #6A6460",
"}  c #6B6560",
"|  c #6C6760",
" . c #6D6760",
".. c #6C6661",
"X. c #6D6661",
"o. c #6E6760",
"O. c #6D6662",
"+. c #6C6762",
"@. c #6D6762",
"#. c #6E6763",
"$. c #6C6661",
"%. c #6E6861",
"&. c #6F6862",
"*. c #6E6863",
"=. c #6F6963",
"-. c #6F6A63",
";. c #6F6964",
":. c #6F6863",
">. c #706861",
",. c #716A63",
"<. c #706964",
"1. c #706A64",
"2. c #706B64",
"3. c #706A65",
"4. c #716B65",
"5. c #726B65",
"6. c #716B66",
"7. c #726C65",
"8. c #726C66",
"9. c #736D66",
"0. c #726C67",
"q. c #726D67",
"w. c #736C66",
"e. c #736C68",
"r. c #756F68",
"t. c #756E6A",
"y. c #766F6B",
"u. c #756E68",
"i. c #76706A",
"p. c #77716A",
"a. c #76716B",
"s. c #78716C",
"d. c #78726C",
"f. c #79726D",
"g. c #7A736E",
"h. c #7B746F",
"j. c #79726C",
"k. c #7B7570",
"l. c #7C7570",
"z. c #7D7772",
"x. c #7F7670",
/* pixels */
"$ O % $ + + O . . @ & & & = = & & @ @   . + $ $ % $ $ + O r k.k.",
"@ . . X X O + # # O O + + + $ & - l { 0.! * + O + + + . - y.s.e.",
". . $ - r B ( ..K % O O - K 0.g.z.h.g.p.0...2 +   .   % ..e.0...",
"* + ..g.g.y.e...! r # & 0.y.p.g.p.p.<.,.( ! - $ % % O r ....{ L ",
"* $ <.0.<.;.{ L B < @ - %.,.0.0.<.<.%...! l $ % %...% - r r > < ",
"+ + K ! ! L l r < = + - K Y ! ! K K B l 2 - @ ! ;.! * $ * * & % ",
"O + > r r < - - - % @ - > 2 - < 2 2 - - = $ r <...V % + + # $ $ ",
"$ O * * * * * * % O + & = - = - - - - = & & { { V - $ % O X . O ",
"X . + $ % % $ + @ $ $ $ $ $ & = = * * & + r L B - * + + = l > & ",
". . + O O O + - K %.,.( 2 $ + + $ $ $ + + r > - * % . & c Y %.0.",
"# & h l < % O > c Y ( ] ( l + < L V h < $ + $ % $ +   - 2 l ( ,.",
"% * V ! { ( % + = - u h l - + < h B B r - O $ > h r + = - 2 K ..",
"# % < h V ! h O @ & & & & $ O * * - - - - % + - h L * & - 2 l Y ",
"+ + $ * - 2 r * . @ @ @ + . X $ % * * * * $ X $ - > & $ = - 2 l ",
"O X + $ $ % & & +   + @ & = $ + # $ % % $ % r $ % * & $ = = - - ",
"X .   X + + $ $ + O 2 { ..K < $ O + + + - ..L * + % $ @ & = = = ",
"+ - % O $ + .   O r ..{ L r < - $ . . - ..! r - . O + O & & & = ",
"= ! K @ % - - + $ L L B > - - * % O < { L h - % $ - O . @ $ $ $ ",
"> c ! - + & * $ % r r > - * * $ . * V B > - * % 0.g.- * % + + o ",
"- u c V $ + % + $ - - * * % $ + O + - - * * $ L 9.9.2 * - + = < ",
"& - 2 l - O + . . $ $ % $ + * { ..+ + % % + - ,.%.] - @ $ + L V ",
"& = = - > @ . . & - * $ O - L ( { * < * O + l ! Y c & X + O - - ",
"& & & = = &   $ ! ..{ V $ r B V L * L ..L % & - > - $ * ! < + $ ",
"@ & & & & $ . - h B V > $ < r h h * h K { ! * $ & & @ - V B + . ",
"O + + + @ O . % - < < * + = - < < $ < h V L ! * + $ O % - - O % ",
"% 2 h K L B - + + % * $ O * * * * + * - > r B h % O . + $ + . * ",
"= B V K V B h - O + $ % O % % % % O % % * - < < - + O * - %   $ ",
"$ - > > < - - - % . + @ . $ $ $ +   # $ % * * * % O B <...B + + ",
"$ % * * * * * * % + . O . + + + $ - $ + @ $ $ $ O h y.;.! h * X ",
"* + % % % % % $ + O O + . . . % 9.x.j.! & O O . - e...! V > * O ",
"- + + @ $ @ + O O % r L r + . ! 0.y.9.<.] -   $ ....! V r - * + ",
"= $   . X + * r V ! { C B % @ ! ] ..%.] ! > X < { L B r - * & + "
};
