/* XPM */
static char *_a3e416962904bc3f28640e0232091f3j0fedhfEq3eHZwQ6[] = {
/* columns rows colors chars-per-pixel */
"32 32 202 2 ",
"   c None",
".  c #17183C",
"X  c #1F1F3A",
"o  c #241E34",
"O  c #2A2233",
"+  c #27263C",
"@  c #372A32",
"#  c #3B333C",
"$  c #31252B",
"%  c #412B2D",
"&  c #4C3836",
"*  c #5A3C32",
"=  c #5B3B2D",
"-  c #603F35",
";  c #57413D",
":  c #67473B",
">  c #724E3D",
",  c #73533E",
"<  c #161A43",
"1  c #1C1949",
"2  c #191D55",
"3  c #221D55",
"4  c #241F5A",
"5  c #1C274A",
"6  c #14225D",
"7  c #1A2455",
"8  c #252B41",
"9  c #313051",
"0  c #1B2964",
"q  c #1C266D",
"w  c #1A2C6D",
"e  c #12276C",
"r  c #162B72",
"t  c #192D71",
"y  c #1A2F7A",
"u  c #1D3173",
"i  c #1C357A",
"p  c #222463",
"a  c #23246A",
"s  c #2B246A",
"d  c #2A2669",
"f  c #232B71",
"g  c #2E2873",
"h  c #222874",
"j  c #243678",
"k  c #323F7B",
"l  c #343D6D",
"z  c #403147",
"x  c #4D3D52",
"c  c #3C416A",
"v  c #544140",
"b  c #5C505F",
"n  c #594658",
"m  c #654B49",
"M  c #735344",
"N  c #7C5A48",
"B  c #775858",
"V  c #664D56",
"C  c #464764",
"Z  c #833B14",
"A  c #8E461B",
"S  c #874016",
"D  c #92461E",
"F  c #984C23",
"G  c #A8572A",
"H  c #AD5F30",
"J  c #9E683C",
"K  c #B76939",
"L  c #C16E3D",
"P  c #C0703C",
"I  c #845C49",
"U  c #885A50",
"Y  c #89634D",
"T  c #976B57",
"R  c #9A735D",
"E  c #8C685E",
"W  c #AF7444",
"Q  c #B0754A",
"!  c #B4784A",
"~  c #A3725A",
"^  c #A47454",
"/  c #B57D53",
"(  c #B77D57",
")  c #A36E56",
"_  c #8F6862",
"`  c #9E7864",
"'  c #AE7661",
"]  c #A57B61",
"[  c #B47C63",
"{  c #BB7E64",
"}  c #C16F40",
"|  c #C47745",
" . c #C27E55",
".. c #BB8055",
"X. c #BB805D",
"o. c #BA8561",
"O. c #BA8765",
"+. c #BF937F",
"@. c #AE8268",
"#. c #CA854D",
"$. c #C9895B",
"%. c #CD8A53",
"&. c #D28C56",
"*. c #D58C5C",
"=. c #D88E5D",
"-. c #D6925C",
";. c #CA8D62",
":. c #C18C6D",
">. c #C8916D",
",. c #D5956B",
"<. c #DA9B6C",
"1. c #D69467",
"2. c #C18F77",
"3. c #C99673",
"4. c #CB987A",
"5. c #C4967E",
"6. c #D29974",
"7. c #DD9E72",
"8. c #D29C7E",
"9. c #DAA37A",
"0. c #E1A57A",
"q. c #E4A87D",
"w. c #183388",
"e. c #322D83",
"r. c #253B8B",
"t. c #273A85",
"y. c #323684",
"u. c #263B94",
"i. c #2B3B90",
"p. c #253C9A",
"a. c #273498",
"s. c #36379A",
"d. c #262A80",
"f. c #1E3CA9",
"g. c #1C3AA2",
"h. c #243BA4",
"j. c #2A3DA7",
"k. c #343AA2",
"l. c #323FA9",
"z. c #3C3CA5",
"x. c #2B4097",
"c. c #3D4799",
"v. c #1E40AA",
"b. c #2C42A4",
"n. c #2543AC",
"m. c #2B47AA",
"M. c #334CAB",
"N. c #3D4CAC",
"B. c #3640AA",
"V. c #2B44B4",
"C. c #2E4BB4",
"Z. c #2D4BBB",
"A. c #2C46B9",
"S. c #324BB4",
"D. c #324CBB",
"F. c #3548B5",
"G. c #3950B4",
"H. c #3651BA",
"J. c #4A4696",
"K. c #4749A4",
"L. c #414FB2",
"P. c #4555B8",
"I. c #3452C2",
"U. c #3B54C3",
"Y. c #3259C3",
"T. c #3D5AC3",
"R. c #3E55C8",
"E. c #3C62C7",
"W. c #4259C3",
"Q. c #465AC8",
"!. c #4662CF",
"~. c #476CCB",
"^. c #4A69D0",
"/. c #C99C83",
"(. c #D5A283",
"). c #DBA381",
"_. c #D9A88C",
"`. c #DAAF99",
"'. c #D7AB97",
"]. c #D5AB91",
"[. c #E5AC83",
"{. c #E5AD8B",
"}. c #E9B08E",
"|. c #E5B293",
" X c #ECB495",
".X c #ECBB9D",
"XX c #E5B79B",
"oX c #F1B79A",
"OX c #ECBCA3",
"+X c #E7BCA3",
"@X c #F1BDA2",
"#X c #ECC4AB",
"$X c #F2C4AC",
"%X c #F1C5AB",
"&X c #F5CAB5",
"*X c #F6CBB9",
"=X c #F9CDBA",
"-X c #F6C7B1",
";X c #F9D2BE",
":X c #F7D1BB",
">X c #FBD2C1",
",X c #FCDFCA",
/* pixels */
"                              ,X;X;X:X%X                        ",
"                              #X&X$X%X(.                        ",
"                          >X*X/.$X%XOX:.OX-X$X                  ",
"                      >X>X;X&X5.XXXX_.[ OX$X@XoX                ",
"                    >X;X*X'.T : M N > = I 2. X X X              ",
"                  >X=X&X+.: % O o o o o @ = ~ {..X.X            ",
"                  `.$X/.- O . 1 3 4 3 1 . O & ] |.4.(.          ",
"                *X/.@.: O < 3 s s s s g g 3 + * ) 3. X          ",
"                =X&X` $ < 4 s a a s e.s.z.s.p z ) |. X X        ",
"              ;X*XOXM X 2 s j j a e.z.T.j.k.y.9 U ). X.X        ",
"              &X&X`.; < p f t.y h s.B.E.U.p.k.d B `.%X#X|.      ",
"            %XOXOX_.m 7 a j t.r h z.l.Y.I.g.j.y._ +X.X X{.      ",
"            .XXX|.4.v 7 a t e e a.z.l.n.n.g.j.i.B /.(.9.6.      ",
"              (.O.T @ 6 a f f h k.l.B.F.F.V.V.a.x ^ o.:.        ",
"              @X@X5.# 6 a p 0 f s.l.k.b.b.h.V.p.n 3.9.9.        ",
"              oX X4.& 6 q u i w.h.V.b.E.Y.v.A.p.V >.9.9.        ",
"               X X8.& 6 q u y w.h.V.m.Y.Z.f.Z.p.V ;.,.1.        ",
"              }.).:.& 6 q t y w.f.V.n.I.Z.f.I.u.m Q /  .        ",
"                o.^ & 7 q q r w.h.V.n.n.v.n.I.u.B ( ( $.        ",
"              [.7.;.: 7 9 w y p.V.A.A.Z.D.I.U.r.E 1.=.=.        ",
"                9.1.: 5 0 0 w u.m.A.b.M.M.S.U.t.T *.=.=.        ",
"                0.,.M 5 r t t.M.n.D.M.~.E.C.U.k R *.*.          ",
"                }.).N 5 r u r.C.V.D.G.^.T.S.T.c ] <.1.          ",
"                >.o., 5 r u u.D.V.I.G.!.U.D.T.l Y / ..          ",
"                6.6.Y 8 r u x.D.A.U.G.!.U.H.W.c ~ $.$.          ",
"                {.[.R 8 t u r.C.A.R.G.H.S.U.W.C ( *.&.          ",
"                [.[.] + u t.x.U.U.R.W.W.W.Q.P.C o.-.*.          ",
"                [.[.] # l y.c.P.L.N.N.N.K.K.J.b O.-.-.          ",
"                [.q.o., I T ~ ' ' ' [ { [ { { X.;.-.&.          ",
"                q.0.,.| | } L L L K P K H G G G ! &.%.          ",
"                0.0.<.K F F F D D A A A S Z Z Z J %.#.          ",
"                  7.<.;...( ( / / ! ! Q Q Q W W ! #.|           "
};
