/* XPM */
static char *d6492bd44fee4e3cd36c2d28289839d6PRU9zYD2QvnqwAs8[] = {
/* columns rows colors chars-per-pixel */
"32 32 178 2 ",
"   c None",
".  c #071927",
"X  c #0A1A27",
"o  c #071928",
"O  c #091C2B",
"+  c #191F26",
"@  c #131F29",
"#  c #151D26",
"$  c #0A1F30",
"%  c #18222A",
"&  c #15212B",
"*  c #0C2335",
"=  c #0D2639",
"-  c #1F2933",
";  c #202226",
":  c #28292C",
">  c #352C2A",
",  c #222E39",
"<  c #24303B",
"1  c #3D3330",
"2  c #783C18",
"3  c #4E342B",
"4  c #5B3B2E",
"5  c #4B3C35",
"6  c #5D3E30",
"7  c #563C31",
"8  c #584237",
"9  c #644C2E",
"0  c #6D5239",
"q  c #795B39",
"w  c #78563C",
"e  c #654535",
"r  c #0F2840",
"t  c #112A49",
"y  c #142C5E",
"u  c #132B52",
"i  c #162A61",
"p  c #1A2B65",
"a  c #203666",
"s  c #333564",
"d  c #223C7F",
"f  c #473D46",
"g  c #614D41",
"h  c #6E5545",
"j  c #725141",
"k  c #6C5B52",
"l  c #7E6250",
"z  c #5C5A7C",
"x  c #853C15",
"c  c #8E461D",
"v  c #8A441A",
"b  c #944B23",
"n  c #994F27",
"m  c #A75426",
"M  c #A6592A",
"N  c #A85D32",
"B  c #BC6B3A",
"V  c #B86635",
"C  c #C06C3C",
"Z  c #825D4C",
"A  c #8A5F46",
"S  c #896049",
"D  c #9F6A49",
"F  c #8B6B55",
"G  c #AE744C",
"H  c #AB7649",
"J  c #B07A4E",
"K  c #B37C53",
"L  c #BA7D58",
"P  c #A47758",
"I  c #A77A64",
"U  c #B07D62",
"Y  c #AE7A70",
"T  c #C37142",
"R  c #B58159",
"E  c #B48057",
"W  c #AD826D",
"Q  c #B5866B",
"!  c #BC8766",
"~  c #BF8C71",
"^  c #BC9179",
"/  c #C0845C",
"(  c #C68C63",
")  c #C28C6E",
"_  c #CC8F68",
"`  c #D28F63",
"'  c #D9986B",
"]  c #CD987A",
"[  c #D59E7C",
"{  c #DE9E73",
"}  c #DEA275",
"|  c #E0A477",
" . c #E0A47A",
".. c #E2A87F",
"X. c #1F3E8F",
"o. c #1D3D92",
"O. c #213C8B",
"+. c #203F84",
"@. c #203E95",
"#. c #1F4089",
"$. c #20428D",
"%. c #2F528F",
"&. c #30558F",
"*. c #234593",
"=. c #23419A",
"-. c #29499D",
";. c #32559B",
":. c #2344A4",
">. c #2247AA",
",. c #294BA7",
"<. c #3354A6",
"1. c #3758A8",
"2. c #2B4EB5",
"3. c #274BBC",
"4. c #2B4DBB",
"5. c #384DB6",
"6. c #2C53BD",
"7. c #2950B7",
"8. c #3154B6",
"9. c #3354BC",
"0. c #3C5ABD",
"q. c #3758BD",
"w. c #3F61B5",
"e. c #42539F",
"r. c #545E93",
"t. c #756485",
"y. c #455FB0",
"u. c #4062AB",
"i. c #5472AD",
"p. c #4B67BC",
"a. c #2F52C0",
"s. c #3254C2",
"d. c #355BC3",
"f. c #3B5CC5",
"g. c #365BC9",
"h. c #3F5EC9",
"j. c #3B60C7",
"k. c #3561C8",
"l. c #3E6CCB",
"z. c #3D65C7",
"x. c #405BC4",
"c. c #4364CB",
"v. c #4A66CF",
"b. c #4469CC",
"n. c #4466C5",
"m. c #4B69D0",
"M. c #506AD2",
"N. c #4C72D2",
"B. c #94889E",
"V. c #AB979F",
"C. c #C69B84",
"Z. c #C89D85",
"A. c #D2A589",
"S. c #D7AC95",
"D. c #DCB29D",
"F. c #E4AC85",
"G. c #E5AF8B",
"H. c #E6B08B",
"J. c #EDB495",
"K. c #E6B398",
"L. c #ECBC9F",
"P. c #E7B598",
"I. c #F1B99D",
"U. c #EDBEA4",
"Y. c #E7BAA0",
"T. c #EDC0A6",
"R. c #EEC1AD",
"E. c #F1C0A6",
"W. c #F3C4AD",
"Q. c #EDCAB4",
"!. c #E8C6B5",
"~. c #F3CAB4",
"^. c #F9CEBB",
"/. c #F6C9B4",
"(. c #F9D2BF",
"). c #FAD4C3",
"_. c #FAD8C7",
"`. c #FCE3D2",
/* pixels */
"                            `._.).(.Q.                          ",
"                          Q.Q./.W.T.A.                          ",
"                      _.).R.A.W.E.P.) W./.W.                    ",
"                    _.).^.R.^ Y.P.[ Q U.W.I.I.                  ",
"                  ).(.~.C.Z 6 j j e 4 Z ] J.K.V.i.              ",
"                ).^.R.I 4 > + + + + % > 6 I B.p.p.u.&.          ",
"              !.D.R.W 3 + o o . . . . o ; f y.v.M.n.1.          ",
"              ~.C.I 7 + . . . . . o O O O a f.c.v.m.w.%.        ",
"            ).^.W.Z % . . . . . X * = = r d q.c.c.N.n.;.        ",
"            )./.S.8 X . . . . o * = = = t O.l.b.h.N.c.;.        ",
"          _.~.~.Z.1 o . . o . O = = = = u X.l.c.f.m.b.<.        ",
"          ~.U.L.Z.5 X . . o o * = = = = y o.k.j.s.j.c.<.        ",
"          T.K.G.Q 1 X . . . X * = = = = y @.6.f.s.6.j.<.        ",
"          !.S.! S ; o . . . X = = = = = y -.f.f.c.v.v.,.        ",
"            E.I.W : . . . . O = = = = = y =.8.q.0.0.x.-.        ",
"            I.J.Q : . . . . O = = = = = y :.l.d.s.z.0.-.        ",
"            J.J.~ > . . . . * = = = = = y :.k.d.4.d.q.*.        ",
"            P.[ U > . . . . * = = = = = y >.d.s.4.d.q.*.        ",
"            A.! D > o . . o * = = = = = y >.7.6.3.s.9.$.        ",
"            F.' / 5 o . . X * = = = = = y 2.a.s.9.0.8.$.        ",
"            G.{ ( 5 X . . X * = = = = = y ,.2.6.9.r.<.$.        ",
"            H. ._ 8 X . . X * = = = = * i 8.z.4.8.8.,.+.        ",
"            L.G.[ g X . . X = = = = = * i 9.b.4.g.f.:.          ",
"              ) L 8 X . . O = = = = = * i 9.z.4.g.d.:.          ",
"              [ ] h @ . . O = = = = = * i 4.f.3.g.q.@.          ",
"              H.F.l & . . O = = = = = * p 2.s.3.g.9.@.          ",
"              G.F.F % . . * = = = = = * p 9.9.3.4.2.O.          ",
"              F...F : @ % - , , , < < , s 5.s.s.s.4.O.          ",
"              F. .P w A D G G G K L L K L Y t.e.0.x.O.          ",
"              F. .` T T B C C V B B V M m m b 0 k z             ",
"              F.| ' N n b b b c c c c v x x 2 9 q q             ",
"              H.} } ( R R E K K K K J J H H H q q               "
};
