/* XPM */
static char *result[] = {
/* columns rows colors chars-per-pixel */
"30 30 178 2 ",
"   c #38B32C960E6C",
".  c #368A2E520DA0",
"X  c #2BD336B30D91",
"o  c #346C30540DAB",
"O  c #3C3F2BF210CF",
"+  c #2F1A35C61017",
"@  c #2D5E3D6410BF",
"#  c #3A7D3875140C",
"$  c #3AD92AA42747",
"%  c #3EB732172FC0",
"&  c #469A2EE20DFF",
"*  c #51F625DA0F45",
"=  c #3FC7259A1C12",
"-  c #46102BF21C58",
";  c #4AF3322A1EF8",
":  c #58C03AAC1E96",
">  c #658031440E10",
",  c #7F4E39DC0ECC",
"<  c #72B535770ED2",
"1  c #6DC82AF61140",
"2  c #648E3C141A2B",
"3  c #72DC37B20F9C",
"4  c #72DD3B821ED0",
"5  c #437C2C5722DA",
"6  c #4FE42F3A24CB",
"7  c #4BD633AD2332",
"8  c #4F253C5B2A4A",
"9  c #4D9C327F299D",
"0  c #5007373A2313",
"q  c #54753BD9263D",
"w  c #5F3039A8269D",
"e  c #56FE37712A4E",
"r  c #5F373C6029EE",
"t  c #49C6399133A9",
"y  c #62903DF623D8",
"u  c #75863E3820FB",
"i  c #2B514359118C",
"p  c #2EA049D613F2",
"a  c #33B8443D1345",
"s  c #3C21428015CE",
"d  c #303C493C1380",
"f  c #421D448D1987",
"g  c #4C7A418E1CB4",
"h  c #5AFD421826E6",
"j  c #50BA4BBA264E",
"k  c #55454090282F",
"l  c #5B8E436D2A40",
"z  c #5EFF48A92A9E",
"x  c #5A2D51592A05",
"c  c #50414515320B",
"v  c #5C014EA53793",
"b  c #5DFE4E1B39C9",
"n  c #63B14443239B",
"m  c #6A33436E2A0A",
"M  c #659B4CE92DE1",
"N  c #6B7547A02942",
"B  c #7248404B2369",
"V  c #74B849022F3D",
"C  c #78804BF12F1B",
"Z  c #63FA501F2717",
"A  c #6C9450F62661",
"S  c #676350442EEE",
"D  c #6CB1511A2E5C",
"F  c #626F4B873159",
"G  c #6FBF4C00320B",
"H  c #69E7462431D3",
"J  c #7BF44D293383",
"K  c #6DF0551B3329",
"L  c #765D562B3020",
"P  c #7FB353F83716",
"I  c #72B1580330AA",
"U  c #7C2F52663A6E",
"Y  c #76D95E5637DD",
"T  c #7D9E5BCD3F9B",
"R  c #7C02655A3AB5",
"E  c #7F06691A3C0A",
"W  c #75E664503EF0",
"Q  c #4B36464A4755",
"!  c #515D45A94499",
"~  c #5AAA4D2E46D9",
"^  c #539B49754A1A",
"/  c #5B1F4C7749EF",
"(  c #5E215A4C5D1B",
")  c #58A8531355C1",
"_  c #65624F2A4456",
"`  c #64EF5B0642B8",
"'  c #655657454FB3",
"]  c #6A7C5ECB4421",
"[  c #7D8E5DC54149",
"{  c #645155415282",
"}  c #7027695E4CA4",
"|  c #6C1461F75C0D",
" . c #6B7B6A6B6D28",
".. c #71AC72207763",
"X. c #845838420E2D",
"o. c #8C4F3C240E86",
"O. c #914F3DA50E65",
"+. c #8261356B1048",
"@. c #84DA391A1300",
"#. c #96613C941111",
"$. c #97C541990E59",
"%. c #9A4142020EB7",
"&. c #8917436C1D8D",
"*. c #8F1C495E1F9C",
"=. c #975D413711E8",
"-. c #9E0845F611AA",
";. c #9DC64A601AB6",
":. c #85FB51AB1D3E",
">. c #962B57761D82",
",. c #9B1A5DED1651",
"<. c #A19A46DC0F57",
"1. c #B6074EA20F8D",
"2. c #BCB352790F09",
"3. c #A0B045F1148E",
"4. c #A337485E1170",
"5. c #AB154A0213FF",
"6. c #B07B4CB11016",
"7. c #BA37510D1058",
"8. c #B4A151F817E1",
"9. c #A20A60E614D7",
"0. c #B9926B23195F",
"q. c #813F49CD249A",
"w. c #85924D932975",
"e. c #85C5455523CB",
"r. c #8CA551A42B43",
"t. c #9AFB58C12881",
"y. c #80595A6A319B",
"u. c #8F4559CE3539",
"i. c #844455FB39A0",
"p. c #8704584D3C3D",
"a. c #8DB75CED3B3E",
"s. c #880455BE34D5",
"d. c #927B5A27364A",
"f. c #9BF25C2F3230",
"g. c #91CB590C390F",
"h. c #B58C5A2021DF",
"j. c #80F566563C44",
"k. c #84916A4D3DE0",
"l. c #8E90664A3C9B",
"z. c #969B62633D4B",
"x. c #98DD62983ADA",
"c. c #A39C659B3AF0",
"v. c #AA73694E3BEE",
"b. c #B55070E13C25",
"n. c #C3F154DA0E59",
"m. c #C05C54991046",
"M. c #82D6652846B4",
"N. c #9F0C6AC042C0",
"B. c #90DA72514DD9",
"V. c #91256A4C509F",
"C. c #9D737A9352CA",
"Z. c #A5A36FD543ED",
"A. c #AA79714E4338",
"S. c #ACBD750C4CB2",
"D. c #A28A73C7466B",
"F. c #B2A87AC64B41",
"G. c #BB8B7C964B35",
"H. c #BB35773F435D",
"J. c #C2CF7B2B432C",
"K. c #A3E580BD5521",
"L. c #BB368303532C",
"P. c #C8CE80064571",
"I. c #C9FC84F54B1B",
"U. c #CDDC8A4E4FAB",
"Y. c #C3AF869052B4",
"T. c #C91386CE51A1",
"R. c #C6E08A7C5626",
"E. c #CC2D8C365554",
"W. c #D2EA8E7553CB",
"Q. c #CEC691645AA9",
"!. c #D2B090F157CE",
"~. c #D3BE951B5B94",
"^. c #D8E997B15B6C",
"/. c #DEEB9C8B5DE0",
"(. c #E0B89EFB5FD2",
"). c #DD169CAD602B",
"_. c #E45CA2D562FC",
"`. c None",
/* pixels */
"`.`.`.`.`.`.`.`.`.`.`.`.`.`.`.`.`.`.`.`.`.`.`.`.`.`.`.`.`.`.",
"`.`.`.`.`.`.`.`.`.`.`.`.`.`.`.`.`.`.`.`.`.`.`.`.`.`.`.`.`.`.",
"`.`.`.`.`.`.`.`.`.`.`.`.`.`.`.`.`.`.`.`.`.`.`.`.`.`.`.`.`.`.",
"`.`.`.`.`.`.`.`.`.`.`.`.`.`.`.`.`.`.`.`.`.`.`.`.`.`.`.`.`.`.",
"`.`.`.`.`.`.`.`.`.`.`.`.`.`.`.`.`.`.`.`.`.`.`.`.`.`.`.`.`.`.",
"`.`.`.`.`.`.`.`.`.`.`.`.`.`.`.`.`.`.`.`.`.`.`.`.`.`.`.`.`.`.",
"`.`.`.`.`.`.`.`.`.`.`.`.`.`.`.`.`.`.`.`.`.`.`.`.`.`.`.`.`.`.",
"`.`.`.`.`.`.`.`.`.`.`.`.`.`.`.`.`.`.`.`.`.i.`.`.`.`.`.`.`.`.",
"`.`.`.`.`.`.`.`.`.`.`.`.`.`.`.`.`.`.`.V i.S.a.p.`.`.`.`.`.`.",
"`.`.`.`.`.`.`.`.`.`.1 +.#.@.*   O `.6 p.i.i.F.N.C `.`.H `.`.",
"`.`.`.`.`.`.`.`.@.3.X.7.n.n.4.& @ # 5 y e H P a.Y.n S l `.`.",
"`.`.`.`.s.e.U G.e.@.-.n.n.n.n., + j [ T M.b v k G e k.M `.`.",
"`.`.`.Y.~.d.J !.e.4.X.2.n.n.n.$.. R T C.B.] } ` q h j.M `.`.",
"`.`.F._.T.;.4 G.&.1.O.$.n.n.n.o.. x K.C.l ` ` ` v R k.S `.`.",
"`.`.~._.G.3.4 c.e.5.1., <.2.1.> X a w.>.w ` 8 c M R j.Z `.`.",
"`.A._._.W.f.H.W.t.5.#.@.o.6., . i a 9.0.2 G y 8 q z k h `.`.",
"`.G._._.W.J.(.I.8.n.2.7.4.3   @ p a ,.t.P U g.N - 0 I K `.`.",
"`.F._._.(.J.G.J.8.2.4.3 & X i p p a :.y ^ ( _ Z.B M K K `.`.",
"`.x.~._._.R.g.f.f.2 # @ p p p p p @ 7 % ) .. ._ d.D Y S `.`.",
"`.`.z.L.~.!.v.f.t.f d d p a p f Z L y ! Q  .{ / V M E M `.`.",
"`.`.`.`.`.w.u x.A p f I l.y.n F.)._.Y.U ) ! ' ~ 7 l k k `.`.",
"`.`.`.`.`.`.`.n a s D.(._._.T.W._._.~.S.V.) ! t - 7 `.`.`.`.",
"`.`.`.`.`.`.`.`.s g ~._._._._.(._._.R.E.A./ $ = `.`.`.`.`.`.",
"`.`.`.`.`.`.`.`.`.: Q._._._._.(._._.^.I.r.9 `.`.`.`.`.`.`.`.",
"`.`.`.`.`.`.`.`.`.`.Z.)._./.I.J.!.U.b.r.`.`.`.`.`.`.`.`.`.`.",
"`.`.`.`.`.`.`.`.`.`.`.g.v.x.w.q.w.q.`.`.`.`.`.`.`.`.`.`.`.`.",
"`.`.`.`.`.`.`.`.`.`.`.`.`.`.`.`.`.`.`.`.`.`.`.`.`.`.`.`.`.`.",
"`.`.`.`.`.`.`.`.`.`.`.`.`.`.`.`.`.`.`.`.`.`.`.`.`.`.`.`.`.`.",
"`.`.`.`.`.`.`.`.`.`.`.`.`.`.`.`.`.`.`.`.`.`.`.`.`.`.`.`.`.`.",
"`.`.`.`.`.`.`.`.`.`.`.`.`.`.`.`.`.`.`.`.`.`.`.`.`.`.`.`.`.`."
};
