/* XPM */
static char *_9b9dfd4bf734e4e9cc5cb2756f41136P6an1Us3dQKiDmnh[] = {
/* columns rows colors chars-per-pixel */
"32 32 9 1 ",
"  c None",
". c #FFB90F",
"X c #FFBA0E",
"o c #FFBB0E",
"O c #FFBA0F",
"+ c #FFBB0F",
"@ c #FFBC0E",
"# c #FFBC0F",
"$ c #FFBE0F",
/* pixels */
"                                ",
"                                ",
"                                ",
"                                ",
"                                ",
"                                ",
"                                ",
"                                ",
"                                ",
"                                ",
"                                ",
"                                ",
"             X$XXXX             ",
"            $XXX$XXX            ",
"           $XXXXXX$XX           ",
"           XX$X$X$XX$           ",
"           XX$X$$X$XX           ",
"           XXXXXXXXX$           ",
"           $X$XXX$$XX           ",
"            $X$XXXXX            ",
"             $XXX@$             ",
"                                ",
"                                ",
"                                ",
"                                ",
"                                ",
"                                ",
"                                ",
"                                ",
"                                ",
"                                ",
"                                "
};
